<svg width="134" height="129" viewBox="0 0 134 129" fill="none" xmlns="http://www.w3.org/2000/svg">
<g clip-path="url(#clip0)">
<path d="M73.4538 107.563H8.59319C3.84903 107.563 0 103.715 0 98.9733V34.1422C0 29.4003 3.84903 25.553 8.59319 25.553H73.4538C78.198 25.553 82.047 29.4003 82.047 34.1422V98.9733C82.047 103.715 78.198 107.563 73.4538 107.563Z" fill="#EDEDED"/>
<path d="M12.9972 90.921V42.1949C12.9972 40.1728 14.6263 38.5444 16.6493 38.5444H65.3977C67.4207 38.5444 69.0498 40.1728 69.0498 42.1949V90.921C69.0498 92.9431 67.4207 94.5715 65.3977 94.5715H16.6493C14.6442 94.5715 12.9972 92.9252 12.9972 90.921Z" fill="#DADADA"/>
<path d="M56.2306 80.7631C64.0764 72.3742 63.6331 59.2163 55.2403 51.3741C46.8476 43.5318 33.6837 43.9749 25.8378 52.3638C17.992 60.7527 18.4353 73.9106 26.8281 81.7529C35.2208 89.5951 48.3847 89.152 56.2306 80.7631Z" fill="#EDEDED"/>
<path d="M34.5876 66.5668C34.5876 68.5889 32.9585 70.2173 30.9355 70.2173C28.9125 70.2173 27.2834 68.5889 27.2834 66.5668C27.2834 64.5448 28.9125 62.9164 30.9355 62.9164C32.9585 62.8985 34.5876 64.5448 34.5876 66.5668Z" fill="#3C3C3B"/>
<path d="M54.7816 66.5667C54.7816 68.5888 53.1524 70.2171 51.1295 70.2171C49.1065 70.2171 47.4774 68.5888 47.4774 66.5667C47.4774 64.5446 49.1065 62.9163 51.1295 62.9163C53.1524 62.9163 54.7816 64.5446 54.7816 66.5667Z" fill="#3C3C3B"/>
<path d="M39.6719 64.3836L43.2166 67.9267C43.8252 66.9425 43.7178 65.6183 42.8585 64.7594C41.9813 63.8826 40.6744 63.7573 39.6719 64.3836Z" fill="#9D9D9C"/>
<path d="M38.8484 65.2068C38.2397 66.191 38.3471 67.5151 39.2064 68.3741C40.0657 69.233 41.3905 69.3583 42.3751 68.732L38.8484 65.2068Z" fill="#9D9D9C"/>
<path d="M42.7153 45.0039H39.3317V52.8237H42.7153V45.0039Z" fill="#DADADA"/>
<path d="M42.7153 80.2378H39.3317V88.0576H42.7153V80.2378Z" fill="#DADADA"/>
<path d="M41.0325 88.9703C28.6619 88.9703 18.6007 78.9137 18.6007 66.5487C18.6007 54.1838 28.6619 44.1272 41.0325 44.1272C53.4031 44.1272 63.4643 54.1838 63.4643 66.5487C63.4464 78.9137 53.3852 88.9703 41.0325 88.9703ZM41.0325 47.4019C30.4521 47.4019 21.8589 55.9911 21.8589 66.5666C21.8589 77.1422 30.47 85.7314 41.0325 85.7314C51.6128 85.7314 60.206 77.1422 60.206 66.5666C60.206 55.9911 51.5949 47.4019 41.0325 47.4019Z" fill="#9D9D9C"/>
<path d="M117.011 84.157H108.901V129H117.011V84.157Z" fill="#DADADA"/>
<path d="M105.947 29.1676H99.8063V1.14512C101.919 -0.55484 103.96 -0.232743 105.947 1.14512V29.1676Z" fill="#DADADA"/>
<path d="M126.141 29.1675H120V1.16294C122.113 -0.537018 124.154 -0.21492 126.141 1.16294V29.1675Z" fill="#DADADA"/>
<path d="M105.947 29.1676H99.8063V1.14512C101.919 -0.55484 103.96 -0.232743 105.947 1.14512V29.1676Z" fill="#B2B2B2"/>
<path d="M126.141 29.1675H120V1.16294C122.113 -0.537018 124.154 -0.21492 126.141 1.16294V29.1675Z" fill="#B2B2B2"/>
<path d="M131.959 19.4868H93.988V35.6812H131.959V19.4868Z" fill="#EDEDED"/>
<path d="M120.752 63.7215H105.177L93.988 35.6812H131.941L120.752 63.7215Z" fill="#DADADA"/>
<path d="M120.734 63.7214V82.0631C120.734 85.8746 117.637 85.8388 113.824 85.8388H112.105C108.292 85.8388 105.177 85.8925 105.177 82.0631V63.7214H120.734Z" fill="#9D9D9C"/>
<path d="M122.202 42.4629C122.202 43.3576 121.468 44.0912 120.573 44.0912H105.392C104.497 44.0912 103.763 43.3576 103.763 42.4629C103.763 41.5681 104.497 40.8345 105.392 40.8345H120.573C121.486 40.8345 122.202 41.5681 122.202 42.4629Z" fill="#706F6F"/>
<path d="M119.481 48.2429C119.481 49.1376 118.747 49.8713 117.852 49.8713H107.576C106.681 49.8713 105.947 49.1376 105.947 48.2429C105.947 47.3482 106.681 46.6145 107.576 46.6145H117.852C118.747 46.6145 119.481 47.3482 119.481 48.2429Z" fill="#706F6F"/>
<path d="M117.852 54.0407C117.852 54.9355 117.118 55.6691 116.223 55.6691H109.688C108.793 55.6691 108.059 54.9355 108.059 54.0407C108.059 53.146 108.793 52.4124 109.688 52.4124H116.223C117.136 52.4124 117.852 53.146 117.852 54.0407Z" fill="#706F6F"/>
<path d="M134 19.4868H91.9471V23.9604H134V19.4868Z" fill="#DADADA"/>
<path d="M110.96 67.855C110.96 68.4455 110.494 68.9108 109.921 68.9108H105.195V66.8171H109.921C110.476 66.8171 110.96 67.2824 110.96 67.855Z" fill="#575756"/>
<path d="M110.96 72.0423C110.96 72.615 110.494 73.0802 109.921 73.0802H105.195V70.9866H109.921C110.476 70.9687 110.96 71.4518 110.96 72.0423Z" fill="#575756"/>
<path d="M110.96 76.1937C110.96 76.7842 110.494 77.2495 109.921 77.2495H105.195V75.1379H109.921C110.476 75.1379 110.96 75.6032 110.96 76.1937Z" fill="#575756"/>
<path d="M110.96 80.3453C110.96 80.9358 110.494 81.401 109.921 81.401H105.195V79.3074H109.921C110.476 79.3074 110.96 79.7726 110.96 80.3453Z" fill="#575756"/>
<path d="M120.734 66.8171V68.9108H116.026C115.435 68.9108 114.97 68.4455 114.97 67.855C114.97 67.2824 115.435 66.8171 116.026 66.8171H120.734Z" fill="#575756"/>
<path d="M120.734 70.9688V73.0624H116.026C115.435 73.0624 114.97 72.5971 114.97 72.0245C114.97 71.434 115.435 70.9688 116.026 70.9688H120.734Z" fill="#575756"/>
<path d="M120.734 75.1379V77.2495H116.026C115.435 77.2495 114.97 76.7842 114.97 76.1937C114.97 75.6032 115.435 75.1379 116.026 75.1379H120.734Z" fill="#575756"/>
<path d="M120.734 79.3074V81.401H116.026C115.435 81.401 114.97 80.9358 114.97 80.3453C114.97 79.7547 115.435 79.3074 116.026 79.3074H120.734Z" fill="#575756"/>
</g>
<defs>
<clipPath id="clip0">
<rect width="134" height="129" fill="white"/>
</clipPath>
</defs>
</svg>
