<svg width="47" height="110" viewBox="0 0 47 110" fill="none" xmlns="http://www.w3.org/2000/svg">
<g clip-path="url(#clip0)">
<path d="M22.5494 110C25.0827 110 27.1363 109.099 27.1363 107.988C27.1363 106.877 25.0827 105.976 22.5494 105.976C20.016 105.976 17.9624 106.877 17.9624 107.988C17.9624 109.099 20.016 110 22.5494 110Z" fill="#3C3C3B"/>
<path d="M13.1361 55.4241C10.7428 55.4241 8.78839 53.426 8.78839 50.9491V45.4614C8.72192 45.2424 8.00395 44.2708 6.70098 43.4497L2.0874 40.5758C0.0398781 39.3031 -0.611607 36.5524 0.624885 34.4313C1.87467 32.3238 4.5338 31.6532 6.59462 32.9259L11.2082 35.7998C12.684 36.7167 17.4837 40.1242 17.4837 45.4477V50.9354C17.4837 53.426 15.5293 55.4241 13.1361 55.4241Z" fill="#DADADA"/>
<path d="M41.7881 17.3387C41.3228 17.3387 40.8308 17.2566 40.3655 17.0924L21.1267 10.2225C18.8665 9.4151 17.6566 6.86969 18.441 4.52956C19.2255 2.20311 21.6984 0.957776 23.972 1.76519L43.2108 8.64874C45.471 9.45616 46.6809 12.0016 45.8965 14.3417C45.2716 16.1892 43.583 17.3387 41.7881 17.3387Z" fill="#DADADA"/>
<path d="M42.0274 29.9564C41.5222 29.9564 41.017 29.8606 40.5117 29.669L2.83195 15.2176C0.584995 14.3555 -0.558428 11.7827 0.279196 9.46993C1.11682 7.15717 3.61639 5.98026 5.86335 6.84241L43.5564 21.3075C45.8034 22.1696 46.9468 24.7424 46.1092 27.0552C45.4444 28.8479 43.7957 29.9564 42.0274 29.9564Z" fill="#DADADA"/>
<path d="M42.1604 41.2463C41.7083 41.2463 41.243 41.1779 40.7909 41.0137L2.97822 28.1498C0.704666 27.3698 -0.531826 24.838 0.226024 22.4979C0.983874 20.1578 3.43027 18.8851 5.71711 19.6514L43.5298 32.5153C45.8034 33.2954 47.0399 35.8134 46.2953 38.1672C45.6837 40.0557 43.9819 41.2463 42.1604 41.2463Z" fill="#DADADA"/>
<path d="M4.34892 15.5045C2.43436 15.5045 0.679333 14.1908 0.160804 12.1928C-0.46409 9.81158 0.918655 7.36197 3.23209 6.71877L27.0047 0.149975C29.3181 -0.49322 31.698 0.93002 32.3229 3.31121C32.9478 5.6924 31.5651 8.14201 29.2516 8.78521L5.47905 15.354C5.09348 15.4498 4.70791 15.5045 4.34892 15.5045Z" fill="#EDEDED"/>
<path d="M4.34767 28.369C2.4464 28.369 0.704671 27.0826 0.172847 25.0983C-0.478638 22.7171 0.877514 20.2538 3.19095 19.5833L41.5089 8.55315C43.8224 7.88258 46.2156 9.27846 46.8538 11.6596C47.4919 14.0408 46.1491 16.5041 43.8356 17.1747L5.51768 28.2048C5.11882 28.3143 4.73324 28.369 4.34767 28.369Z" fill="#EDEDED"/>
<path d="M4.34767 41.2464C2.45969 41.2464 0.731261 39.9737 0.186141 38.0304C-0.47864 35.6629 0.837626 33.1723 3.13777 32.488L40.8308 21.2116C43.131 20.5273 45.5375 21.8821 46.2156 24.2496C46.8804 26.6171 45.5641 29.1078 43.2639 29.7921L5.55757 41.0685C5.14541 41.178 4.74654 41.2464 4.34767 41.2464Z" fill="#EDEDED"/>
<path d="M33.239 55.4243C30.8458 55.4243 28.8914 53.4263 28.8914 50.9493V45.4616C28.8914 40.1382 33.6911 36.7306 35.1669 35.8137L40.432 32.5703C42.4928 31.2976 45.1519 31.9956 46.3884 34.1168C47.6116 36.2379 46.9468 38.9749 44.886 40.2476L39.6475 43.4636C38.3711 44.2573 37.6532 45.2427 37.5734 45.5574L37.5867 50.9356C37.5867 53.4263 35.6322 55.4243 33.239 55.4243Z" fill="#EDEDED"/>
<path d="M44.4206 54.4114H0.67807V68.6575H44.4206V54.4114Z" fill="#C6C6C6"/>
<path d="M11.3544 87.0914C5.78359 81.4942 1.87468 75.4318 0.67807 68.644H44.4206C43.224 75.4318 39.3018 81.4806 33.7443 87.0914H11.3544Z" fill="#EDEDED"/>
<path d="M33.731 87.0913H11.3544V90.8547H33.731V87.0913Z" fill="#C6C6C6"/>
<path d="M41.7881 49.6628H3.31061V54.4115H41.7881V49.6628Z" fill="#EDEDED"/>
<path d="M31.4707 90.8547H13.6147V105.388H31.4707V90.8547Z" fill="#878787"/>
<path d="M13.6147 105.388L16.1941 107.988H28.9047L31.4707 105.388H13.6147Z" fill="#575756"/>
<path d="M14.1465 94.6454C13.5748 94.6865 13.0696 94.2486 13.0164 93.6464C12.9765 93.0579 13.402 92.5379 13.987 92.4832L30.9389 91.1694C31.5106 91.1284 32.0159 91.5663 32.069 92.1684C32.1089 92.7569 31.6835 93.2769 31.0984 93.3316L14.1465 94.6454Z" fill="#575756"/>
<path d="M14.1465 98.1215C13.5748 98.1625 13.0696 97.7246 13.0164 97.1225C12.9765 96.534 13.402 96.014 13.987 95.9592L30.9389 94.6455C31.5106 94.6044 32.0159 95.0423 32.069 95.6445C32.1089 96.2329 31.6835 96.753 31.0984 96.8077L14.1465 98.1215Z" fill="#575756"/>
<path d="M14.1465 101.597C13.5748 101.638 13.0696 101.2 13.0164 100.598C12.9765 100.01 13.402 99.4898 13.987 99.4351L30.9389 98.1213C31.5106 98.0803 32.0159 98.5182 32.069 99.1203C32.1089 99.7088 31.6835 100.229 31.0984 100.284L14.1465 101.597Z" fill="#575756"/>
<path d="M14.1465 105.073C13.5748 105.114 13.0696 104.677 13.0164 104.074C12.9765 103.486 13.402 102.966 13.987 102.911L30.9389 101.597C31.5106 101.556 32.0159 101.994 32.069 102.596C32.1089 103.185 31.6835 103.705 31.0984 103.76L14.1465 105.073Z" fill="#575756"/>
</g>
<defs>
<clipPath id="clip0">
<rect width="47" height="110" fill="white"/>
</clipPath>
</defs>
</svg>
