<svg width="105" height="105" viewBox="0 0 105 105" fill="none" xmlns="http://www.w3.org/2000/svg">
<path d="M29.3554 4.03247H27.1641V28.2662H29.3554V4.03247Z" fill="#9D9D9C"/>
<path d="M53.5892 4.03247H51.3979V28.2662H53.5892V4.03247Z" fill="#9D9D9C"/>
<path d="M77.8229 4.03247H75.6317V28.2662H77.8229V4.03247Z" fill="#9D9D9C"/>
<path d="M28.2662 27.1641H4.03247V29.3553H28.2662V27.1641Z" fill="#9D9D9C"/>
<path d="M52.5 27.1641H28.2662V29.3553H52.5V27.1641Z" fill="#9D9D9C"/>
<path d="M53.5892 28.2664H51.3979V52.5001H53.5892V28.2664Z" fill="#9D9D9C"/>
<path d="M100.968 27.1641H76.7338V29.3553H100.968V27.1641Z" fill="#9D9D9C"/>
<path d="M77.8229 28.2664H75.6317V52.5001H77.8229V28.2664Z" fill="#9D9D9C"/>
<path d="M28.2662 51.3979H4.03247V53.5892H28.2662V51.3979Z" fill="#9D9D9C"/>
<path d="M52.5 51.3979H28.2662V53.5892H52.5V51.3979Z" fill="#9D9D9C"/>
<path d="M29.3554 52.5H27.1641V76.7338H29.3554V52.5Z" fill="#9D9D9C"/>
<path d="M76.7338 51.3979H52.5V53.5892H76.7338V51.3979Z" fill="#9D9D9C"/>
<path d="M53.5892 52.5H51.3979V76.7338H53.5892V52.5Z" fill="#9D9D9C"/>
<path d="M100.968 51.3979H76.7338V53.5892H100.968V51.3979Z" fill="#9D9D9C"/>
<path d="M28.2662 75.6316H4.03247V77.8229H28.2662V75.6316Z" fill="#9D9D9C"/>
<path d="M29.3554 76.7336H27.1641V100.967H29.3554V76.7336Z" fill="#9D9D9C"/>
<path d="M76.7338 75.6316H52.5V77.8229H76.7338V75.6316Z" fill="#9D9D9C"/>
<path d="M53.5892 76.7336H51.3979V100.967H53.5892V76.7336Z" fill="#9D9D9C"/>
<path d="M100.968 75.6316H76.7338V77.8229H100.968V75.6316Z" fill="#9D9D9C"/>
<path d="M77.8229 76.7336H75.6317V100.967H77.8229V76.7336Z" fill="#9D9D9C"/>
<path d="M41.1157 43.8515C40.7008 43.8515 40.3766 43.5144 40.3766 43.1124V32.8951C40.3766 32.4802 40.7138 32.156 41.1157 32.156C41.5306 32.156 41.8548 32.4931 41.8548 32.8951V43.1124C41.8548 43.5144 41.5177 43.8515 41.1157 43.8515Z" fill="#24475C"/>
<path d="M42.9569 35.7996H39.2486C38.8077 35.7996 38.4576 35.4495 38.4576 35.0087V34.6586C38.4576 34.2178 38.8077 33.8677 39.2486 33.8677H42.9569C43.3978 33.8677 43.7478 34.2178 43.7478 34.6586V35.0087C43.7608 35.4366 43.3978 35.7996 42.9569 35.7996Z" fill="#DADADA"/>
<path d="M42.9569 38.2889H39.2486C38.8077 38.2889 38.4576 37.9388 38.4576 37.498V37.1479C38.4576 36.707 38.8077 36.3569 39.2486 36.3569H42.9569C43.3978 36.3569 43.7478 36.707 43.7478 37.1479V37.498C43.7608 37.9388 43.3978 38.2889 42.9569 38.2889Z" fill="#DADADA"/>
<path d="M42.9569 40.7913H39.2486C38.8077 40.7913 38.4576 40.4412 38.4576 40.0004V39.6503C38.4576 39.2095 38.8077 38.8594 39.2486 38.8594H42.9569C43.3978 38.8594 43.7478 39.2095 43.7478 39.6503V40.0004C43.7608 40.4412 43.3978 40.7913 42.9569 40.7913Z" fill="#DADADA"/>
<path d="M52.5 43.8515C52.0851 43.8515 51.7609 43.5144 51.7609 43.1124V32.8951C51.7609 32.4802 52.0981 32.156 52.5 32.156C52.9149 32.156 53.2391 32.4931 53.2391 32.8951V43.1124C53.2391 43.5144 52.902 43.8515 52.5 43.8515Z" fill="#24475C"/>
<path d="M54.3542 35.7996H50.6459C50.205 35.7996 49.8549 35.4495 49.8549 35.0087V34.6586C49.8549 34.2178 50.205 33.8677 50.6459 33.8677H54.3542C54.795 33.8677 55.1451 34.2178 55.1451 34.6586V35.0087C55.1451 35.4366 54.7821 35.7996 54.3542 35.7996Z" fill="#DADADA"/>
<path d="M54.3542 38.2889H50.6459C50.205 38.2889 49.8549 37.9388 49.8549 37.498V37.1479C49.8549 36.707 50.205 36.3569 50.6459 36.3569H54.3542C54.795 36.3569 55.1451 36.707 55.1451 37.1479V37.498C55.1451 37.9388 54.7821 38.2889 54.3542 38.2889Z" fill="#DADADA"/>
<path d="M54.3542 40.7913H50.6459C50.205 40.7913 49.8549 40.4412 49.8549 40.0004V39.6503C49.8549 39.2095 50.205 38.8594 50.6459 38.8594H54.3542C54.795 38.8594 55.1451 39.2095 55.1451 39.6503V40.0004C55.1451 40.4412 54.7821 40.7913 54.3542 40.7913Z" fill="#DADADA"/>
<path d="M63.8843 43.8515C63.4694 43.8515 63.1453 43.5144 63.1453 43.1124V32.8951C63.1453 32.4802 63.4824 32.156 63.8843 32.156C64.2993 32.156 64.6234 32.4931 64.6234 32.8951V43.1124C64.6234 43.5144 64.2993 43.8515 63.8843 43.8515Z" fill="#24475C"/>
<path d="M65.7385 35.7996H62.0301C61.5893 35.7996 61.2392 35.4495 61.2392 35.0087V34.6586C61.2392 34.2178 61.5893 33.8677 62.0301 33.8677H65.7385C66.1793 33.8677 66.5294 34.2178 66.5294 34.6586V35.0087C66.5294 35.4366 66.1793 35.7996 65.7385 35.7996Z" fill="#DADADA"/>
<path d="M65.7385 38.2889H62.0301C61.5893 38.2889 61.2392 37.9388 61.2392 37.498V37.1479C61.2392 36.707 61.5893 36.3569 62.0301 36.3569H65.7385C66.1793 36.3569 66.5294 36.707 66.5294 37.1479V37.498C66.5294 37.9388 66.1793 38.2889 65.7385 38.2889Z" fill="#DADADA"/>
<path d="M65.7385 40.7913H62.0301C61.5893 40.7913 61.2392 40.4412 61.2392 40.0004V39.6503C61.2392 39.2095 61.5893 38.8594 62.0301 38.8594H65.7385C66.1793 38.8594 66.5294 39.2095 66.5294 39.6503V40.0004C66.5294 40.4412 66.1793 40.7913 65.7385 40.7913Z" fill="#DADADA"/>
<path d="M68.3576 44.0071H36.6294V70.86H68.3576V44.0071Z" fill="#5C839C"/>
<path d="M72.0789 41.6213H32.9211V43.9941H72.0789V41.6213Z" fill="#31607D"/>
<path d="M63.8843 45.7446H41.1157V59.9166H63.8843V45.7446Z" fill="#F6F6F6"/>
<path d="M63.1971 46.354H41.8029V59.3202H63.1971V46.354Z" fill="#31607D"/>
<path d="M43.7997 46.9634H42.5679V58.6978H43.7997V46.9634Z" fill="#24475C"/>
<path d="M45.8743 46.9634H44.6425V58.6978H45.8743V46.9634Z" fill="#24475C"/>
<path d="M47.936 46.9634H46.7042V58.6978H47.936V46.9634Z" fill="#24475C"/>
<path d="M50.0105 46.9634H48.7787V58.6978H50.0105V46.9634Z" fill="#24475C"/>
<path d="M52.0721 46.9634H50.8403V58.6978H52.0721V46.9634Z" fill="#24475C"/>
<path d="M54.1467 46.9634H52.9149V58.6978H54.1467V46.9634Z" fill="#24475C"/>
<path d="M56.2083 46.9634H54.9766V58.6978H56.2083V46.9634Z" fill="#24475C"/>
<path d="M58.2829 46.9634H57.0511V58.6978H58.2829V46.9634Z" fill="#24475C"/>
<path d="M60.3445 46.9634H59.1127V58.6978H60.3445V46.9634Z" fill="#24475C"/>
<path d="M62.4191 46.9634H61.1873V58.6978H62.4191V46.9634Z" fill="#24475C"/>
<path d="M38.9893 45.8352C38.9893 46.2372 38.6651 46.5613 38.2632 46.5613C37.8612 46.5613 37.537 46.2372 37.537 45.8352C37.537 45.4333 37.8612 45.1091 38.2632 45.1091C38.6651 45.1091 38.9893 45.4333 38.9893 45.8352Z" fill="#24475C"/>
<path d="M38.2632 69.7579C38.6642 69.7579 38.9893 69.4328 38.9893 69.0318C38.9893 68.6308 38.6642 68.3057 38.2632 68.3057C37.8621 68.3057 37.537 68.6308 37.537 69.0318C37.537 69.4328 37.8621 69.7579 38.2632 69.7579Z" fill="#24475C"/>
<path d="M67.3463 45.8352C67.3463 46.2372 67.0221 46.5613 66.6202 46.5613C66.2182 46.5613 65.894 46.2372 65.894 45.8352C65.894 45.4333 66.2182 45.1091 66.6202 45.1091C67.0221 45.1091 67.3463 45.4333 67.3463 45.8352Z" fill="#24475C"/>
<path d="M52.5 69.7579C52.901 69.7579 53.2261 69.4328 53.2261 69.0318C53.2261 68.6308 52.901 68.3057 52.5 68.3057C52.099 68.3057 51.7739 68.6308 51.7739 69.0318C51.7739 69.4328 52.099 69.7579 52.5 69.7579Z" fill="#24475C"/>
<path d="M66.6202 69.7579C67.0212 69.7579 67.3463 69.4328 67.3463 69.0318C67.3463 68.6308 67.0212 68.3057 66.6202 68.3057C66.2191 68.3057 65.894 68.6308 65.894 69.0318C65.894 69.4328 66.2191 69.7579 66.6202 69.7579Z" fill="#24475C"/>
<path d="M38.2632 58.3477C38.6642 58.3477 38.9893 58.0226 38.9893 57.6216C38.9893 57.2206 38.6642 56.8955 38.2632 56.8955C37.8621 56.8955 37.537 57.2206 37.537 57.6216C37.537 58.0226 37.8621 58.3477 38.2632 58.3477Z" fill="#24475C"/>
<path d="M66.6202 58.3477C67.0212 58.3477 67.3463 58.0226 67.3463 57.6216C67.3463 57.2206 67.0212 56.8955 66.6202 56.8955C66.2191 56.8955 65.894 57.2206 65.894 57.6216C65.894 58.0226 66.2191 58.3477 66.6202 58.3477Z" fill="#24475C"/>
<path d="M28.2662 8.06495C30.4933 8.06495 32.2987 6.25955 32.2987 4.03248C32.2987 1.8054 30.4933 0 28.2662 0C26.0392 0 24.2338 1.8054 24.2338 4.03248C24.2338 6.25955 26.0392 8.06495 28.2662 8.06495Z" fill="#9D9D9C"/>
<path d="M52.4092 8.06495C54.6363 8.06495 56.4417 6.25955 56.4417 4.03248C56.4417 1.8054 54.6363 0 52.4092 0C50.1822 0 48.3768 1.8054 48.3768 4.03248C48.3768 6.25955 50.1822 8.06495 52.4092 8.06495Z" fill="#9D9D9C"/>
<path d="M76.7338 8.06495C78.9608 8.06495 80.7663 6.25955 80.7663 4.03248C80.7663 1.8054 78.9608 0 76.7338 0C74.5067 0 72.7013 1.8054 72.7013 4.03248C72.7013 6.25955 74.5067 8.06495 76.7338 8.06495Z" fill="#F7C31E"/>
<path d="M100.968 32.2986C103.195 32.2986 105 30.4932 105 28.2661C105 26.039 103.195 24.2336 100.968 24.2336C98.7405 24.2336 96.9351 26.039 96.9351 28.2661C96.9351 30.4932 98.7405 32.2986 100.968 32.2986Z" fill="#9D9D9C"/>
<path d="M100.968 56.5325C103.195 56.5325 105 54.7271 105 52.5C105 50.2729 103.195 48.4675 100.968 48.4675C98.7405 48.4675 96.9351 50.2729 96.9351 52.5C96.9351 54.7271 98.7405 56.5325 100.968 56.5325Z" fill="#F7C31E"/>
<path d="M100.968 80.7664C103.195 80.7664 105 78.961 105 76.7339C105 74.5068 103.195 72.7014 100.968 72.7014C98.7405 72.7014 96.9351 74.5068 96.9351 76.7339C96.9351 78.961 98.7405 80.7664 100.968 80.7664Z" fill="#9D9D9C"/>
<path d="M76.7338 105C78.9608 105 80.7663 103.195 80.7663 100.968C80.7663 98.7405 78.9608 96.9351 76.7338 96.9351C74.5067 96.9351 72.7013 98.7405 72.7013 100.968C72.7013 103.195 74.5067 105 76.7338 105Z" fill="#F7C31E"/>
<path d="M52.6037 105C54.8308 105 56.6362 103.195 56.6362 100.968C56.6362 98.7405 54.8308 96.9351 52.6037 96.9351C50.3766 96.9351 48.5712 98.7405 48.5712 100.968C48.5712 103.195 50.3766 105 52.6037 105Z" fill="#9D9D9C"/>
<path d="M28.2662 105C30.4933 105 32.2987 103.195 32.2987 100.968C32.2987 98.7405 30.4933 96.9351 28.2662 96.9351C26.0392 96.9351 24.2338 98.7405 24.2338 100.968C24.2338 103.195 26.0392 105 28.2662 105Z" fill="#F7C31E"/>
<path d="M4.03248 80.7664C6.25955 80.7664 8.06495 78.961 8.06495 76.7339C8.06495 74.5068 6.25955 72.7014 4.03248 72.7014C1.8054 72.7014 0 74.5068 0 76.7339C0 78.961 1.8054 80.7664 4.03248 80.7664Z" fill="#F7C31E"/>
<path d="M4.03248 56.5325C6.25955 56.5325 8.06495 54.7271 8.06495 52.5C8.06495 50.2729 6.25955 48.4675 4.03248 48.4675C1.8054 48.4675 0 50.2729 0 52.5C0 54.7271 1.8054 56.5325 4.03248 56.5325Z" fill="#9D9D9C"/>
<path d="M4.03248 32.2986C6.25955 32.2986 8.06495 30.4932 8.06495 28.2661C8.06495 26.039 6.25955 24.2336 4.03248 24.2336C1.8054 24.2336 0 26.039 0 28.2661C0 30.4932 1.8054 32.2986 4.03248 32.2986Z" fill="#F7C31E"/>
</svg>
