<svg width="95" height="95" viewBox="0 0 95 95" fill="none" xmlns="http://www.w3.org/2000/svg">
<g clip-path="url(#clip0)">
<path d="M14.531 81.1415L29.7569 55.7794C31.6586 52.5614 35.7911 51.501 38.9728 53.4245L39.0947 53.4984C42.2764 55.4219 43.3248 59.6016 41.4231 62.8197L24.71 90.586L14.531 81.1415Z" fill="#0593A1"/>
<path fill-rule="evenodd" clip-rule="evenodd" d="M15.4818 53.8805L14.5432 50.7611L13.0681 49.935L12.2636 49.2569C10.5447 47.765 6.71693 46.0758 3.68151 42.9194C3.19389 44.9785 2.95009 47.0745 2.60875 49.1952C2.15771 52.068 1.1459 52.5366 0.853333 55.4217C1.69447 57.9863 2.15771 62.5113 6.08303 63.1647C6.13179 63.3867 7.3874 66.9869 7.3874 66.9869L12.1782 68.6638L12.3489 68.6884L15.1527 63.2017L14.8479 60.6618L15.4818 53.8805Z" fill="#C1BEA2"/>
<path d="M95 85.3581C94.9269 84.0141 94.4758 82.7689 93.7444 81.7455L78.3235 55.3354C77.3361 53.6339 75.8245 52.3269 74.0203 51.5995C69.4123 49.7377 60.6962 46.2114 60.6962 46.2114C60.6962 48.5417 57.3926 49.7007 54.1011 49.6884C50.8097 49.7007 47.5061 48.5417 47.5061 46.2114L35.913 50.909V94.5683H54.1011C58.7457 94.5683 65.0603 94.5683 74.2763 94.5683L75.3247 77.1589L75.5685 78.922V92.6572H88.2953C88.3319 92.6572 88.3684 92.6572 88.4172 92.6572C88.4538 92.6572 83.9799 94.5683 84.0165 94.5683C93.464 94.3834 94.8294 89.7351 95 86.2458C95 86.1718 95 85.4321 95 85.3581Z" fill="#0593A1"/>
<path d="M32.6338 94.5561H47.5061V46.1992L31.4025 52.7216L32.6338 94.5561Z" fill="#FF681D"/>
<path d="M75.8489 94.5561H60.9644V46.1992L77.0801 52.7216L75.8489 94.5561Z" fill="#FF681D"/>
<path d="M47.628 46.1993V42.488C48.9324 44.0169 50.0661 44.6827 51.9556 44.917C52.5895 45.0033 53.2965 45.0279 54.1255 45.0279C54.1377 45.0279 54.1377 45.0279 54.1499 45.0279H54.1621H54.1742C54.1864 45.0279 54.1864 45.0279 54.1986 45.0279C55.0276 45.0279 55.7468 44.991 56.3685 44.917C58.2459 44.6827 59.3796 44.0169 60.6961 42.488V46.1993C60.6961 50.8352 47.628 50.8352 47.628 46.1993Z" fill="#F2C28D"/>
<path d="M52.2969 8.69238C46.092 8.69238 41.0573 13.7845 41.0573 20.0727V24.5237C40.9233 24.462 40.7892 24.388 40.6551 24.351C40.6307 24.3387 40.6063 24.3387 40.5941 24.3387C40.4234 24.3141 40.265 24.3017 40.0943 24.3264C39.4238 24.4374 38.8996 25.0415 38.5949 25.9169C38.2901 26.7677 38.2048 27.8897 38.3998 29.0856C38.7168 31.046 39.6798 32.5749 40.7282 32.9695C40.972 33.0681 41.2402 33.1051 41.484 33.0558C41.5572 33.0434 41.6303 33.0065 41.7034 32.9941C42.2886 35.7683 43.0566 37.9753 44.044 39.4302C45.2143 41.1687 46.1164 42.4756 46.9575 43.4743C47.6768 44.3128 48.335 44.9046 49.0786 45.3238C49.8223 45.743 50.6512 45.9896 51.6752 46.1129C52.3701 46.1992 53.1381 46.2362 54.028 46.2362H54.2718C55.1739 46.2362 55.9419 46.1992 56.6245 46.1129C57.6485 45.9896 58.4775 45.743 59.2211 45.3238C59.9647 44.9046 60.6352 44.3128 61.3422 43.4743C62.1834 42.488 63.0855 41.1687 64.2557 39.4302C65.2432 37.9753 66.0112 35.7683 66.5963 32.9941C66.6694 33.0065 66.7426 33.0434 66.8157 33.0558C67.0595 33.0928 67.3277 33.0681 67.5715 32.9695C68.6199 32.5626 69.583 31.0337 69.8999 29.0856C70.095 27.8897 69.9974 26.78 69.7049 25.9169C69.4001 25.0415 68.8881 24.425 68.2054 24.3264C68.0348 24.3017 67.8763 24.3141 67.7056 24.3387C67.6934 24.351 67.6691 24.351 67.6447 24.351C67.4984 24.388 67.3765 24.4497 67.2424 24.5237V20.0727C67.2424 13.7969 62.2077 8.69238 56.0028 8.69238H52.2969Z" fill="#FFD2A1"/>
<path d="M60.6108 13.2791C63.2196 13.2791 65.3285 16.9904 65.3285 19.6412L65.2676 28.1734H66.9986L67.2668 24.3882V20.0604C67.2668 13.7847 62.2321 8.68018 56.0272 8.68018H52.2969C46.092 8.68018 41.0574 13.7723 41.0574 20.0604V24.3882L41.3256 28.1734H43.0566L42.9957 19.6412C42.9957 17.0027 45.1168 13.2791 47.7133 13.2791C52.1507 16.5342 56.4539 16.7561 60.6108 13.2791Z" fill="#3C3C3B"/>
<path d="M69.0344 20.4179V15.8806C69.0344 15.8066 69.0344 15.7326 69.0222 15.6586C68.9734 11.7871 67.474 8.26084 65.0725 5.60996C64.6458 5.14144 64.1826 4.69757 63.7071 4.27836C62.2687 3.05772 60.5986 2.09601 58.7822 1.47953C58.3312 1.31924 57.8801 1.19595 57.4169 1.08498C56.3563 0.838386 55.247 0.702759 54.1133 0.69043C52.9796 0.702759 51.8702 0.838386 50.8097 1.08498C50.3464 1.19595 49.8832 1.31924 49.4443 1.47953C47.628 2.09601 45.9579 3.04539 44.5194 4.27836C44.044 4.69757 43.5686 5.14144 43.1541 5.60996C40.7526 8.26084 39.2531 11.7871 39.2044 15.6586C39.1922 15.7326 39.1922 15.8066 39.1922 15.8806V20.4179H69.0344Z" fill="#FF681D"/>
<path d="M70.485 19.5178V20.9481H67.4862C67.023 20.9481 66.5719 21.0714 66.1696 21.2933L63.7072 22.7112C62.4881 23.414 61.1106 23.7839 59.7087 23.7839H48.4935C47.0916 23.7839 45.7141 23.414 44.495 22.7112L42.0326 21.2933C41.6303 21.059 41.1792 20.9481 40.716 20.9481H37.7172V19.5178H70.485Z" fill="#DE5410"/>
<path d="M60.0257 15.6587H62.9514C63.3658 15.6587 63.7072 16.0039 63.7072 16.4231V19.5179H59.2821V16.4231C59.2699 16.0039 59.6112 15.6587 60.0257 15.6587Z" fill="#DE5410"/>
<path d="M48.1766 15.6587H45.2509C44.8364 15.6587 44.4951 16.0039 44.4951 16.4231V19.5179H48.9202V16.4231C48.9202 16.0039 48.591 15.6587 48.1766 15.6587Z" fill="#DE5410"/>
<path d="M69.0222 15.6587C69.0343 15.7327 69.0343 15.8066 69.0343 15.8806V19.5302H70.034V16.4355C70.034 16.0163 69.6926 15.671 69.2782 15.671H69.0222V15.6587Z" fill="#DE5410"/>
<path d="M39.18 15.6587C39.1678 15.7327 39.1678 15.8066 39.1678 15.8806V19.5302H38.1682V16.4355C38.1682 16.0163 38.5095 15.671 38.924 15.671H39.18V15.6587Z" fill="#DE5410"/>
<path d="M57.4047 10.135V0.949383C57.4047 0.431538 56.9902 0 56.4661 0H51.7118C51.1998 0 50.7731 0.419208 50.7731 0.949383V10.135H57.4047Z" fill="#FF681D"/>
<path d="M59.5137 0.8632C59.343 0.801552 59.1601 0.826211 59.0138 0.924848C58.8676 1.02349 58.7822 1.1961 58.7822 1.38105V10.1351H63.7072V3.87164C63.7072 3.46476 63.5121 3.08254 63.183 2.83594C62.0615 2.02219 60.8302 1.35639 59.5137 0.8632Z" fill="#FF681D"/>
<path d="M48.6886 0.8632C48.8592 0.801552 49.0421 0.826211 49.1884 0.924848C49.3347 1.02349 49.42 1.1961 49.42 1.38105V10.1351H44.4951V3.87164C44.4951 3.46476 44.6901 3.08254 45.0192 2.84827C46.1408 2.02219 47.372 1.35639 48.6886 0.8632Z" fill="#FF681D"/>
<path d="M57.4047 1.08496V9.44447C57.4047 9.82669 57.7095 10.1349 58.0874 10.1349H58.0996C58.4775 10.1349 58.7822 9.82669 58.7822 9.44447V1.47951C58.3312 1.31922 57.868 1.1836 57.4047 1.08496Z" fill="#DE5410"/>
<path d="M50.7975 1.08496V9.44447C50.7975 9.82669 50.4927 10.1349 50.1148 10.1349H50.1026C49.7247 10.1349 49.42 9.82669 49.42 9.44447V1.47951C49.871 1.31922 50.3221 1.1836 50.7975 1.08496Z" fill="#DE5410"/>
<path d="M63.6949 4.26611V9.44457C63.6949 9.82679 63.9997 10.135 64.3776 10.135H64.3898C64.7677 10.135 65.0725 9.82679 65.0725 9.44457V5.61005C64.6458 5.14152 64.1826 4.68532 63.6949 4.26611Z" fill="#DE5410"/>
<path d="M44.4951 4.26611V9.44457C44.4951 9.82679 44.1903 10.135 43.8124 10.135H43.8002C43.4223 10.135 43.1176 9.82679 43.1176 9.44457V5.61005C43.5564 5.14152 44.0196 4.68532 44.4951 4.26611Z" fill="#DE5410"/>
<path fill-rule="evenodd" clip-rule="evenodd" d="M71.5335 83.5335C71.5335 83.5212 71.5456 83.5089 71.5456 83.4965C71.8992 82.4362 71.2409 81.3635 70.1316 81.0553C65.8893 79.8223 61.9152 78.1578 58.2825 76.1727C57.3316 75.6672 56.1613 76.0001 55.6006 76.9372C55.5884 76.9495 55.5884 76.9618 55.5762 76.9741C55.0154 77.9112 55.3324 79.1318 56.3442 79.6743C60.1476 81.7827 64.3045 83.5335 68.7297 84.8651C69.8999 85.2104 71.1799 84.5939 71.5335 83.5335Z" fill="#C1BEA2"/>
<path d="M75.5563 82.4854H72.0698V92.682H75.5563V82.4854Z" fill="#E0DDBC"/>
<path d="M73.8252 80.8208H85.6621C89.3802 80.8208 92.379 83.8662 92.379 87.6144V87.7501C92.379 91.5106 89.368 94.5437 85.6621 94.5437H73.8252V80.8208Z" fill="#0593A1"/>
<path d="M76.2755 80.7717L86.7227 80.8087C87.125 80.8087 87.4541 80.4758 87.4541 80.0689V80.0196C87.4541 79.6127 87.125 79.2798 86.7227 79.2798H76.2999L76.2755 80.7717Z" fill="#04707A"/>
<path d="M70.3022 50.0585C70.3144 50.0831 70.3266 50.1078 70.3388 50.1201V50.0215C70.3266 50.0338 70.3144 50.0461 70.3022 50.0585Z" fill="#3C3C3B"/>
<path d="M59.6478 84.1621C59.6478 84.4704 59.0139 84.7293 58.2215 84.7293C57.4291 84.7293 56.7952 84.4704 56.7952 84.1621C56.7952 83.8539 57.4291 83.595 58.2215 83.595C59.0139 83.595 59.6478 83.8539 59.6478 84.1621Z" fill="#3C3C3B"/>
<path d="M61.6592 77.9602H54.7716V83.3359H61.6592V77.9602Z" fill="#3C3C3B"/>
<path d="M65.4626 68.4419C65.4626 63.9292 61.7567 60.3289 57.3804 60.8468C54.2108 61.229 51.5899 63.8429 51.0779 67.1596C50.6756 69.7858 51.5411 72.2147 53.1259 73.8669C54.1499 74.9273 54.7838 76.3452 54.7838 77.8494V77.948H61.6714V77.8864C61.6714 76.3698 62.2809 74.9519 63.3049 73.8916C64.6337 72.5106 65.4626 70.5749 65.4626 68.4419Z" fill="#FDD303"/>
<path d="M59.6478 84.1868H56.7952L54.7716 83.3237H61.6592L59.6478 84.1868Z" fill="#9D9D9C"/>
<path d="M55.7956 67.7268C56.1735 67.7268 56.3563 68.0597 56.527 68.3433C56.6977 68.6392 56.8074 68.8242 57.0146 68.8242C57.2219 68.8242 57.3438 68.6392 57.5022 68.3433C57.6607 68.0597 57.8436 67.7268 58.2337 67.7268C58.6238 67.7268 58.7944 68.0597 58.9651 68.3433C59.1358 68.6392 59.2455 68.8242 59.4527 68.8242C59.6599 68.8242 59.7818 68.6392 59.9403 68.3433C60.0988 68.0597 60.2817 67.7268 60.6718 67.7268C61.0497 67.7268 61.2325 68.0597 61.391 68.3433C61.5617 68.6392 61.6714 68.8242 61.8786 68.8242C61.9517 68.8242 62.0127 68.8858 62.0127 68.9598C62.0127 69.0338 61.9517 69.0954 61.8786 69.0954C61.5007 69.0954 61.3178 68.7625 61.1594 68.4789C61.0009 68.183 60.879 67.9981 60.6718 67.9981C60.4645 67.9981 60.3426 68.183 60.1841 68.4789C60.0257 68.7625 59.8428 69.0954 59.4649 69.0954C59.087 69.0954 58.9041 68.7625 58.7457 68.4789C58.575 68.183 58.4653 67.9981 58.258 67.9981C58.0508 67.9981 57.9289 68.183 57.7704 68.4789C57.6119 68.7625 57.4291 69.0954 57.0512 69.0954C56.6733 69.0954 56.4904 68.7625 56.3198 68.4789C56.1491 68.183 56.0394 67.9981 55.8321 67.9981C55.6249 67.9981 55.503 68.183 55.3445 68.4789C55.1861 68.7625 55.0032 69.0954 54.6131 69.0954C54.54 69.0954 54.479 69.0338 54.479 68.9598C54.479 68.8858 54.54 68.8242 54.6131 68.8242C54.8203 68.8242 54.9422 68.6392 55.1007 68.3433C55.2226 68.0474 55.4055 67.7268 55.7956 67.7268Z" fill="white"/>
<path d="M58.4775 73.2874H57.9655C57.5022 73.2874 57.1365 73.5956 57.1365 73.9655V77.9603H59.3064V73.9655C59.3064 73.5956 58.9285 73.2874 58.4775 73.2874Z" fill="#F6F6F6"/>
<path d="M57.551 73.9655C57.4901 73.9655 57.4413 73.9408 57.4048 73.8792L54.284 69.0459C54.2353 68.9596 54.2474 68.8487 54.3328 68.7993C54.4181 68.75 54.5278 68.7747 54.5766 68.8487L57.6851 73.6819C57.7339 73.7682 57.7217 73.8792 57.6364 73.9285C57.612 73.9531 57.5754 73.9655 57.551 73.9655Z" fill="#3C3C3B"/>
<path d="M58.892 73.9656C58.8554 73.9656 58.8189 73.9533 58.7945 73.941C58.7091 73.8917 58.6848 73.7807 58.7457 73.6944L61.8543 68.8611C61.903 68.7748 62.0249 68.7502 62.0981 68.8118C62.1834 68.8612 62.2078 68.9721 62.1468 69.0584L59.0383 73.8916C59.0017 73.9286 58.953 73.9656 58.892 73.9656Z" fill="#3C3C3B"/>
<path fill-rule="evenodd" clip-rule="evenodd" d="M62.8295 82.4978V82.4608C62.8295 81.4497 62.0249 80.636 61.0253 80.636H54.735C53.7354 80.636 52.9308 81.4497 52.9308 82.4608V82.4978C52.9308 83.5088 53.7354 84.3226 54.735 84.3226H61.0253C62.0249 84.3349 62.8295 83.5088 62.8295 82.4978Z" fill="#C1BEA2"/>
<path fill-rule="evenodd" clip-rule="evenodd" d="M62.8295 86.1965V86.1595C62.8295 85.1485 62.0249 84.3347 61.0253 84.3347H54.284C53.2844 84.3347 52.4798 85.1485 52.4798 86.1595V86.1965C52.4798 87.2075 53.2844 88.0213 54.284 88.0213H61.0253C62.0249 88.0213 62.8295 87.2075 62.8295 86.1965Z" fill="#C1BEA2"/>
<path fill-rule="evenodd" clip-rule="evenodd" d="M62.8295 89.8955V89.8585C62.8295 88.8474 62.0249 88.0337 61.0253 88.0337H55.3811C54.3815 88.0337 53.577 88.8474 53.577 89.8585V89.8955C53.577 90.9065 54.3815 91.7203 55.3811 91.7203H61.0253C62.0249 91.7203 62.8295 90.9065 62.8295 89.8955Z" fill="#C1BEA2"/>
<path fill-rule="evenodd" clip-rule="evenodd" d="M62.8295 93.3479V93.3109C62.8295 92.4108 62.1102 91.6833 61.2203 91.6833H56.1979C55.308 91.6833 54.5887 92.4108 54.5887 93.3109V93.3479C54.5887 94.2479 55.308 94.9754 56.1979 94.9754H61.2203C62.1102 94.9754 62.8295 94.2479 62.8295 93.3479Z" fill="#C1BEA2"/>
<path fill-rule="evenodd" clip-rule="evenodd" d="M73.3864 89.6243V86.024C73.3864 83.0526 71.0093 80.636 68.0592 80.636H63.7072V95.0124H68.0592C71.0093 95 73.3864 92.5958 73.3864 89.6243Z" fill="#E0DDBC"/>
<path fill-rule="evenodd" clip-rule="evenodd" d="M64.3776 94.9999H61.135C60.2451 94.9999 59.5258 94.2725 59.5258 93.3724V93.3354C59.5258 92.4353 60.2451 91.7079 61.135 91.7079H60.5498C59.5502 91.7079 58.7456 90.8941 58.7456 89.8831V89.8461C58.7456 88.8351 59.5502 88.0213 60.5498 88.0213H60.0013C59.0017 88.0213 58.1971 87.2076 58.1971 86.1965V86.1595C58.1971 85.1485 59.0017 84.3348 60.0013 84.3348C59.0017 84.3348 58.1971 83.521 58.1971 82.51V82.473C58.1971 81.4619 59.0017 80.6482 60.0013 80.6482H64.3776V94.9999Z" fill="#E0DDBC"/>
<path d="M13.007 16.2289L5.70758 52.623L7.78629 53.0495L15.0857 16.6554L13.007 16.2289Z" fill="#C6C6C6"/>
<path d="M13.7264 12.6255L12.2513 15.5969L12.483 18.778L14.5797 19.2095L16.0182 16.3737L15.8109 13.0447L13.7264 12.6255Z" fill="#DADADA"/>
<path d="M16.0182 16.3737C14.5431 17.0518 13.2753 16.8915 12.2513 15.5969L12.483 18.778C13.0071 19.4931 13.7264 19.678 14.5797 19.2095L16.0182 16.3737Z" fill="#C6C6C6"/>
<path d="M8.5699 58.2701L3.02326 57.1357L2.8404 58.0481C2.54783 59.5154 8.09447 60.662 8.38704 59.1825L8.5699 58.2701Z" fill="#B6312F"/>
<path d="M12.0564 38.3328L7.50934 37.3958L6.65601 39.0726L12.2027 40.2069L12.0564 38.3328Z" fill="#B6312F"/>
<path d="M12.3611 38.6904L7.09482 37.6054C6.81444 37.5438 6.63159 37.2725 6.68035 36.9766V36.9643C6.7413 36.6807 7.00949 36.4957 7.30206 36.5451L12.5683 37.6301C12.8487 37.6917 13.0316 37.963 12.9828 38.2589V38.2712C12.9218 38.5548 12.6415 38.7397 12.3611 38.6904Z" fill="#CF4941"/>
<path d="M8.56985 58.27C6.7291 57.9001 4.87616 57.5179 3.0354 57.1357C3.77902 51.0325 4.98587 44.991 6.65596 39.0728C8.5089 39.455 10.3497 39.8372 12.2026 40.2071C11.459 46.3226 10.2521 52.3641 8.56985 58.27Z" fill="#DF4937"/>
<path d="M6.6316 56.4575C6.57065 56.7534 6.26589 56.9384 5.97332 56.889C5.66855 56.8274 5.47351 56.5315 5.53446 56.2356C6.48531 51.1681 7.49712 46.1006 8.58207 41.0578C8.64302 40.7618 8.94778 40.5769 9.24035 40.6385C9.54511 40.7002 9.74016 40.9961 9.69139 41.292C8.72835 46.3349 7.70436 51.4147 6.6316 56.4575Z" fill="#B6312F"/>
<path d="M8.67954 56.8768C8.60639 57.1727 8.36259 57.37 8.15535 57.333C7.94811 57.2836 7.82621 57.0124 7.89935 56.7165C9.13058 51.7106 10.1424 46.6308 10.947 41.5387C10.9957 41.2428 11.203 41.0332 11.4224 41.0701C11.6418 41.1195 11.7759 41.3907 11.7393 41.699C11.0201 46.8158 9.9961 51.8833 8.67954 56.8768Z" fill="#B6312F"/>
<path d="M4.32759 55.9768C4.27883 56.2728 4.07159 56.4824 3.85217 56.4454C3.64493 56.396 3.49864 56.1248 3.53522 55.8166C4.25445 50.6997 5.26626 45.6323 6.57063 40.6264C6.64377 40.3305 6.88758 40.1332 7.09482 40.1702C7.31425 40.2195 7.42396 40.4908 7.35082 40.7867C6.15616 45.8172 5.14435 50.8847 4.32759 55.9768Z" fill="#B6312F"/>
<path fill-rule="evenodd" clip-rule="evenodd" d="M16.1402 62.5976C15.8476 61.7962 15.4819 60.7112 15.4819 60.6989C17.2373 57.4808 15.8963 52.9065 15.6769 52.3764L14.9943 50.6995C14.9943 50.6995 14.6285 49.5282 14.5432 48.1473C14.4579 46.5691 14.3238 45.0032 14.3116 43.425C14.2994 42.4387 13.5436 41.6249 12.5684 41.6002H12.5318C11.9588 41.5879 11.4346 41.8715 11.1055 42.3277C10.8861 42.6359 10.752 43.0305 10.752 43.462C10.752 44.0415 10.7642 44.621 10.7886 45.2128C10.8373 46.3718 10.9105 47.5308 11.0202 48.6775C11.0567 49.1213 11.1055 49.5652 11.1665 49.9967C11.1786 50.0707 11.1786 50.1447 11.1908 50.2063V50.2187C11.1908 50.2433 11.1908 50.268 11.1908 50.2803C11.203 50.6255 11.0689 50.9461 10.8007 51.1557C9.19161 52.4503 8.10666 54.5464 8.00914 56.9383C8.00914 57.0986 7.99695 57.2712 7.99695 57.4438C8.02133 59.7865 8.98437 61.8579 10.4716 63.2265C10.947 63.658 11.4712 64.0279 12.0442 64.2991C12.2514 64.4101 12.4586 64.4964 12.6781 64.5704C12.7268 64.595 12.8365 68.8858 12.8853 68.9104L17.7859 66.7897C17.2739 65.6184 16.5912 63.8306 16.1402 62.5976Z" fill="#E0DDBC"/>
<path d="M17.5542 62.0798L25.539 84.4458C26.7946 87.9844 24.9782 91.8683 21.4917 93.1506L21.3698 93.1999C17.8712 94.4698 14.0312 92.6327 12.7634 89.1064L5.02246 66.8761L17.5542 62.0798Z" fill="#0593A1"/>
<path fill-rule="evenodd" clip-rule="evenodd" d="M2.73065 48.0364C3.05979 48.2707 4.13255 48.8378 4.13255 48.8378C5.15654 49.4173 6.39997 49.1461 6.91196 48.2213L6.93634 48.1843C7.44834 47.2596 7.03387 46.039 6.00987 45.4595L4.60797 44.6581C1.71884 43.2278 0.085324 46.6431 2.73065 48.0364Z" fill="#E0DDBC"/>
<path fill-rule="evenodd" clip-rule="evenodd" d="M1.30437 51.6982L3.6815 53.0545C4.7055 53.634 5.94892 53.3504 6.47311 52.4257L6.49749 52.3887C7.02168 51.4516 6.6072 50.231 5.58321 49.6392L3.20608 48.2829C1.10932 47.1979 -0.841146 50.083 1.30437 51.6982Z" fill="#E0DDBC"/>
<path fill-rule="evenodd" clip-rule="evenodd" d="M0.841123 55.4094L2.75502 56.4945C3.57178 56.963 4.62016 56.6671 5.08339 55.841L5.09558 55.8163C5.55882 54.9902 5.26625 53.9299 4.44949 53.4614L2.53559 52.3764C0.670457 51.2544 -1.09715 54.0532 0.841123 55.4094Z" fill="#E0DDBC"/>
<path fill-rule="evenodd" clip-rule="evenodd" d="M3.93752 44.8306C4.32761 44.9045 5.53446 44.9908 5.53446 44.9908C6.70475 45.1141 7.72874 44.3497 7.83846 43.3017V43.2647C7.94817 42.2167 7.08265 41.2673 5.91237 41.144L4.31542 40.9837C1.09715 40.8357 0.950864 44.6333 3.93752 44.8306Z" fill="#E0DDBC"/>
</g>
<defs>
<clipPath id="clip0">
<rect width="95" height="95" fill="white"/>
</clipPath>
</defs>
</svg>
