<svg width="570" height="431" viewBox="0 0 570 431" fill="none" xmlns="http://www.w3.org/2000/svg">
<g clip-path="url(#clip0)">
<path opacity="0.4" d="M567.549 226.333L565.01 226.84L567.776 223.483C569.632 221.367 567.304 219.793 565.745 221.332L562.664 223.64L564.047 220.125C565.098 218.272 562.506 216.943 560.983 218.586L559.372 219.95V124.717L488.671 39.2756L476.923 163.345C475.417 163.66 473.894 164.045 472.336 164.534C470.532 163.835 468.606 163.328 466.645 162.978C457.366 162.646 451.535 165.199 447.613 169.641C446.423 170.847 445.512 172.194 444.829 173.61C444.147 174.834 443.534 176.146 442.973 177.545C442.133 182.056 441.905 185.781 444.024 188.701C444.357 190.747 444.794 192.583 445.267 194.07C445.757 195.556 446.3 196.693 446.86 197.34C446.895 197.392 446.948 197.445 446.983 197.48L443.761 202.061C443.411 201.974 443.078 201.886 442.728 201.799C440.295 200.995 437.808 200.208 435.217 199.421C423.364 198.232 416.798 206.678 416.395 217.695C418.041 241.966 423.521 266.098 426.515 273.268C424.694 277.517 423.416 281.959 422.593 286.541C422.225 288.622 421.91 290.685 421.753 292.801C421.648 294.13 421.7 295.407 421.875 296.631C421.858 297.313 421.91 297.785 422.103 297.855C420.842 310.882 418.268 325.344 418.566 337.393L481.948 372.891C482.018 372.629 482.123 372.262 482.263 371.807C483.716 366.666 488.339 349.913 489.88 337.97C489.915 337.742 489.932 337.497 489.95 337.253C491.28 325.152 488.129 300.862 487.008 292.888C486.781 291.245 486.623 290.283 486.623 290.283C489.757 281.26 490.037 269.071 490.597 256.551C502.941 261.797 520.608 264.14 525.317 264.612C526.105 264.315 526.841 264.018 527.559 263.738L559.372 290.598V244.17C559.775 243.89 560.143 243.61 560.44 243.348C564.029 239.693 565.955 237.245 566.341 232.611L569.37 228.676C570.858 227.47 569.475 225.266 567.549 226.333ZM472.861 206.416L472.546 209.791L472.598 206.451C472.668 206.451 472.756 206.416 472.861 206.416Z" fill="#223457"/>
<path opacity="0.4" d="M43.0192 308.679C46.0483 311.652 48.9022 314.852 51.1958 317.877L120.899 277.622C120.934 276.888 121.039 275.943 120.863 275.244C118.762 267.497 111.216 263.843 104.125 257.197C101.656 254.889 111.041 240.323 108.135 236.073C111.059 225.126 209.143 166.248 213.888 154.759C213.888 154.654 213.905 154.549 213.905 154.444C218.16 154.077 222.52 152.591 225.374 150.3C227.562 148.534 228.473 146.628 228.158 144.931L226.914 138.112C226.722 137.062 226.039 136.136 224.953 135.331L223.745 128.844C224.481 127.724 224.778 126.553 224.568 125.416C224.498 125.049 224.131 123.86 222.765 123.597L221.067 114.417C221.819 113.228 222.135 112.021 221.924 110.867L221.172 106.758C220.856 104.991 219.368 103.383 216.899 102.228C217.057 102.001 217.145 101.704 217.075 101.389L214.991 90.3023L215.096 88.9908C214.903 88.5012 214.676 88.0465 214.466 87.5919C214.133 86.0006 213.398 84.7415 212.365 83.9371C212.084 83.5874 211.804 83.2376 211.507 82.9054C211.209 82.5556 210.911 82.2059 210.596 81.9086C210.491 81.8037 210.351 81.7338 210.246 81.6288C210.141 81.5239 210.053 81.419 209.948 81.3141C209.493 80.9993 209.09 80.6321 208.653 80.3523L202.997 80.9294L198.2 82.5556L194.313 85.2311L189.673 88.5537L188.57 102.456L193.508 107.474C192.947 108.576 192.79 109.695 193.035 110.745L194.033 114.994C194.208 115.711 194.611 116.375 195.136 117.005L137.567 176.88C127.569 182.388 96.7538 206.94 88.7348 212.956C86.2485 210.612 79.5777 206.013 80.4881 205.856C82.5367 178.996 63.0843 180.273 57.0613 182.284C57.0088 177.475 56.9913 178.489 57.0613 173.19C46.521 169.203 36.4534 172.788 36.4534 172.788C18.8921 175.289 9.61238 186.288 10.1902 199.718C2.1361 205.314 -2.08352 212.344 0.980521 221.612C7.02107 239.815 23.3218 234.43 36.7511 252.336C31.7085 258.422 15.3378 275.436 11.8185 282.029C11.8185 282.081 11.7835 282.116 11.766 282.151C6.19815 301.212 13.4293 315.988 20.678 332.986C20.818 333.545 21.2557 334.402 21.4483 334.997L44.8577 321.497L43.0192 308.679ZM211.174 98.9059L212.242 95.2162L213.328 94.4642L214.588 101.039C213.59 100.147 212.435 99.413 211.174 98.9059Z" fill="#223457"/>
<path opacity="0.4" d="M418.566 337.393C416.29 339.299 371.52 355.911 355.184 371.037C355.272 371.125 351.595 375.357 351.682 375.444C346.622 377.42 344.941 383.051 343.716 385.167C345.624 386.916 345.975 388.961 350.159 389.486L369.524 388.314L371.537 387.72C377.525 388.472 384.599 388.612 390.692 388.105C388.644 390.186 386.63 392.319 384.687 394.47C384.722 394.522 384.774 394.575 384.827 394.627C379.504 396.551 379.329 402.444 378.121 404.612C380.134 406.431 380.012 407.882 384.739 408.25L403.088 405.032L405.137 404.455C417.06 406.134 432.241 406.623 437.143 402.969C440.277 400.625 436.635 398.807 429.842 397.163C426.69 396.568 454.792 395.204 449.959 394.767L464.877 364.445C464.877 364.445 465.052 364.357 465.332 364.235L418.566 337.393Z" fill="#223457"/>
<path opacity="0.4" d="M209.073 376.178C212.732 378.084 231.992 380.375 241.429 380.323V360.982C240.676 360.737 239.836 360.528 238.873 360.405C238.803 360.283 233.253 358.622 233.113 358.517C220.314 350.455 208.565 350.7 199.653 342.009C195.083 332.076 170.273 315.009 133.715 301.212C133.68 301.177 133.662 301.16 133.627 301.125L128.935 299.428C128.655 299.323 128.357 299.218 128.095 299.114C126.449 298.467 124.925 297.627 123.49 296.7C120.548 294.654 118.15 292.031 113.019 288.359C112.862 288.237 112.669 288.114 112.494 287.974L112.389 287.904C121.424 285.824 123.647 281.347 120.898 277.64L51.1958 317.895C57.3414 320.395 66.7612 320.972 70.1754 323.63C67.5666 328.649 67.5491 332.916 70.9983 336.903C74.6051 341.082 81.9413 344.894 93.8473 348.846L98.6097 350.7L92.0614 351.662C76.7062 342.376 61.0708 332.584 47.8866 328.527L44.9276 321.497L21.5183 334.997C34.2648 343.565 62.524 354.267 82.6067 357.065C86.5461 359.111 91.4661 360.72 97.139 361.944C97.7343 362.014 98.3296 362.084 98.9074 362.154C103.039 362.591 107.154 362.766 111.339 362.574L118.01 362.661C119.445 362.836 121.791 362.171 120.898 361.489L124.155 361.437C124.698 361.419 125.188 361.35 125.608 361.245L134.485 364.707L146.391 369.359C146.409 370.093 146.514 370.81 146.689 371.509C149.35 381.757 168.978 387.772 187.502 396.516C187.87 396.621 188.29 396.691 188.71 396.743C190.198 398.299 209.861 399.069 211.279 399.069C214.045 395.117 217.267 388.507 210.386 387.895C210.404 387.79 210.456 387.702 210.456 387.597C197.85 383.435 187.344 374.797 177.855 364.235C178.8 359.601 171.481 353.795 161.169 346.993L173.688 351.872C178.012 357.712 199.618 366.508 209.073 376.178Z" fill="#223457"/>
<path d="M220.611 104.502C231.327 100.55 241.359 92.8905 254.386 88.134L263.823 61.7812H272.893C277.445 78.0965 272.105 87.3996 269.636 99.2382C263.455 109.468 237.91 117.005 237.647 127.794L220.611 104.502Z" fill="#FF772C"/>
<path d="M262.79 63.7398L263.455 60.4872L260.094 55.0663L262.983 45.5534L266.537 43.6298L269.513 42.091L272.963 41.3215H276.902C277.322 41.6713 277.69 42.0735 278.04 42.5281C279.073 43.8746 279.791 45.6758 280.264 47.8442L279.406 51.0093L277.392 52.041L275.957 54.9438L274.836 57.9516C274.573 58.686 274.101 59.3156 273.488 59.8052L271.649 61.2042L269.881 64.5966L262.79 63.7398Z" fill="#FCAF75"/>
<path d="M191.774 78.3413C184.508 81.1042 179.063 85.6334 178.047 93.9746C176.209 109.048 187.52 106.635 189.41 126.623L204.24 115.816L203.435 85.9656L191.774 78.3413Z" fill="black"/>
<path d="M218.983 349.248C217.985 351.871 218.475 355.176 218.983 359.828C219.981 362.801 222.432 365.599 227.247 367.225C232.832 371.474 235.056 378.696 242.13 380.777C250.219 383.173 255.121 380.025 254.473 375.216C253.37 366.928 243.968 363.238 239.503 353.655L235.441 344.072H220.979L218.983 349.248Z" fill="#1D1D1B"/>
<path d="M208.46 231.876L218.335 284.459C215.394 296.385 220.244 326.358 216.567 350.875C217.267 361.437 239.801 361.874 240.134 353.743C239.188 328.491 241.674 306.545 243.88 286.208C250.481 266.186 248.73 222.031 235.949 185.029L209.966 198.441L208.46 231.876Z" fill="#373636"/>
<path d="M183.86 365.844C181.584 368.991 181.269 378.924 182.477 380.725C188.272 387.108 196.204 399.908 212.049 398.999C218.458 397.81 220.244 394.697 217.827 389.836C215.289 384.729 207.34 379.851 203.873 370.6L199.863 362.486L183.86 365.844Z" fill="#1D1D1B"/>
<path d="M238.873 194.035C236.965 212.851 231.502 228.064 215.849 234.237C215.026 264.437 217.407 295.441 209.073 306.545C204.328 330.8 201.877 354.232 205.431 372.873C201.614 379.116 187.187 378.382 182.897 371.212C182.425 370.425 182.074 369.533 181.882 368.589C180.569 336.256 175.684 311.04 186.679 293.36L179.571 235.951C175.736 215.631 179.098 205.156 189.656 195.346C190.916 194.175 192.3 193.003 193.77 191.814L237.612 190.048L238.873 194.035Z" fill="#373636"/>
<path d="M250.954 159.166C250.972 165.391 245.001 171.092 237.63 170.095V170.217C237.63 170.427 237.63 170.637 237.612 170.847C237.49 174.956 236.684 180.045 236.789 184.522C236.824 186.253 236.999 187.862 237.402 189.313C237.472 189.54 237.542 189.785 237.612 190.013C235.844 194.209 233.76 197.864 230.731 200.557C230.346 200.907 229.961 201.239 229.558 201.519C227.807 202.848 225.776 203.897 223.36 204.597C223.203 204.649 223.027 204.702 222.87 204.719C222.8 204.737 222.712 204.754 222.625 204.789C222.152 204.911 221.662 204.999 221.154 205.086C220.068 205.279 218.913 205.419 217.687 205.471C217.6 205.471 217.53 205.471 217.442 205.489C217.109 205.506 216.777 205.506 216.444 205.524C216.111 205.541 215.761 205.541 215.429 205.541C207.164 205.471 196.502 202.673 189.656 195.311C191.161 184.155 187.397 169.868 183.457 157.872C180.411 148.604 177.277 140.717 176.419 136.747C183.72 127.602 192.492 120.012 201.807 113.525C211.139 107.037 215.446 98.7659 226.091 102.753C236.737 106.74 237.998 127.917 241.902 136.275C245.824 144.652 250.919 150.457 250.954 159.166Z" fill="#FF772C"/>
<path opacity="0.25" d="M196.204 237.489C189.866 260.939 192.335 272.778 198.55 298.956C185.331 316.775 184.911 339.368 185.331 371.981L182.897 371.194C182.425 370.408 182.074 369.516 181.882 368.571C180.551 336.221 175.684 311.022 186.679 293.325L179.571 235.916C175.736 215.613 179.098 205.121 189.656 195.311C196.502 202.673 207.165 205.471 215.429 205.541C196.204 208.374 191.109 219.058 196.204 237.489Z" fill="black"/>
<path opacity="0.5" d="M237.402 189.331C237.472 189.558 237.542 189.803 237.612 190.03C235.599 194.699 233.393 198.127 230.731 200.575C230.346 200.925 229.961 201.257 229.558 201.537C227.72 202.971 225.689 203.967 223.36 204.614C223.203 204.667 223.027 204.719 222.87 204.737C222.31 204.877 221.749 204.999 221.154 205.104C220.033 205.296 218.895 205.419 217.687 205.489C217.6 205.489 217.53 205.489 217.442 205.506C217.109 205.524 216.777 205.524 216.444 205.541C216.111 205.559 215.761 205.559 215.429 205.559C207.164 205.489 196.502 202.691 189.656 195.329C191.161 184.172 187.397 169.885 183.458 157.889L193.122 155.424L203.593 172.159C211.734 185.868 232.867 183.158 233.76 169.151L237.63 170.218C237.63 170.427 237.63 170.637 237.612 170.847C237.542 176.985 236.807 180.989 236.789 184.522C236.807 186.201 236.947 187.739 237.402 189.331Z" fill="#D6330E"/>
<path d="M176.366 136.852C167.595 152.153 162.657 169.396 161.099 188.369C158.665 202.271 161.291 227.575 167.595 240.935C169.17 239.011 171.972 238.137 176.366 238.661C177.399 220.073 178.643 202.044 176.366 192.408L190.409 161.736C200.056 140.7 184.28 126.85 176.366 136.852Z" fill="#FF772C"/>
<path d="M193.438 253.105C192.667 253.543 191.547 253.613 190.461 252.703C188.115 250.255 185.664 248.332 182.495 249.416C181.934 250.43 181.882 251.811 182.232 253.42L182.319 253.77C183.142 257.215 185.506 261.692 187.905 266.168C188.185 266.938 187.992 267.497 187.572 267.812C187.029 268.284 186.101 268.319 185.401 267.864C185.524 269.123 183.895 269.596 182.81 268.459L181.181 266.675C181.006 268.127 179.273 267.725 178.73 266.675L175.649 262.863C173.547 260.852 171.814 258.404 170.343 255.659C170.151 255.256 169.941 254.872 169.731 254.452C168.295 249.94 167.542 245.411 167.594 240.882C168.663 237.122 172.024 236.58 176.366 238.609L181.567 241.302C186.416 243.68 188.868 247.072 194.068 251.287C194.506 251.916 194.138 252.686 193.438 253.105Z" fill="#FCAF75"/>
<path opacity="0.2" d="M187.555 267.847C187.012 268.319 186.084 268.354 185.383 267.899C185.506 269.158 183.878 269.63 182.792 268.494L181.164 266.71C180.989 268.162 179.255 267.759 178.713 266.71L175.631 262.898C173.53 260.887 171.797 258.439 170.326 255.693C172.847 256.725 175.438 256.008 178.1 254.627C180.358 259.82 184.403 266.885 187.555 267.847Z" fill="#AB2930"/>
<path opacity="0.2" d="M193.42 253.105C192.667 253.543 191.547 253.613 190.461 252.703C188.115 250.255 185.664 248.331 182.495 249.416C181.934 250.43 181.882 251.811 182.232 253.42L180.936 247.894C186.679 246.565 190.706 252.004 193.42 253.105Z" fill="#AB2930"/>
<path d="M198.55 101.721L196.204 117.652C199.776 121.447 217.337 137.36 220.611 125.661C220.611 118.177 218.248 110.99 218.703 104.449L198.55 101.721Z" fill="#FCAF75"/>
<path opacity="0.2" d="M207.742 99.2383C207.83 115.763 215.481 139.476 225.584 135.419C232.762 132.551 225.549 120.467 225.584 109.101L207.742 99.2383Z" fill="#AB2930"/>
<path d="M198.41 102.648C195.766 100.462 191.056 93.9747 191.879 86.4903C193.07 75.561 199.373 65.1562 209.721 65.8207C221.837 66.87 229.978 73.2002 230.696 84.2345C231.011 89.2182 229.926 92.4708 229.926 92.4708C229.278 92.4708 232.325 96.7026 233.323 98.9235C234.111 100.69 230.836 102.071 230.836 102.071C230.101 106.53 230.101 111.567 226.477 112.721C221.487 114.312 216.742 113.735 211.367 112.721C205.974 111.724 198.41 102.648 198.41 102.648Z" fill="#FCAF75"/>
<path d="M198.077 104.921C198.077 104.921 205.466 104.624 209.721 100.847C213.975 97.0523 215.306 96.4228 218.002 89.0083C220.629 81.7862 228.385 78.1664 228.543 76.3653C228.7 74.5467 225.286 70.9094 222.099 68.5661C216.917 64.754 208.005 64.754 208.005 64.754C198.165 64.7015 190.899 71.0668 188.062 80.2649C184.981 90.2149 188.132 99.3431 198.077 104.921Z" fill="#1D1D1B"/>
<path d="M202.997 96.248C200.021 96.6677 199.391 99.0459 199.968 101.721C200.791 105.219 203.663 106.845 205.484 106.618C208.145 106.286 208.495 103.75 208.723 101.442C206.674 100.2 206.201 95.8108 202.997 96.248Z" fill="#FCAF75"/>
<path d="M261.757 87.207V93.2225C261.757 94.7264 262.755 96.2478 264.751 97.4019C268.743 99.7102 275.239 99.7102 279.231 97.4019C281.227 96.2478 282.225 94.7439 282.225 93.2225V87.207H261.757Z" fill="black"/>
<path d="M272 93.1175C277.657 93.1175 282.242 90.4713 282.242 87.207C282.242 83.9426 277.657 81.2964 272 81.2964C266.343 81.2964 261.757 83.9426 261.757 87.207C261.757 90.4713 266.343 93.1175 272 93.1175Z" fill="#575756"/>
<path d="M262.895 64.0366V86.5248C262.895 87.8713 263.788 89.2178 265.574 90.2495C269.128 92.2955 274.906 92.2955 278.46 90.2495C280.246 89.2178 281.139 87.8713 281.139 86.5248V64.0366H262.895Z" fill="#FFF3CC"/>
<path d="M278.46 60.3296C282.014 62.3755 282.014 65.7155 278.46 67.7615C274.905 69.8075 269.127 69.8075 265.573 67.7615C262.019 65.7155 262.019 62.3755 265.573 60.3296C269.127 58.2661 274.888 58.2661 278.46 60.3296Z" fill="#575756"/>
<path d="M272 82.2057C269.426 82.2057 266.852 81.6811 264.891 80.6144C262.878 79.5128 261.757 78.0264 261.757 76.4001C261.757 75.4383 262.527 74.7563 262.878 74.7039C262.878 75.0011 262.878 76.0853 262.878 76.4001C262.878 77.5892 263.771 78.7258 265.416 79.6177C269.041 81.5937 274.941 81.5937 278.548 79.6177C280.194 78.7258 281.087 77.5892 281.087 76.4001C281.087 76.0853 281.087 74.8787 281.087 74.7039C282.085 75.0886 282.207 76.0853 282.207 76.4001C282.207 78.0264 281.104 79.5128 279.073 80.6144C277.147 81.6811 274.573 82.2057 272 82.2057Z" fill="black"/>
<path d="M261.757 61.4138V64.6314C261.757 66.1353 262.755 67.6566 264.751 68.8108C268.743 71.1191 275.239 71.1191 279.231 68.8108C281.227 67.6566 282.225 66.1528 282.225 64.6314V61.4138H261.757Z" fill="black"/>
<path d="M272 67.3243C277.657 67.3243 282.242 64.6781 282.242 61.4137C282.242 58.1494 277.657 55.5032 272 55.5032C266.343 55.5032 261.757 58.1494 261.757 61.4137C261.757 64.6781 266.343 67.3243 272 67.3243Z" fill="#575756"/>
<path d="M280.001 61.414C280.001 62.5856 279.231 63.7747 277.655 64.6665C274.538 66.4677 269.478 66.4677 266.344 64.6665C264.786 63.7572 263.998 62.5856 263.998 61.414C263.998 60.2424 264.769 59.0532 266.344 58.1614C269.461 56.3603 274.521 56.3603 277.655 58.1614C279.213 59.0707 280.001 60.2424 280.001 61.414Z" fill="#3C3C3B"/>
<path d="M280.001 61.4139C280.001 62.5855 279.231 63.7746 277.655 64.6665C274.538 66.4676 269.478 66.4676 266.344 64.6665C264.786 63.7571 263.998 62.5855 263.998 61.4139C263.998 57.0072 267.57 53.4224 271.982 53.4224C276.394 53.4224 280.001 57.0072 280.001 61.4139Z" fill="black"/>
<path d="M272 92.803C271.685 92.803 271.439 92.5581 271.439 92.2434V69.3005C271.439 68.9858 271.685 68.741 272 68.741C272.315 68.741 272.56 68.9858 272.56 69.3005V92.2434C272.578 92.5581 272.315 92.803 272 92.803Z" fill="black"/>
<path d="M279.669 90.7045C279.353 90.7045 279.108 90.4597 279.108 90.1449V67.1846C279.108 66.8698 279.353 66.625 279.669 66.625C279.984 66.625 280.229 66.8698 280.229 67.1846V90.1274C280.229 90.4597 279.984 90.7045 279.669 90.7045Z" fill="black"/>
<path d="M264.348 90.7045C264.033 90.7045 263.788 90.4597 263.788 90.1449V67.1846C263.788 66.8698 264.033 66.625 264.348 66.625C264.664 66.625 264.909 66.8698 264.909 67.1846V90.1274C264.909 90.4597 264.664 90.7045 264.348 90.7045Z" fill="black"/>
<path d="M264.909 66.048C264.418 66.048 264.033 65.6633 264.033 65.1737V55.1012C264.033 52.2333 265.977 48.8758 268.463 47.4419L274.696 43.8571C276.044 43.0877 277.357 42.9828 278.39 43.5773C279.423 44.1719 280.001 45.361 280.001 46.9173V56.9898C280.001 57.4794 279.616 57.8641 279.126 57.8641C278.636 57.8641 278.25 57.4794 278.25 56.9898V46.9173C278.25 46.0255 277.988 45.361 277.515 45.0987C277.06 44.8364 276.342 44.9238 275.571 45.3785L269.338 48.9633C267.412 50.0824 265.784 52.8978 265.784 55.1187V65.1911C265.784 65.6633 265.381 66.048 264.909 66.048Z" fill="black"/>
<path d="M264.909 66.0481C264.418 66.0481 264.033 65.6634 264.033 65.1737V55.1013C264.033 52.2334 265.977 48.8759 268.463 47.442C268.883 47.1972 269.408 47.3371 269.653 47.7568C269.899 48.1764 269.759 48.7185 269.338 48.9459C267.412 50.065 265.784 52.8804 265.784 55.1013V65.1737C265.784 65.6634 265.381 66.0481 264.909 66.0481Z" fill="black"/>
<path d="M277.637 42.0735C278.443 43.0702 279.091 44.067 279.511 45.0987C280.054 46.3578 279.686 47.8267 278.653 48.736L278.163 49.1732L277.637 50.2748L275.239 51.1492H273.138L271.667 52.0235L269.058 52.9678L266.537 46.9523L277.637 42.0735Z" fill="#FCAF75"/>
<path opacity="0.4" d="M456.91 431L545.19 410.4V375.444L534.51 359.374L487.603 350.543L481.685 373.783L456.91 431Z" fill="#223457"/>
<path d="M488.671 172.876L476.976 179.608L472.266 182.336L470.497 181.304L404.156 143.061L420.58 133.6L470.497 162.384L476.976 166.126L488.671 172.876Z" fill="#C6C6C6"/>
<path d="M488.672 172.858L420.562 133.583V0L488.672 39.2756V172.858Z" fill="#9D9D9C"/>
<path d="M404.156 143.06L420.562 133.583V0L404.156 9.46042V143.06Z" fill="#706F6F"/>
<path d="M447.718 139.913C447.246 139.913 446.755 139.79 446.318 139.563L427.531 129.019C425.727 128.004 424.607 126.098 424.589 124.052L424.449 101.232L426.077 101.214L426.217 124.035C426.235 125.504 427.04 126.885 428.319 127.602L447.088 138.147C447.508 138.357 448.016 138.339 448.436 138.094C448.856 137.832 449.119 137.395 449.119 136.905V105.131H450.747V136.888C450.747 137.954 450.205 138.916 449.294 139.476C448.804 139.773 448.261 139.913 447.718 139.913Z" fill="white"/>
<path d="M442.763 132.795C442.308 132.795 441.853 132.673 441.415 132.446L428.704 124.839C426.69 123.632 425.43 121.429 425.412 119.086L425.237 100.007L426.865 99.99L427.04 119.068C427.058 120.852 428.021 122.531 429.544 123.44L442.238 131.029C442.571 131.222 442.991 131.204 443.359 130.994C443.709 130.784 443.919 130.417 443.901 129.998L443.359 102.088L444.987 102.053L445.53 129.963C445.547 130.959 445.057 131.869 444.199 132.376C443.744 132.656 443.254 132.795 442.763 132.795Z" fill="white"/>
<path d="M437.108 125.311C436.688 125.311 436.268 125.206 435.882 124.979L429.964 121.377C428.861 120.712 428.196 119.54 428.178 118.246L427.986 101.966L429.614 101.949L429.807 118.229C429.824 118.946 430.192 119.61 430.805 119.995L436.705 123.58C437.055 123.79 437.388 123.65 437.511 123.562C437.633 123.493 437.931 123.283 437.931 122.845V99.0283H439.559V122.845C439.559 123.737 439.104 124.524 438.334 124.961C437.966 125.206 437.546 125.311 437.108 125.311Z" fill="#E30613"/>
<path d="M427.286 110.098C425.482 110.098 424.029 108.646 424.029 106.845V16.4376C424.029 14.6365 425.482 13.1851 427.286 13.1851C429.089 13.1851 430.542 14.6365 430.542 16.4376V106.845C430.525 108.646 429.071 110.098 427.286 110.098Z" fill="#DADADA"/>
<path d="M470.112 105.813C469.359 105.813 468.589 105.621 467.906 105.219L457.418 99.1681C454.284 97.367 451.728 92.9428 451.728 89.3405V65.3135H453.356V89.323C453.356 92.3657 455.58 96.2303 458.224 97.7517L468.711 103.802C469.587 104.309 470.62 104.309 471.495 103.802C472.371 103.295 472.896 102.403 472.896 101.389L472.914 86.2803H474.542L474.524 101.389C474.524 102.98 473.701 104.414 472.318 105.201C471.635 105.603 470.883 105.813 470.112 105.813Z" fill="#E30613"/>
<path d="M466.103 100.567C465.595 100.567 465.087 100.427 464.632 100.165L457.418 95.9158C455.807 94.989 454.547 92.8206 454.547 90.9495V66.9399H456.175V90.9495C456.175 92.2085 457.138 93.8698 458.224 94.4993L465.437 98.7486C465.84 98.976 466.348 98.976 466.75 98.7312C467.171 98.4863 467.416 98.0492 467.398 97.577L467.188 83.9547L468.816 83.9372L469.027 97.5595C469.044 98.6262 468.501 99.588 467.573 100.148C467.118 100.427 466.61 100.567 466.103 100.567Z" fill="white"/>
<path d="M440.557 54.8389H438.929V98.6786H440.557V54.8389Z" fill="#E30613"/>
<path d="M446.685 61.4666H445.057V102.771H446.685V61.4666Z" fill="white"/>
<path d="M462.881 147.922C462.268 147.922 461.638 147.747 461.078 147.415L456.63 144.739C455.545 144.092 454.862 142.886 454.862 141.627V111.217H456.49V141.627C456.49 142.326 456.858 142.991 457.471 143.34L461.918 146.016C462.496 146.365 463.196 146.383 463.791 146.051C464.387 145.718 464.737 145.124 464.754 144.442L464.877 134.719L466.505 134.737L466.383 144.459C466.365 145.718 465.7 146.855 464.597 147.467C464.037 147.782 463.459 147.922 462.881 147.922Z" fill="#E30613"/>
<path d="M453.916 57.5491L436.127 47.2144L436.197 73.0076L453.986 83.3423L453.916 57.5491Z" fill="#565656"/>
<path d="M457.348 55.5558L439.559 45.2385L436.127 47.2145L453.916 57.5493L457.348 55.5558Z" fill="#616060"/>
<path d="M453.917 57.5492L453.987 83.3424L457.436 81.3663L457.348 55.5557L453.917 57.5492Z" fill="#3C3C3C"/>
<path d="M426.778 39.0481C426.76 39.0656 438.211 32.4031 438.211 32.4031C440.487 31.0741 443.656 31.2664 447.141 33.2774C454.074 37.2819 459.677 46.9697 459.659 54.9262C459.642 58.8783 458.259 61.6587 456 62.9702L444.549 69.6152C444.689 69.5278 444.829 69.4229 444.952 69.3354C442.641 70.9442 439.314 70.8743 435.602 68.7409C428.669 64.7364 423.066 55.0661 423.101 47.0921C423.101 43.14 424.519 40.3596 426.778 39.0481Z" fill="#3C3C3B"/>
<path d="M435.69 39.9399C428.756 35.9354 423.118 39.153 423.101 47.1096C423.083 55.0661 428.669 64.7539 435.602 68.7584C442.536 72.7629 448.173 69.5453 448.191 61.5887C448.226 53.6147 442.623 43.9444 435.69 39.9399Z" fill="#706F6F"/>
<path d="M425.272 47.1095C425.255 51.4638 427.198 56.5175 430.139 60.6444L442.903 68.0064C444.882 67.2195 446.038 64.9287 446.038 61.5712C446.055 58.0039 444.742 53.9469 442.641 50.3446C442.641 50.3271 427.198 41.4263 427.198 41.4263C425.955 42.5454 425.272 44.504 425.272 47.1095Z" fill="white"/>
<path d="M428.476 49.75L441.363 57.182C442.028 57.5667 442.553 57.2519 442.553 56.5V55.1185C442.553 54.3666 442.01 53.4398 441.363 53.0551L428.476 45.6231C427.811 45.2384 427.286 45.5532 427.286 46.3051V47.6866C427.286 48.4385 427.811 49.3653 428.476 49.75Z" fill="#3C3C3B"/>
<path d="M429.807 53.4575L439.297 58.9483V57.6543L429.807 52.1809V53.4575Z" fill="#3C3C3B"/>
<path d="M431.102 56.4126L438.001 60.3997V59.4554L431.102 55.4858V56.4126Z" fill="#3C3C3B"/>
<path d="M438.754 100.532L434.254 97.9092L434.307 118.474L438.824 121.097L438.754 100.532Z" fill="#A8A8A8"/>
<path d="M437.476 106.198L435.532 105.062L435.585 112.196L437.528 113.333L437.476 106.198Z" fill="#3C3C3B"/>
<path d="M442.692 98.2589L438.175 95.6533L434.253 97.9091L438.753 100.532L442.692 98.2589Z" fill="#BCBCBC"/>
<path d="M438.754 100.532L438.824 121.097L442.746 118.823L442.693 98.2588L438.754 100.532Z" fill="#757575"/>
<path d="M435.62 101.074C435.62 101.651 436.022 102.351 436.53 102.648C437.038 102.945 437.441 102.7 437.441 102.123C437.441 101.546 437.038 100.847 436.53 100.549C436.04 100.27 435.62 100.497 435.62 101.074Z" fill="white"/>
<path d="M435.62 116.952C435.62 117.529 436.022 118.229 436.53 118.526C437.038 118.823 437.441 118.579 437.441 118.002C437.441 117.425 437.038 116.725 436.53 116.428C436.04 116.13 435.62 116.375 435.62 116.952Z" fill="white"/>
<path d="M435.97 107.772C436.005 107.754 436.04 107.737 436.075 107.719L437.511 108.559C437.476 108.576 437.441 108.594 437.406 108.611C437.371 108.629 437.353 108.646 437.318 108.664L435.882 107.824C435.917 107.807 435.952 107.789 435.97 107.772Z" fill="#E05A00"/>
<path d="M434.342 106.827C434.412 106.74 434.482 106.67 434.552 106.635C434.657 106.565 434.762 106.565 434.849 106.6L436.285 107.439C436.215 107.387 436.11 107.405 435.987 107.474C435.917 107.509 435.83 107.579 435.777 107.667C435.585 107.929 435.532 108.244 435.655 108.384L436.635 109.555C436.425 110.045 436.425 110.535 436.635 110.797C436.67 110.849 436.723 110.884 436.758 110.902L435.322 110.063C435.27 110.028 435.235 109.993 435.2 109.958C434.989 109.695 434.989 109.206 435.2 108.716L434.219 107.544C434.096 107.405 434.167 107.09 434.342 106.827Z" fill="#E05A00"/>
<path d="M436.005 107.457C435.935 107.492 435.847 107.562 435.795 107.649C435.602 107.912 435.55 108.226 435.672 108.366L436.653 109.538C436.443 110.028 436.443 110.517 436.653 110.779C436.845 111.007 437.161 111.007 437.493 110.814C437.528 110.797 437.528 108.524 437.528 108.524C437.493 108.541 437.458 108.559 437.423 108.576C437.388 108.594 437.371 108.611 437.336 108.629L436.355 107.439C436.268 107.387 436.127 107.387 436.005 107.457Z" fill="#FF8521"/>
<path d="M444.111 103.488L439.612 100.882L439.664 121.447L444.182 124.052L444.111 103.488Z" fill="#A8A8A8"/>
<path d="M442.833 109.153L440.89 108.017L440.942 115.152L442.886 116.288L442.833 109.153Z" fill="#3C3C3B"/>
<path d="M448.051 101.214L443.534 98.6086L439.612 100.882L444.111 103.487L448.051 101.214Z" fill="#BCBCBC"/>
<path d="M444.111 103.487L444.182 124.052L448.103 121.796L448.051 101.214L444.111 103.487Z" fill="#757575"/>
<path d="M440.977 104.03C440.977 104.607 441.38 105.306 441.888 105.603C442.396 105.883 442.798 105.656 442.798 105.079C442.798 104.502 442.396 103.802 441.888 103.505C441.398 103.225 440.977 103.453 440.977 104.03Z" fill="white"/>
<path d="M440.977 119.908C440.977 120.485 441.38 121.184 441.888 121.482C442.396 121.779 442.798 121.534 442.798 120.957C442.798 120.38 442.396 119.68 441.888 119.383C441.38 119.086 440.977 119.331 440.977 119.908Z" fill="white"/>
<path d="M439.419 115.046L440.592 112.79C440.435 112.493 440.47 111.986 440.732 111.479C440.925 111.112 441.188 110.849 441.45 110.675L442.886 111.514C442.623 111.689 442.361 111.969 442.168 112.318C441.905 112.825 441.87 113.333 442.028 113.63L440.855 115.886C440.715 116.148 440.732 116.428 440.872 116.498L439.437 115.658C439.297 115.588 439.279 115.309 439.419 115.046Z" fill="#E05A00"/>
<path d="M442.886 111.514C442.623 111.689 442.361 111.969 442.168 112.318C441.905 112.825 441.87 113.333 442.028 113.63L440.855 115.886C440.715 116.165 440.732 116.445 440.89 116.515C440.977 116.55 441.065 116.533 441.153 116.48C441.258 116.41 441.38 116.288 441.468 116.148L442.641 113.892C442.728 113.875 442.798 113.84 442.886 113.787V111.514Z" fill="#FF8521"/>
<path d="M449.382 106.968L444.865 104.344L444.917 124.909L449.434 127.532L449.382 106.968Z" fill="#A8A8A8"/>
<path d="M448.104 112.633L446.143 111.497L446.195 118.631L448.156 119.768L448.104 112.633Z" fill="#3C3C3B"/>
<path d="M453.303 104.694L448.803 102.089L444.864 104.344L449.381 106.967L453.303 104.694Z" fill="#BCBCBC"/>
<path d="M449.382 106.967L449.434 127.532L453.374 125.259L453.304 104.694L449.382 106.967Z" fill="#757575"/>
<path d="M446.248 107.509C446.248 108.086 446.65 108.786 447.158 109.083C447.666 109.363 448.069 109.136 448.069 108.559C448.069 107.982 447.666 107.282 447.158 106.985C446.65 106.705 446.248 106.932 446.248 107.509Z" fill="white"/>
<path d="M446.248 123.388C446.248 123.965 446.65 124.664 447.158 124.961C447.666 125.259 448.069 125.014 448.069 124.437C448.069 123.86 447.666 123.16 447.158 122.863C446.65 122.583 446.248 122.81 446.248 123.388Z" fill="white"/>
<path d="M446.598 114.207C446.633 114.19 446.668 114.172 446.703 114.155L448.139 114.994C448.104 115.011 448.069 115.029 448.034 115.046C447.998 115.064 447.981 115.081 447.946 115.099L446.51 114.259C446.545 114.242 446.563 114.224 446.598 114.207Z" fill="#E05A00"/>
<path d="M444.969 113.263C445.04 113.175 445.11 113.105 445.18 113.07C445.285 113 445.39 113 445.477 113.035L446.913 113.875C446.843 113.822 446.738 113.84 446.615 113.91C446.545 113.945 446.458 114.015 446.405 114.102C446.213 114.364 446.16 114.679 446.283 114.819L447.263 115.991C447.053 116.48 447.053 116.97 447.263 117.232C447.298 117.285 447.351 117.32 447.386 117.337L445.95 116.498C445.897 116.463 445.862 116.428 445.827 116.393C445.617 116.131 445.617 115.641 445.827 115.151L444.847 113.98C444.724 113.84 444.777 113.525 444.969 113.263Z" fill="#E05A00"/>
<path d="M446.615 113.892C446.545 113.927 446.458 113.997 446.405 114.085C446.213 114.347 446.16 114.662 446.283 114.802L447.263 115.973C447.053 116.463 447.053 116.952 447.263 117.215C447.456 117.442 447.771 117.442 448.104 117.25C448.139 117.232 448.139 114.959 448.139 114.959C448.104 114.976 448.069 114.994 448.034 115.011C447.998 115.029 447.981 115.046 447.946 115.064L446.965 113.875C446.878 113.822 446.755 113.822 446.615 113.892Z" fill="#FF8521"/>
<path d="M454.739 109.923L450.222 107.317L450.275 127.882L454.792 130.488L454.739 109.923Z" fill="#A8A8A8"/>
<path d="M453.461 115.589L451.518 114.452L451.57 121.604L453.514 122.723L453.461 115.589Z" fill="#3C3C3B"/>
<path d="M458.661 107.667L454.162 105.044L450.222 107.317L454.739 109.923L458.661 107.667Z" fill="#BCBCBC"/>
<path d="M454.739 109.923L454.792 130.487L458.731 128.232L458.661 107.667L454.739 109.923Z" fill="#757575"/>
<path d="M451.605 110.482C451.605 111.059 452.008 111.759 452.516 112.056C453.024 112.354 453.426 112.109 453.426 111.532C453.426 110.955 453.024 110.255 452.516 109.958C452.008 109.661 451.605 109.905 451.605 110.482Z" fill="white"/>
<path d="M451.605 126.343C451.605 126.92 452.008 127.619 452.516 127.917C453.024 128.214 453.426 127.969 453.426 127.392C453.426 126.815 453.024 126.116 452.516 125.818C452.008 125.538 451.605 125.766 451.605 126.343Z" fill="white"/>
<path d="M450.03 121.482L451.203 119.226C451.045 118.928 451.08 118.421 451.343 117.914C451.535 117.547 451.798 117.285 452.061 117.11L453.496 117.949C453.234 118.124 452.971 118.404 452.778 118.754C452.516 119.261 452.481 119.768 452.638 120.065L451.465 122.321C451.325 122.583 451.343 122.863 451.483 122.933L450.047 122.094C449.907 122.024 449.889 121.744 450.03 121.482Z" fill="#E05A00"/>
<path d="M453.496 117.949C453.234 118.124 452.971 118.404 452.778 118.754C452.516 119.261 452.481 119.768 452.638 120.065L451.465 122.321C451.325 122.601 451.343 122.881 451.5 122.95C451.588 122.985 451.675 122.968 451.763 122.916C451.868 122.846 451.991 122.723 452.078 122.583L453.251 120.327C453.339 120.31 453.409 120.275 453.496 120.223V117.949Z" fill="#FF8521"/>
<path d="M478.271 63.495L462.828 54.5242L462.933 92.0336L478.376 101.004L478.271 63.495Z" fill="#DADADA"/>
<path d="M484.662 59.8226L469.202 50.8518L462.828 54.5241L478.271 63.4948L484.662 59.8226Z" fill="#BCBCBC"/>
<path d="M478.271 63.4948L478.376 101.004L484.767 97.3145L484.662 59.8225L478.271 63.4948Z" fill="#757575"/>
<path d="M477.238 89.6554L461.795 80.6846V82.9054L477.256 91.8762L477.238 89.6554Z" fill="white"/>
<path d="M478.289 89.0606L462.828 80.0898L461.795 80.6844L477.238 89.6552L478.289 89.0606Z" fill="#BCBCBC"/>
<path d="M477.238 89.6551L477.256 91.8759L478.289 91.2814V89.0605L477.238 89.6551Z" fill="#757575"/>
<path d="M476.45 77.6067L472.318 75.2109L472.336 84.6014L476.45 86.9971V77.6067Z" fill="#1D1D1B"/>
<path d="M474.209 75.6132L470.095 73.2175V76.7849L474.227 79.1806L474.209 75.6132Z" fill="#FF8521"/>
<path d="M476.45 74.3193L472.318 71.9236L470.095 73.2176L474.209 75.6133L476.45 74.3193Z" fill="#FF8521"/>
<path d="M474.209 75.6134L474.227 79.1807L476.45 77.9042V74.3193L474.209 75.6134Z" fill="#E05A00"/>
<path d="M468.851 73.1474L464.737 70.7517V80.1247L468.869 82.5204L468.851 73.1474Z" fill="#1D1D1B"/>
<path d="M466.628 80.3171L462.513 77.9214V81.4887L466.645 83.8844L466.628 80.3171Z" fill="#FF8521"/>
<path d="M468.852 79.0231L464.737 76.6274L462.513 77.9215L466.628 80.3172L468.852 79.0231Z" fill="#FF8521"/>
<path d="M466.628 80.3172L466.645 83.8846L468.869 82.608L468.851 79.0232L466.628 80.3172Z" fill="#E05A00"/>
<path d="M477.238 73.8297L461.795 64.8589V67.0972L477.256 76.068L477.238 73.8297Z" fill="white"/>
<path d="M478.289 73.235L462.828 64.2642L461.795 64.8587L477.238 73.8295L478.289 73.235Z" fill="#BCBCBC"/>
<path d="M477.238 73.8294L477.256 76.0677L478.289 75.4732V73.2349L477.238 73.8294Z" fill="#757575"/>
<path d="M472.931 65.0164C472.931 65.8907 473.544 66.9399 474.297 67.3771C475.05 67.8143 475.662 67.4646 475.662 66.5902C475.662 65.7159 475.05 64.6666 474.297 64.2295C473.544 63.7923 472.931 64.142 472.931 65.0164Z" fill="white"/>
<path d="M465.192 60.4521C465.192 61.3265 465.805 62.3757 466.558 62.8129C467.311 63.25 467.924 62.9003 467.924 62.0259C467.924 61.1516 467.311 60.1024 466.558 59.6652C465.805 59.2455 465.192 59.5953 465.192 60.4521Z" fill="white"/>
<path d="M472.931 93.8697C472.931 94.744 473.544 95.7933 474.297 96.2304C475.05 96.6676 475.662 96.3179 475.662 95.4435C475.662 94.5692 475.05 93.52 474.297 93.0828C473.544 92.6456 472.931 93.0128 472.931 93.8697Z" fill="white"/>
<path d="M465.192 89.323C465.192 90.1974 465.805 91.2466 466.558 91.6838C467.311 92.1209 467.924 91.7712 467.924 90.8968C467.924 90.0225 467.311 88.9733 466.558 88.5361C465.805 88.0989 465.192 88.4487 465.192 89.323Z" fill="white"/>
<path d="M472.143 118.998L460.692 112.353L460.78 140.122L472.231 146.768L472.143 118.998Z" fill="white"/>
<path d="M469.972 120.24L462.881 116.113L462.934 138.881L470.042 142.99L469.972 120.24Z" fill="#BCBCBC"/>
<path d="M476.871 116.27L465.42 109.625L460.692 112.353L472.143 118.998L476.871 116.27Z" fill="#BCBCBC"/>
<path d="M472.143 118.998L472.231 146.767L476.941 144.039L476.871 116.27L472.143 118.998Z" fill="#757575"/>
<path d="M469.902 122.146L461.62 117.337V118.526L469.902 123.335V122.146Z" fill="#EDEDED"/>
<path d="M470.462 121.831L462.181 117.022L461.62 117.337L469.902 122.146L470.462 121.831Z" fill="white"/>
<path d="M469.902 122.146V123.335L470.462 123.02V121.831L469.902 122.146Z" fill="#757575"/>
<path d="M469.902 125.031L461.62 120.222V121.411L469.902 126.22V125.031Z" fill="#EDEDED"/>
<path d="M470.462 124.716L462.181 119.907L461.62 120.222L469.902 125.031L470.462 124.716Z" fill="white"/>
<path d="M469.902 125.031V126.22L470.462 125.905V124.716L469.902 125.031Z" fill="#757575"/>
<path d="M469.902 127.917L461.62 123.108V124.297L469.902 129.106V127.917Z" fill="#EDEDED"/>
<path d="M470.462 127.602L462.181 122.793L461.62 123.108L469.902 127.917L470.462 127.602Z" fill="white"/>
<path d="M469.902 127.917V129.106L470.462 128.791V127.602L469.902 127.917Z" fill="#757575"/>
<path d="M469.902 130.802L461.62 125.993V127.182L469.902 131.991V130.802Z" fill="#EDEDED"/>
<path d="M470.462 130.487L462.181 125.678L461.62 125.993L469.902 130.802L470.462 130.487Z" fill="white"/>
<path d="M469.902 130.802V131.991L470.462 131.676V130.487L469.902 130.802Z" fill="#757575"/>
<path d="M469.902 133.687L461.62 128.878V130.068L469.902 134.876V133.687Z" fill="#EDEDED"/>
<path d="M470.462 133.373L462.181 128.564L461.62 128.878L469.902 133.687L470.462 133.373Z" fill="white"/>
<path d="M469.902 133.687V134.876L470.462 134.562V133.373L469.902 133.687Z" fill="#757575"/>
<path d="M469.902 136.573L461.62 131.764V132.953L469.902 137.779V136.573Z" fill="#EDEDED"/>
<path d="M470.462 136.258L462.181 131.449L461.62 131.764L469.902 136.573L470.462 136.258Z" fill="white"/>
<path d="M469.902 136.573V137.779L470.462 137.447V136.258L469.902 136.573Z" fill="#757575"/>
<path d="M469.902 139.458L461.62 134.649V135.838L469.902 140.664V139.458Z" fill="#EDEDED"/>
<path d="M470.462 139.143L462.181 134.334L461.62 134.649L469.902 139.458L470.462 139.143Z" fill="white"/>
<path d="M469.902 139.458V140.664L470.462 140.332V139.143L469.902 139.458Z" fill="#757575"/>
<path d="M469.902 142.343L461.62 137.534V138.724L469.902 143.55V142.343Z" fill="#EDEDED"/>
<path d="M470.462 142.029L462.181 137.22L461.62 137.534L469.902 142.343L470.462 142.029Z" fill="white"/>
<path d="M469.902 142.343V143.55L470.462 143.218V142.029L469.902 142.343Z" fill="#757575"/>
<path d="M476.976 32.5256V56.098C476.976 57.8817 475.522 59.3331 473.736 59.3331C471.951 59.3331 470.497 57.8817 470.497 56.098V28.7834L476.976 32.5256Z" fill="#C6C6C6"/>
<path d="M472.266 182.336L488.672 172.858V39.2756L472.266 48.7361V182.336Z" fill="#706F6F"/>
<path d="M488.671 39.2756L476.976 46.0081L472.266 48.736L470.497 47.7043L404.156 9.46042L420.58 0L470.497 28.7835L476.976 32.5257L488.671 39.2756Z" fill="#C6C6C6"/>
<path d="M404.156 143.061L358.581 141.522V7.93921L404.156 9.46057V143.061Z" fill="#575756"/>
<path d="M361.557 138.671V10.9993L401.197 12.3283V139.983L361.557 138.671Z" fill="#9D9D9C"/>
<path d="M472.266 182.336L484.662 213.568V79.9677L472.266 48.7361V182.336Z" fill="#575756"/>
<path d="M475.225 181.759V64.2468L481.685 80.5446V198.057L475.225 181.759Z" fill="#9D9D9C"/>
<path d="M420.93 98.4688L422.033 98.4339L425.885 99.1158L427.741 99.6929L431.663 101.319L432.521 102.246L441.503 97.6295C444.234 96.3005 445.617 98.3814 443.341 99.7978C439.874 101.774 436.775 104.17 434.096 107.037C432.293 109.783 430.962 112.843 432.118 114.819L438.281 115.851C441.345 116.76 439.717 119.261 437.983 119.016C434.832 119.033 431.873 119.366 429.229 120.153C425.43 119.068 421.753 118.561 418.304 119.121L410.425 113.63C411.755 111.951 412.578 109.975 413.296 108.034C414.241 105.534 415.029 103.085 416.57 101.494L420.93 98.4688Z" fill="#F9B233"/>
<path d="M465.245 98.5913L470.095 117.337C470.235 117.844 469.99 118.352 469.569 118.456C469.132 118.579 468.676 118.247 468.536 117.739L463.686 98.9935C463.651 98.364 465.07 98.1017 465.245 98.5913Z" fill="white"/>
<path d="M467.573 117.163C467.293 117.425 467.153 117.722 467.136 117.984C467.136 118.037 467.136 118.107 467.153 118.159C467.153 118.177 467.188 118.264 467.188 118.264L467.906 121.027C467.871 120.73 468.011 120.398 468.326 120.083C469.044 119.366 470.427 119.016 471.408 119.296C471.863 119.418 472.161 119.663 472.248 119.96L471.53 117.163L471.495 117.005C471.478 116.97 471.46 116.935 471.443 116.883C471.303 116.655 471.04 116.463 470.655 116.358C469.674 116.113 468.291 116.463 467.573 117.163Z" fill="#E05A00"/>
<path d="M473.789 120.992L476.66 132.114C477.151 133.985 476.013 135.891 474.139 136.381C472.196 136.888 470.287 135.751 469.797 133.88L466.925 122.758C466.435 120.887 467.573 118.981 469.447 118.492C471.408 117.984 473.316 119.121 473.789 120.992Z" fill="#E05A00"/>
<path d="M471.495 118.421C472.668 118.754 472.914 119.698 472.038 120.537C471.18 121.394 469.517 121.814 468.361 121.482C467.188 121.149 466.943 120.205 467.819 119.366C468.676 118.526 470.322 118.107 471.495 118.421Z" fill="#E05A00"/>
<path d="M468.536 120.258L471.425 131.414C471.513 131.782 471.373 132.289 471.11 132.551C470.795 132.866 470.497 132.778 470.41 132.411L467.521 121.255C467.433 120.887 467.573 120.38 467.836 120.118C468.151 119.803 468.449 119.891 468.536 120.258Z" fill="#FF8521"/>
<path d="M472.791 120.013L475.68 131.169C475.767 131.537 475.557 131.746 475.19 131.642C474.752 131.519 474.384 131.152 474.297 130.785L471.408 119.628C471.32 119.261 471.53 119.051 471.898 119.156C472.336 119.261 472.703 119.646 472.791 120.013Z" fill="#FF8521"/>
<path d="M470.567 119.611L473.614 131.134C473.684 131.414 473.491 131.694 473.159 131.764C472.773 131.851 472.441 131.677 472.371 131.397L469.324 119.873C469.254 119.593 469.447 119.313 469.779 119.243C470.165 119.156 470.48 119.331 470.567 119.611Z" fill="#FF8521"/>
<path d="M465.245 100.462L464.159 100.148L463.021 97.6646L463.091 95.3738L464.177 95.6885L465.157 98.2591L465.245 100.462Z" fill="white"/>
<path d="M465.594 100.2C465.646 101.127 464.928 100.882 464.508 99.9027L463.37 97.4021L463.09 95.3911L464.176 95.6884L465.524 97.9967L465.594 100.2Z" fill="#565656"/>
<path d="M468.711 126.133L472.563 114.277C473.474 111.899 476.083 112.353 475.435 114.959L473.369 124.594L480.197 111.969C481.615 109.888 484.119 111.129 483.174 113.385L477.991 125.346L486.238 114.714C487.673 112.756 489.95 114.294 488.234 116.952L482.648 127.392L488.899 121.219C490.72 119.768 492.086 121.499 490.703 123.055L483.139 131.606C482.911 136.992 480.985 141.959 477.658 146.593C475.102 149.653 468.379 154.602 467.591 154.077L459.957 146.488L466.33 144.005C465.525 142.955 465.087 141.696 464.93 140.28C464.895 140.053 464.877 139.825 464.877 139.58C464.859 139.003 464.859 138.514 464.894 138.007L465.017 137.622L465.84 125.993C465.98 123.003 468.431 123.597 468.711 126.133Z" fill="#F9B233"/>
<path d="M344.504 134.841C352.4 145.858 389.291 145.264 395.49 145.264C407.115 138.374 409.304 132.9 420.562 120.013C423.521 112.93 417.953 107.999 412.841 109.171C402.02 114.609 400.392 117.022 394.141 120.887C383.496 113.787 365.199 113.822 356.777 110.57C346.15 115.921 336.415 123.562 344.504 134.841Z" fill="#006DCC"/>
<path d="M423.031 386.81C423.031 381.32 418.794 379.221 412.508 378.557C407.028 378.557 399.639 381.005 389.957 383.226L378.909 389.259C376.808 394.924 376.878 399.961 378.103 404.595C381.202 407.27 385.142 408.931 388.784 407.952L401.197 402.706L402.09 400.922C412 399.856 423.031 395.362 423.031 386.81Z" fill="#1D1D1B"/>
<path d="M382.691 364.83C382.691 360.353 378.681 359.583 372.693 359.111C361.873 359.111 361.417 364.515 351.455 364.287L341.667 370.216C339.671 375.951 340.074 382.054 341.247 386.653C344.206 389.224 348.723 389.801 352.138 389.294L362.188 383.383L363.046 381.565C372.483 380.183 382.691 373.188 382.691 364.83Z" fill="#1D1D1B"/>
<path d="M347.253 212.134L383.303 227.19C383.373 233.573 383.198 239.588 382.585 244.03C380.309 260.625 373.621 285.684 373.621 285.684C368.789 307 366.845 333.458 365.725 361.35C365.532 371.387 350.579 380.183 341.002 370.688C338.253 336.658 338.253 303.59 346.272 281.697C342.438 264.42 346.062 245.114 347.13 225.197C346.202 224.829 348.268 212.553 347.253 212.134Z" fill="#006DCC"/>
<path d="M374.216 247.895C374.251 267.795 374.006 283.848 378.804 301.125C372.01 322.983 373.849 355.526 378.506 389.521C384.389 395.939 392.758 396.026 397.993 392.197C401.355 389.731 403.421 385.674 402.703 380.655L406.38 305.094C406.38 305.094 411.685 280.053 413.033 263.493C414.382 246.933 408.534 209.039 408.534 209.039C405.294 209.913 402.073 210.542 398.869 210.927C377.42 213.638 357.688 205.978 351.56 193.738C351.245 194.629 350.947 195.539 350.649 196.448C348.303 203.827 346.973 211.504 346.657 219.443C345.957 236.93 363.133 243.365 374.216 247.895Z" fill="#006DCC"/>
<path d="M339.339 133.757C341.632 161.457 347.568 188.561 350.649 196.448C364.009 215.474 380.852 218.324 399.394 212.484C402.405 211.539 405.47 210.42 408.534 209.039C411.983 195.486 410.932 176.653 411.563 158.362C411.773 151.612 412.245 144.914 413.226 138.584C395.489 123.021 379.749 116.096 356.777 110.57C345.432 110.587 339.409 121.044 339.339 133.757Z" fill="#006DCC"/>
<path opacity="0.5" d="M399.376 212.484C402.388 211.539 405.452 210.42 408.516 209.039C411.965 195.486 410.915 176.653 411.545 158.362L401.88 156.525C402.966 176.233 403.141 195.469 399.376 212.484Z" fill="#006DCC"/>
<path d="M392.601 110.692L392.793 124.437C378.401 131.694 361.96 120.187 364.184 114.224L370.084 102.91L392.601 110.692Z" fill="#FCAF75"/>
<path opacity="0.25" d="M413.033 263.475C411.703 280.053 406.38 305.077 406.38 305.077L402.703 380.638C403.421 385.639 401.337 389.696 397.941 392.179C401.232 360.388 402.703 330.573 397.941 307.507C405.067 281.329 408.288 253.927 400.112 233.713C400.199 225.634 401.075 218.342 399.359 212.483C402.37 211.557 405.417 210.403 408.499 209.039C408.534 209.056 414.364 246.933 413.033 263.475Z" fill="black"/>
<path d="M400.952 162.838C408.849 173.855 438.526 175.079 444.742 175.079C456.368 168.189 460.237 164.849 471.478 151.979C474.437 144.897 469.867 139.371 464.737 140.542C454.319 145.281 449.609 146.838 443.376 150.702C429.824 144.354 421.648 141.819 413.226 138.584C402.598 143.9 392.863 151.559 400.952 162.838Z" fill="#006DCC"/>
<path d="M398.886 110.745C394.422 115.816 387.698 115.134 380.852 113.315C370.837 108.699 363.641 101.861 364.621 88.8509C363.834 79.408 368.106 69.5104 384.231 70.0175C394.492 70.3497 403.228 74.0744 403.841 85.0212C403.859 85.0212 404.402 105.691 398.886 110.745Z" fill="#FCAF75"/>
<path d="M364.534 94.9363C364.937 98.1714 365.549 101.057 366.215 103.243C366.74 104.886 367.283 106.128 367.826 106.827C371.292 111.829 382.708 116.026 390.359 110.517L392.636 104.082C392.636 104.082 397.083 100.235 397.556 100.095C398.011 99.955 397.24 91.4389 397.24 91.4389C400.567 88.9907 402.983 86.1054 403.806 82.3107C404.874 73.7421 396.96 66.3277 384.249 66.8698C371.397 67.4119 365.374 75.5258 364.166 83.8671C363.956 87.6792 364.131 91.5088 364.534 94.9363Z" fill="black"/>
<path d="M396.19 101.354C397.415 99.9902 395.524 96.8076 394.141 96.353C392.215 95.7234 391.165 98.5038 390.972 100.025C390.71 102.054 390.955 103.645 392.093 105.324C393.406 107.265 395.454 105.359 396.102 103.802C396.557 102.683 395.402 102.229 396.19 101.354Z" fill="#FCAF75"/>
<path d="M373.656 99.553L372.991 101.931C370.067 101.162 367.633 100.008 365.812 98.3989L365.304 95.3911C367.791 97.6294 370.102 98.941 373.656 99.553Z" fill="white"/>
<path d="M400.042 89.2532C408.306 82.5382 415.415 77.7468 415.625 73.1652C415.59 66.8699 408.551 62.096 402.668 62.4807C398.011 62.8654 392.688 65.1912 387.05 68.3913L400.042 89.2532Z" fill="#006DCC"/>
<path d="M402.616 80.7895C403.474 93.1003 390.955 101.109 376.633 102.176C374.812 102.176 374.146 102.141 372.991 101.931C373.603 99.1508 372.518 96.0381 369.069 94.5342C366.442 93.3976 365.427 95.0588 365.812 98.3988C362.713 95.2162 362.766 90.4773 363.536 84.5142C366.688 73.6373 372.43 66.1005 385.702 65.0513C393.581 65.7333 400.707 69.7203 402.616 80.7895Z" fill="#006DCC"/>
<path d="M407.658 111.934C414.154 111.496 419.056 117.949 417.13 124.052L423.101 118.893L421.403 109.013L413.191 108.296L407.658 111.934Z" fill="#F9B233"/>
<path d="M459.94 142.676C466.4 142.029 470.27 149.933 468.326 155.546L473.071 150.825V140.665L466.05 139.79L459.94 142.676Z" fill="#F9B233"/>
<path d="M480.372 353.673C480.32 353.708 480.267 353.725 480.215 353.76L477.886 355.107L478.884 356.82C478.639 364.06 475.155 367.697 468.992 368.799L466.453 370.268L468.291 373.451L469.464 372.769L472.231 395.729L492.593 410.4L495.132 408.931L498.371 385.726C492.208 377.507 488.724 369.866 488.479 362.346C488.479 359.286 486.325 355.561 483.681 354.04C482.421 353.323 481.283 353.218 480.442 353.638L480.372 353.673Z" fill="#B83231"/>
<path d="M481.16 355.509C478.499 353.987 476.363 355.212 476.363 358.272C476.118 365.494 472.633 369.149 466.47 370.25L469.709 397.198L492.611 410.4L495.85 387.195C489.687 378.976 486.203 371.334 485.958 363.815C485.958 360.755 483.822 357.048 481.16 355.509Z" fill="#F94343"/>
<path d="M483.769 362.241C483.769 363.902 482.613 364.567 481.178 363.745C479.742 362.923 478.586 360.912 478.586 359.251C478.586 357.59 479.742 356.925 481.178 357.747C482.596 358.569 483.769 360.58 483.769 362.241Z" fill="#B83231"/>
<path d="M495.868 387.213L495.15 408.949L456.911 431L462.688 406.326L495.868 387.213Z" fill="#B83231"/>
<path d="M466.47 370.25C478.324 365.302 487.498 374.167 495.868 387.195L462.688 406.326C452.813 394.365 442.973 386.513 433.291 389.381L466.47 370.25Z" fill="#E33D3D"/>
<path d="M483.769 362.242C483.769 363.903 482.613 364.567 481.178 363.745C479.742 362.924 478.586 360.913 478.586 359.251C478.586 357.59 479.742 356.926 481.178 357.747C482.596 358.569 483.769 360.58 483.769 362.242Z" fill="#B83231"/>
<path d="M479.317 357.527L443.609 378.117L447.286 384.478L482.994 363.887L479.317 357.527Z" fill="#B83231"/>
<path d="M444.672 374.272C444.619 374.307 444.567 374.325 444.514 374.36L442.186 375.706L443.184 377.42C442.938 384.66 439.454 388.297 433.291 389.399L430.752 390.868L432.591 394.05L433.764 393.368L436.53 416.328L456.893 431L459.432 429.531L462.671 406.326C456.508 398.107 453.024 390.465 452.778 382.946C452.778 379.886 450.625 376.161 447.981 374.64C446.72 373.923 445.582 373.818 444.742 374.237C444.742 374.22 444.672 374.272 444.672 374.272Z" fill="#B83231"/>
<path d="M445.46 376.108C442.798 374.587 440.662 375.811 440.662 378.871C440.417 386.093 436.933 389.748 430.77 390.85L434.009 417.797L456.91 431L460.15 407.795C453.987 399.576 450.502 391.934 450.257 384.415C450.257 381.354 448.104 377.63 445.46 376.108Z" fill="#F94343"/>
<path d="M448.051 382.823C448.051 384.485 446.895 385.149 445.46 384.327C444.024 383.505 442.868 381.494 442.868 379.833C442.868 378.172 444.024 377.507 445.46 378.329C446.895 379.169 448.051 381.18 448.051 382.823Z" fill="#B83231"/>
<path d="M477.921 392.092L482.421 396.166V394.138L477.921 392.092Z" fill="#A0A09F"/>
<path d="M478.551 397.075L477.729 402.269L479.742 397.355L478.551 397.075Z" fill="#8A8A8A"/>
<path d="M480.67 395.851L479.847 401.062L481.843 396.131L480.67 395.851Z" fill="#8A8A8A"/>
<path d="M479.847 401.062L477.729 402.269L479.742 397.355L481.843 396.131L479.847 401.062Z" fill="#B5B5B5"/>
<path d="M474.314 394.225L478.832 398.299V396.253L474.314 394.225Z" fill="#A0A09F"/>
<path d="M482.421 396.166L478.832 398.299V396.253L482.421 394.137V396.166Z" fill="#C9C9C9"/>
<path d="M478.832 396.253L474.314 394.225L477.921 392.092L482.421 394.138L478.832 396.253Z" fill="#F0F0F0"/>
</g>
<defs>
<clipPath id="clip0">
<rect width="570" height="431" fill="white"/>
</clipPath>
</defs>
</svg>
