<svg width="728" height="345" viewBox="0 0 728 345" fill="none" xmlns="http://www.w3.org/2000/svg">
<path d="M51.0266 55.3313H127.394V321.617H51.0266V55.3313Z" fill="#9EA097"/>
<path d="M93.3318 153.056H169.7L151.659 55.3313H75.2908L93.3318 153.056Z" fill="white"/>
<path d="M118.413 136.838C112.674 131.829 112.092 123.128 117.114 117.403C122.135 111.678 130.859 111.098 136.598 116.107C142.337 121.116 142.918 129.817 137.897 135.542C132.875 141.267 124.152 141.847 118.413 136.838Z" fill="#F9F3EF"/>
<path d="M108.575 95.1436H136.176C136.789 95.1436 137.297 94.6362 137.297 94.0244C137.297 93.4126 136.789 92.9053 136.176 92.9053H108.575C107.962 92.9053 107.453 93.4126 107.453 94.0244C107.453 94.6512 107.962 95.1436 108.575 95.1436Z" fill="#011833"/>
<path d="M110.071 103.246H137.672C138.285 103.246 138.793 102.739 138.793 102.127C138.793 101.515 138.285 101.008 137.672 101.008H110.071C109.458 101.008 108.949 101.515 108.949 102.127C108.949 102.754 109.458 103.246 110.071 103.246Z" fill="#011833"/>
<path d="M93.3318 153.056H169.7V321.632H93.3318V153.056Z" fill="#F9F3EF"/>
<path d="M70.399 204.135C75.0664 204.135 78.8661 200.36 78.8661 195.689V161.487C78.8661 156.832 75.0813 153.042 70.399 153.042C65.7317 153.042 61.932 156.817 61.932 161.487V195.689C61.932 200.36 65.7317 204.135 70.399 204.135Z" fill="#051423"/>
<path d="M118.239 191.481H130.117L125.719 166.576L149.355 200.554H137.462L141.86 225.459L118.239 191.481Z" fill="#006DCC"/>
<path d="M136.325 126.48C136.325 119.72 131.448 114.11 125.016 112.946C125.824 112.796 126.661 112.722 127.514 112.722C135.143 112.722 141.322 118.885 141.322 126.495C141.322 134.105 135.143 140.268 127.514 140.268C126.661 140.268 125.824 140.194 125.016 140.044C131.448 138.851 136.325 133.225 136.325 126.48Z" fill="#9EA097"/>
<path d="M70.3991 153.056C70.8628 153.056 71.3265 153.101 71.7753 153.176C67.7512 153.832 64.6845 157.309 64.6845 161.502V195.704C64.6845 199.897 67.7512 203.374 71.7753 204.03C71.3265 204.105 70.8778 204.15 70.3991 204.15C65.7317 204.15 61.9319 200.375 61.9319 195.704V161.502C61.9319 156.832 65.7317 153.056 70.3991 153.056Z" fill="black"/>
<path d="M161.307 286.177H510.984V207.075H175.908L155.698 236.874V275.851L161.307 286.177Z" fill="black"/>
<path d="M427.929 320.229C411.141 320.229 397.531 298.082 397.531 270.762C397.531 243.442 411.141 221.295 427.929 221.295C444.717 221.295 458.327 243.442 458.327 270.762C458.327 298.082 444.717 320.229 427.929 320.229Z" fill="#031C30"/>
<path d="M402.333 305.665H427.974V320.229H402.333V305.665Z" fill="#031C30"/>
<path d="M402.259 221.295H427.899V235.859H402.259V221.295Z" fill="#031C30"/>
<path d="M402.289 320.244C385.501 320.244 371.891 298.097 371.891 270.777C371.891 243.457 385.501 221.31 402.289 221.31C419.077 221.31 432.686 243.457 432.686 270.777C432.686 298.097 419.077 320.244 402.289 320.244Z" fill="#051423"/>
<path d="M402.289 300.592C392.143 300.592 383.918 287.203 383.918 270.688C383.918 254.172 392.143 240.784 402.289 240.784C412.434 240.784 420.659 254.172 420.659 270.688C420.659 287.203 412.434 300.592 402.289 300.592Z" fill="#FC8455"/>
<path d="M404.981 241.112C413.837 243.246 420.644 255.661 420.659 270.673C420.674 285.684 413.882 298.115 405.026 300.263C396.17 298.13 389.364 285.714 389.349 270.703C389.334 255.691 396.125 243.261 404.981 241.112Z" fill="#D8D8D8"/>
<path d="M404.084 281.148C401.027 281.148 398.549 276.465 398.549 270.688C398.549 264.911 401.027 260.227 404.084 260.227C407.141 260.227 409.619 264.911 409.619 270.688C409.619 276.465 407.141 281.148 404.084 281.148Z" fill="#051423"/>
<path d="M393.837 197.584L394.3 153.877H497.221V201.822H476.158V270.777C467.003 270.583 448.708 271.717 448.708 270.867C448.708 238.351 432.507 211.999 412.536 211.999H379.7V197.599H393.837V197.584Z" fill="#FF772C"/>
<path d="M269.658 140.999H432.013V153.877H269.658V140.999Z" fill="#031C30"/>
<path d="M273.383 153.907H199.693C209.148 122.511 232.978 74.9838 284.723 72.2232H339.639C339.624 117.333 309.959 153.907 273.383 153.907Z" fill="#051423"/>
<path d="M302.883 72.2232H455.155C504.327 72.2232 550.402 96.7552 577.284 137.836C580.665 142.999 583.701 148.371 586.364 153.907H419.956C377.052 153.907 358.443 136.03 350.559 109.409C339.579 135.821 317.289 153.907 291.559 153.907H217.869H213.62C222.955 118.273 256.913 72.2232 302.883 72.2232Z" fill="#031C30"/>
<path d="M238.917 148.625C238.917 148.625 262.014 87.8019 293.429 87.8019H495.022C506.795 87.8019 518.299 91.3832 527.918 98.1429C547.111 111.633 562.728 128.644 572.871 147.968L238.917 148.625Z" fill="#86BAE7"/>
<path d="M318.95 225.369H352.937C361.704 225.369 368.151 217.162 366.057 208.671L346.056 127.883C344.56 121.869 339.16 117.631 332.937 117.631H298.949C290.183 117.631 283.735 125.839 285.83 134.329L305.83 215.118C307.326 221.131 312.742 225.369 318.95 225.369Z" fill="#006DCC"/>
<path d="M397.756 225.369H431.744C440.51 225.369 446.957 217.162 444.863 208.671L424.862 127.883C423.366 121.869 417.966 117.631 411.743 117.631H377.755C368.989 117.631 362.541 125.839 364.636 134.329L384.637 215.118C386.132 221.131 391.548 225.369 397.756 225.369Z" fill="#006DCC"/>
<path d="M547.829 148.625L546.123 124.257C525.584 99.5009 510.849 93.6812 475.38 83.952C477.161 80.3558 494.813 74.6257 498.508 76.1776C536.878 92.2039 560.215 110.827 577.359 148.64C577.389 148.625 546.737 149.759 547.829 148.625Z" fill="#006DCC"/>
<g opacity="0.25">
<path opacity="0.25" d="M244.085 61.5199L267.928 47.0106L361.94 200.732L338.097 215.242L244.085 61.5199Z" fill="white"/>
</g>
<path d="M392.804 156.921C394.734 156.921 396.679 156.862 398.668 156.757L398.16 147.774C374.539 149.102 356.184 142.014 334.822 123.272L328.868 130.032C350.125 148.669 369.557 156.921 392.804 156.921Z" fill="white"/>
<path d="M383.44 151.34H541.546C541.546 145.73 536.983 141.178 531.358 141.178H383.425V151.34H383.44Z" fill="#006DCC"/>
<g opacity="0.25">
<path opacity="0.25" d="M465.051 61.512L488.894 47.0027L582.906 200.725L559.063 215.234L465.051 61.512Z" fill="white"/>
</g>
<g opacity="0.25">
<path opacity="0.25" d="M407.845 63.5029L431.688 48.9936L525.701 202.716L501.858 217.225L407.845 63.5029Z" fill="white"/>
</g>
<path d="M223.628 320.229C206.84 320.229 193.231 298.082 193.231 270.762C193.231 243.442 206.84 221.295 223.628 221.295C240.416 221.295 254.026 243.442 254.026 270.762C254.026 298.082 240.416 320.229 223.628 320.229Z" fill="#031C30"/>
<path d="M198.018 305.665H223.658V320.229H198.018V305.665Z" fill="#031C30"/>
<path d="M197.958 221.295H223.598V235.859H197.958V221.295Z" fill="#031C30"/>
<path d="M197.988 320.244C181.2 320.244 167.59 298.097 167.59 270.777C167.59 243.457 181.2 221.31 197.988 221.31C214.776 221.31 228.385 243.457 228.385 270.777C228.385 298.097 214.776 320.244 197.988 320.244Z" fill="#051423"/>
<path d="M197.988 300.592C187.842 300.592 179.618 287.203 179.618 270.688C179.618 254.172 187.842 240.784 197.988 240.784C208.133 240.784 216.358 254.172 216.358 270.688C216.358 287.203 208.133 300.592 197.988 300.592Z" fill="#FC8455"/>
<path d="M200.681 241.112C209.537 243.246 216.343 255.661 216.358 270.673C216.373 285.684 209.581 298.115 200.726 300.263C191.87 298.13 185.063 285.714 185.048 270.703C185.033 255.691 191.825 243.261 200.681 241.112Z" fill="#D8D8D8"/>
<path d="M199.783 260.227C202.91 260.973 205.318 265.375 205.333 270.673C205.333 275.985 202.939 280.372 199.798 281.133C196.671 280.387 194.263 275.985 194.248 270.688C194.248 265.39 196.642 260.988 199.783 260.227Z" fill="#051423"/>
<path d="M248.431 286.177C242.956 286.177 238.767 281.402 239.41 275.97C239.755 273.09 239.934 270.136 239.934 267.121C239.934 236.665 225.663 211.984 199.349 211.984C174.038 211.984 158.764 236.665 158.764 267.121C158.764 273.821 159.647 280.238 161.262 286.177C161.262 286.177 148.412 286.341 146.363 269.061C146.363 269.061 137.866 228.577 170.477 206.881C170.537 177.588 185.078 153.862 199.693 153.862H394.315L393.268 203.18L368.121 223.191L318.262 286.162H248.431V286.177Z" fill="#FF772C"/>
<path d="M436.217 154.892H421.497L421.482 153.877H591.54C620.187 153.877 647.055 177.648 647.055 206.985V214.192H500.722C499.256 181.215 468.723 154.892 436.217 154.892Z" fill="#EF6926"/>
<path d="M333.341 320.229C316.553 320.229 302.943 298.082 302.943 270.762C302.943 243.442 316.553 221.295 333.341 221.295C350.129 221.295 363.738 243.442 363.738 270.762C363.738 298.082 350.129 320.229 333.341 320.229Z" fill="#031C30"/>
<path d="M307.73 305.665H333.371V320.229H307.73V305.665Z" fill="#031C30"/>
<path d="M307.67 221.295H333.311V235.859H307.67V221.295Z" fill="#031C30"/>
<path d="M307.7 320.244C290.912 320.244 277.303 298.097 277.303 270.777C277.303 243.457 290.912 221.31 307.7 221.31C324.488 221.31 338.098 243.457 338.098 270.777C338.098 298.097 324.488 320.244 307.7 320.244Z" fill="#051423"/>
<path d="M307.7 300.592C297.555 300.592 289.33 287.203 289.33 270.688C289.33 254.172 297.555 240.784 307.7 240.784C317.846 240.784 326.07 254.172 326.07 270.688C326.07 287.203 317.846 300.592 307.7 300.592Z" fill="black"/>
<path d="M310.408 300.263C301.758 300.263 294.745 287.022 294.745 270.688C294.745 254.353 301.758 241.112 310.408 241.112C319.058 241.112 326.07 254.353 326.07 270.688C326.07 287.022 319.058 300.263 310.408 300.263Z" fill="#9EA097"/>
<path d="M309.48 260.227C312.607 260.973 315.015 265.375 315.03 270.673C315.03 275.985 312.637 280.372 309.495 281.133C306.369 280.387 303.96 275.985 303.945 270.688C303.96 265.39 306.354 260.988 309.48 260.227Z" fill="#051423"/>
<path d="M249.314 149.266C249.314 149.266 320.595 221.266 339.788 265.346H361.704V286.177H302.943C302.943 286.177 296.241 286.028 292.89 286.102C281.357 286.371 268.836 286.281 259.725 278.268C253.338 272.657 249.703 264.018 246.486 255.616C234.115 223.34 224.526 189.69 217.854 155.325C217.136 151.624 219.141 149.013 219.141 149.013L249.314 149.266Z" fill="#031C30"/>
<path d="M616.283 320.244C599.925 320.244 586.663 298.097 586.663 270.777C586.663 243.457 599.925 221.31 616.283 221.31C632.642 221.31 645.903 243.457 645.903 270.777C645.903 298.097 632.642 320.244 616.283 320.244Z" fill="#031C30"/>
<path d="M591.301 305.68H616.283V320.244H591.301V305.68Z" fill="#031C30"/>
<path d="M591.301 221.31H616.283V235.874H591.301V221.31Z" fill="#031C30"/>
<path d="M591.286 320.244C574.927 320.244 561.666 298.097 561.666 270.777C561.666 243.457 574.927 221.31 591.286 221.31C607.644 221.31 620.906 243.457 620.906 270.777C620.906 298.097 607.644 320.244 591.286 320.244Z" fill="#051423"/>
<path d="M591.286 300.592C581.396 300.592 573.379 287.203 573.379 270.688C573.379 254.172 581.396 240.784 591.286 240.784C601.175 240.784 609.192 254.172 609.192 270.688C609.192 287.203 601.175 300.592 591.286 300.592Z" fill="black"/>
<path d="M593.934 300.263C585.507 300.263 578.675 287.022 578.675 270.688C578.675 254.354 585.507 241.112 593.934 241.112C602.361 241.112 609.192 254.354 609.192 270.688C609.192 287.022 602.361 300.263 593.934 300.263Z" fill="#9EA097"/>
<path d="M593.036 281.148C590.054 281.148 587.636 276.465 587.636 270.688C587.636 264.911 590.054 260.227 593.036 260.227C596.019 260.227 598.436 264.911 598.436 270.688C598.436 276.465 596.019 281.148 593.036 281.148Z" fill="#051423"/>
<g opacity="0.5">
<g opacity="0.5">
<path opacity="0.5" d="M495.471 205.15H615.61C617.061 205.15 618.228 203.986 618.228 202.538C618.228 201.091 617.061 199.927 615.61 199.927H495.471C494.02 199.927 492.853 201.091 492.853 202.538C492.853 203.986 494.035 205.15 495.471 205.15Z" fill="white"/>
</g>
</g>
<path d="M474.647 205.18H502.666C502.666 186.557 487.527 171.47 468.873 171.47H440.854C440.839 190.093 455.978 205.18 474.647 205.18Z" fill="white"/>
<path d="M473.346 197.569H488.814C488.814 187.288 480.467 178.961 470.159 178.961H454.691C454.691 189.228 463.039 197.569 473.346 197.569Z" fill="#D8D8D8"/>
<path d="M475.291 224.399V205.209H647.055V225.608C655.776 231.413 661.61 242.067 661.61 254.273V257.78C661.61 276.179 648.311 291.086 631.901 291.086H488.425C472.014 291.086 458.716 291.191 458.716 272.792V254.273C458.745 241.172 465.477 229.846 475.291 224.399Z" fill="#EF6926"/>
<path d="M520.902 236.203H597.15C608.624 236.203 617.944 226.921 617.944 215.461V215.192H500.123V215.461C500.108 226.921 509.413 236.203 520.902 236.203Z" fill="#031C30"/>
<path d="M486.346 270.762C487.243 264.913 492.314 260.421 498.433 260.421H621.743C627.862 260.421 632.933 264.898 633.83 270.762H661.625C661.565 270.762 661.879 291.43 647.847 291.43H468.529C454.512 291.43 448.139 283.968 448.139 270.762H486.346Z" fill="#031C30"/>
<path d="M647.444 204.836C645.903 205.06 644.347 205.18 642.746 205.18H615.445C615.445 191.615 623.269 179.931 634.549 174.574C641.879 182.946 646.696 193.406 647.444 204.836Z" fill="white"/>
<path d="M644.182 197.584H629.103C629.103 190.183 633.322 183.796 639.425 180.797C642.731 185.855 645.185 191.466 646.531 197.42C645.768 197.524 644.975 197.584 644.182 197.584Z" fill="#D8D8D8"/>
<path d="M178.511 179.633H185.527C188.653 179.633 191.181 177.111 191.181 173.992V170.545C191.181 167.427 188.653 164.905 185.527 164.905H178.511C175.384 164.905 172.856 167.427 172.856 170.545V173.992C172.856 177.096 175.384 179.633 178.511 179.633Z" fill="#CD4D4C"/>
<path d="M172.392 200.121H179.408C182.535 200.121 185.063 197.599 185.063 194.48V191.033C185.063 187.915 182.535 185.393 179.408 185.393H172.392C169.266 185.393 166.738 187.915 166.738 191.033V194.48C166.738 197.599 169.266 200.121 172.392 200.121Z" fill="#CD4D4C"/>
<path d="M421.482 153.922L412.371 211.954L405.011 212.029C380.897 212.029 363.678 234.561 363.678 273.105C363.678 273.956 363.693 274.806 363.708 275.642C346.61 275.985 333.086 275.15 315.988 275.508C304.469 275.746 291.933 275.672 282.823 268.614C276.435 263.674 272.8 256.064 269.584 248.663C255.896 217.177 245.095 187.422 238.408 153.758L421.482 153.922Z" fill="#EF6926"/>
<path d="M274.416 153.25V157.115C274.416 173.515 262.628 187.183 246.98 190.317C243.33 178.409 240.203 166.203 237.6 153.25H274.416Z" fill="#031C30"/>
<path d="M292.906 82.0069L300.069 84.1022L280.2 151.689L273.036 149.594L292.906 82.0069Z" fill="#031C30"/>
<path d="M418.4 152.863L425.595 150.833C425.371 150.042 420.03 131.39 409.723 114.811C397.472 95.0989 382.826 81.8629 382.213 81.3108L377.217 86.8469C377.366 86.9812 391.697 99.9635 403.381 118.736C413.119 134.434 418.34 152.669 418.4 152.863Z" fill="#031C30"/>
<path d="M408.572 140.925V152.161L379.475 150.669C374.27 150.4 370.186 146.118 370.186 140.925H408.572Z" fill="#031C30"/>
<path d="M370.201 140.805C370.26 135.657 374.314 131.434 379.49 131.166L401.586 130.032C405.385 129.838 408.587 132.867 408.587 136.657V140.79H370.201V140.805Z" fill="#FF772C"/>
<g opacity="0.5">
<path opacity="0.5" d="M255.477 174.38C259.561 174.38 262.867 171.082 262.867 167.009V166.248H248.087V167.009C248.087 171.082 251.393 174.38 255.477 174.38Z" fill="black"/>
</g>
<path d="M248.596 169.963H262.179C263.869 169.963 265.23 168.605 265.23 166.919C265.23 165.233 263.869 163.875 262.179 163.875H248.596C246.905 163.875 245.544 165.233 245.544 166.919C245.544 168.605 246.905 169.963 248.596 169.963Z" fill="#051423"/>
<g opacity="0.5">
<path opacity="0.5" d="M277.886 201.822H419.686C424.234 201.822 427.929 198.136 427.929 193.6C427.929 189.064 424.234 185.378 419.686 185.378H277.886C273.338 185.378 269.644 189.064 269.644 193.6C269.658 198.136 273.338 201.822 277.886 201.822Z" fill="white"/>
</g>
<path d="M300.669 148.52H345.338L340.88 131.33C339.01 124.287 331.89 120.078 324.829 121.944L308.448 126.256C301.253 128.151 296.974 135.508 298.874 142.671L300.669 148.52Z" fill="white"/>
<path d="M319.204 128.972L319.129 128.987C316.122 129.823 312.996 128.077 312.143 125.077L310.004 117.452C309.151 114.453 310.917 111.334 313.923 110.484L313.998 110.469C317.005 109.618 320.132 111.379 320.984 114.378L323.123 122.003C323.961 125.018 322.211 128.136 319.204 128.972Z" fill="#6E4039"/>
<path d="M297.722 78.5203L300.894 78.0278L306.115 111.379C303.138 111.856 302.09 111.364 298.096 101.381L293.309 89.4731C290.123 81.4002 294.012 79.1022 297.722 78.5203Z" fill="#051423"/>
<path d="M312.577 76.0283C304.828 77.237 299.562 84.519 300.774 92.2636L301.328 95.83L299.742 96.0688C297.558 96.412 296.062 98.4563 296.406 100.635L296.705 102.515C297.049 104.694 299.099 106.186 301.283 105.843L302.838 105.604L303.227 108.141C304.439 115.87 311.709 121.168 319.458 119.959L325.681 118.989C332.353 117.243 332.533 110.603 331.86 106.305L328.344 84.7279C327.133 76.9983 320.326 74.8196 312.577 76.0283Z" fill="#965B4E"/>
<path d="M329.421 91.5771L330.917 101.097C332.548 100.396 333.565 98.6502 333.281 96.8148L332.982 94.9346C332.682 93.0992 331.186 91.7562 329.421 91.5771Z" fill="#6E4039"/>
<path d="M323.782 97.5461C323.901 98.322 324.634 98.8443 325.397 98.7249C326.175 98.6055 326.699 97.8743 326.579 97.1133C326.459 96.3374 325.726 95.8151 324.963 95.9345C324.185 96.0538 323.662 96.7701 323.782 97.5461Z" fill="#051423"/>
<path d="M312.727 99.277C312.846 100.053 313.579 100.575 314.342 100.456C315.12 100.336 315.644 99.6053 315.524 98.8443C315.404 98.0683 314.671 97.546 313.908 97.6654C313.145 97.7699 312.607 98.5011 312.727 99.277Z" fill="#051423"/>
<path d="M315.629 91.5623L310.378 92.383C310.019 92.4427 309.675 92.189 309.615 91.8309C309.555 91.4727 309.809 91.1295 310.169 91.0698L315.419 90.2491C315.778 90.1894 316.122 90.4431 316.182 90.8012C316.227 91.1594 315.988 91.5026 315.629 91.5623Z" fill="#051423"/>
<path d="M326.579 90.7117L321.328 91.5324C320.969 91.5921 320.625 91.3384 320.565 90.9803C320.506 90.6222 320.76 90.279 321.119 90.2193L326.37 89.3985C326.729 89.3389 327.073 89.5925 327.133 89.9507C327.192 90.3237 326.938 90.6669 326.579 90.7117Z" fill="#051423"/>
<path d="M312.936 105.544C314.028 108.006 317.214 110.2 322.076 109.454C326.938 108.693 328.015 105.828 328.299 103.157L312.936 105.544Z" fill="#EFF4DF"/>
<path d="M303.586 103.037C308.418 102.56 302.838 88.533 302.838 88.533L298.111 86.9662C298.111 86.9662 299.832 102.605 303.586 103.037Z" fill="#051423"/>
<path d="M319.683 101.784C320.924 101.784 321.852 101.381 322.211 100.665C322.54 100.008 322.555 98.7995 320.67 96.8298C320.52 96.6806 320.281 96.6657 320.132 96.8149C319.982 96.9641 319.967 97.2029 320.117 97.3521C321.328 98.6205 321.837 99.6949 321.523 100.307C321.238 100.859 320.251 101.112 318.965 100.963C318.74 100.933 318.561 101.083 318.531 101.292C318.501 101.5 318.651 101.694 318.86 101.724C319.159 101.769 319.428 101.784 319.683 101.784Z" fill="#6E4039"/>
<path d="M300.894 74.7002C303.886 73.1632 307.102 72.0739 310.423 71.4621C315.165 70.5817 319.039 69.3282 323.138 72.0292C327.402 74.8345 324.799 80.4154 321.717 81.9822C317.05 84.3399 312.233 86.3544 307.401 88.354C303.527 89.9507 298.784 91.3683 294.955 88.9061C289.898 85.6531 292.457 80.3557 296.316 77.5354C297.752 76.461 299.293 75.5209 300.894 74.7002Z" fill="#051423"/>
<path d="M261.401 70.8802C261.431 70.8802 261.446 70.8802 261.476 70.8802C263.495 70.8354 265.096 69.179 265.051 67.1795C265.006 65.0158 264.976 57.9128 265.021 55.9132C265.066 53.8988 263.48 52.2424 261.461 52.1976C261.431 52.1976 261.401 52.1976 261.371 52.1976C259.396 52.1976 257.781 53.7645 257.736 55.7491C257.676 57.9874 257.721 65.2844 257.766 67.3287C257.796 69.2984 259.426 70.8802 261.401 70.8802Z" fill="#6E4039"/>
<path d="M299.622 139.313L302.539 130.793C280.414 123.287 269.135 102.814 265.934 64.4189L256.943 65.165C260.458 107.618 273.638 130.494 299.622 139.313Z" fill="white"/>
<path d="M135.502 335.539H146.198C183.522 335.539 213.905 305.247 213.905 268.002V173.5C213.905 171.918 212.618 170.635 211.032 170.635C209.447 170.635 208.175 171.918 208.175 173.5V268.002C208.175 302.084 180.381 329.824 146.198 329.824H135.502C101.335 329.824 73.5254 302.099 73.5254 268.002V173.5C73.5254 171.918 72.2389 170.635 70.6682 170.635C69.0974 170.635 67.796 171.918 67.796 173.5V268.002C67.8109 305.247 98.1785 335.539 135.502 335.539Z" fill="#006DCC"/>
<path d="M210.958 191.362C215.296 191.362 218.811 187.855 218.811 183.527V172.783C218.811 168.456 215.296 164.949 210.958 164.949C206.619 164.949 203.104 168.456 203.104 172.783V183.527C203.104 187.855 206.619 191.362 210.958 191.362Z" fill="#031C30"/>
<path d="M210.958 201.792C213.441 201.792 215.445 199.793 215.445 197.316V173.47C215.445 170.993 213.441 168.993 210.958 168.993C208.474 168.993 206.47 170.993 206.47 173.47V197.316C206.47 199.793 208.474 201.792 210.958 201.792Z" fill="#F9F3EF"/>
</svg>
