<svg width="29" height="29" viewBox="0 0 29 29" fill="none"
									xmlns="http://www.w3.org/2000/svg">
									<path
										d="M14.5 0.580017C6.81212 0.580017 0.580017 6.81212 0.580017 14.5C0.580017 22.1879 6.81212 28.42 14.5 28.42C22.1879 28.42 28.42 22.1879 28.42 14.5C28.42 6.81212 22.1879 0.580017 14.5 0.580017ZM19.8534 16.285C19.8534 16.285 21.0845 17.5001 21.3875 18.0641C21.3962 18.0757 21.4006 18.0873 21.4035 18.0931C21.5267 18.3005 21.5557 18.4614 21.4948 18.5818C21.3933 18.7819 21.0453 18.8805 20.9264 18.8892H18.7514C18.6006 18.8892 18.2845 18.85 17.9017 18.5861C17.6074 18.3802 17.3174 18.0424 17.0346 17.7132C16.6127 17.2231 16.2473 16.7997 15.879 16.7997C15.8322 16.7996 15.7857 16.807 15.7412 16.8215C15.4628 16.9114 15.1061 17.3087 15.1061 18.3672C15.1061 18.6978 14.8451 18.8877 14.661 18.8877H13.6648C13.3255 18.8877 11.558 18.7688 9.99197 17.1173C8.07507 15.0945 6.34957 11.0374 6.33507 10.9997C6.22632 10.7373 6.45107 10.5966 6.69612 10.5966H8.89287C9.18577 10.5966 9.28147 10.775 9.34817 10.933C9.42647 11.1172 9.71357 11.8494 10.1848 12.673C10.949 14.0157 11.4173 14.5609 11.7929 14.5609C11.8633 14.5601 11.9324 14.5422 11.9944 14.5087C12.4845 14.2361 12.3932 12.4889 12.3714 12.1264C12.3714 12.0582 12.37 11.3448 12.1191 11.0026C11.9393 10.7547 11.6334 10.6604 11.4478 10.6256C11.5229 10.522 11.6219 10.4379 11.7363 10.3806C12.0727 10.2124 12.6788 10.1877 13.2806 10.1877H13.6155C14.268 10.1964 14.4362 10.2385 14.6726 10.2979C15.1511 10.4125 15.1612 10.7213 15.1192 11.7784C15.1061 12.0785 15.0931 12.4178 15.0931 12.818C15.0931 12.905 15.0887 12.9978 15.0887 13.0964C15.0742 13.6344 15.0568 14.2448 15.4367 14.4957C15.4863 14.5267 15.5435 14.5433 15.602 14.5435C15.734 14.5435 16.1313 14.5435 17.2072 12.6977C17.539 12.1035 17.8273 11.4862 18.0699 10.8504C18.0917 10.8127 18.1555 10.6967 18.2309 10.6517C18.2865 10.6233 18.3482 10.6089 18.4107 10.6097H20.9931C21.2744 10.6097 21.4673 10.6517 21.5035 10.7605C21.5673 10.933 21.4919 11.4594 20.3131 13.0558L19.7867 13.7504C18.7181 15.1511 18.7181 15.2221 19.8534 16.285Z"
										fill="#40B3E0" />
								</svg>