<svg width="100" height="100" viewBox="0 0 100 100" fill="none" xmlns="http://www.w3.org/2000/svg">
<path d="M100 49.95C100 22.375 77.6 0 50 0C22.4 0 0 22.375 0 49.95C0 65.1375 6.9 78.825 17.7 88.0125C17.8 88.1125 17.9 88.1125 17.9 88.2125C18.8 88.9125 19.7 89.6125 20.7 90.3125C21.2 90.6125 21.6 91.0062 22.1 91.4062C30.3629 97.0085 40.1169 100.002 50.1 100C60.0831 100.002 69.8371 97.0085 78.1 91.4062C78.6 91.1062 79 90.7125 79.5 90.4062C80.4 89.7125 81.4 89.0125 82.3 88.3125C82.4 88.2125 82.5 88.2125 82.5 88.1125C93.1 78.8187 100 65.1375 100 49.95ZM50 93.7063C40.6 93.7063 32 90.7063 24.9 85.7125C25 84.9125 25.2 84.1188 25.4 83.3187C25.9959 81.1507 26.8698 79.0688 28 77.125C29.1 75.225 30.4 73.525 32 72.025C33.5 70.525 35.3 69.1312 37.1 68.0312C39 66.9313 41 66.1312 43.2 65.5312C45.4171 64.9336 47.7038 64.6331 50 64.6375C56.8166 64.5892 63.3827 67.204 68.3 71.925C70.6 74.225 72.4 76.925 73.7 80.0188C74.4 81.8188 74.9 83.7188 75.2 85.7125C67.8199 90.901 59.0215 93.692 50 93.7063ZM34.7 47.4562C33.8189 45.4389 33.3758 43.2575 33.4 41.0562C33.4 38.8625 33.8 36.6625 34.7 34.6625C35.6 32.6625 36.8 30.8687 38.3 29.3687C39.8 27.8687 41.6 26.675 43.6 25.775C45.6 24.875 47.8 24.475 50 24.475C52.3 24.475 54.4 24.875 56.4 25.775C58.4 26.675 60.2 27.875 61.7 29.3687C63.2 30.8687 64.4 32.6687 65.3 34.6625C66.2 36.6625 66.6 38.8625 66.6 41.0562C66.6 43.3562 66.2 45.4562 65.3 47.45C64.4314 49.4204 63.2115 51.2163 61.7 52.75C60.1658 54.2593 58.3699 55.4771 56.4 56.3438C52.2677 58.042 47.6323 58.042 43.5 56.3438C41.5301 55.4771 39.7342 54.2593 38.2 52.75C36.6863 51.2387 35.4956 49.4355 34.7 47.45V47.4562ZM81.1 80.6188C81.1 80.4188 81 80.3187 81 80.1188C80.0165 76.9901 78.5669 74.0276 76.7 71.3313C74.8314 68.6149 72.535 66.2193 69.9 64.2375C67.8876 62.7236 65.7064 61.4484 63.4 60.4375C64.4493 59.7453 65.4215 58.9428 66.3 58.0437C67.7909 56.5719 69.1002 54.9269 70.2 53.1438C72.4147 49.5051 73.5585 45.3156 73.5 41.0562C73.5309 37.9032 72.9184 34.777 71.7 31.8687C70.497 29.0665 68.7655 26.5222 66.6 24.375C64.4378 22.2502 61.893 20.5537 59.1 19.375C56.1869 18.1587 53.0566 17.5484 49.9 17.5812C46.7429 17.5504 43.6126 18.1628 40.7 19.3813C37.8828 20.5574 35.3319 22.2899 33.2 24.475C31.0753 26.6349 29.3787 29.1776 28.2 31.9687C26.9816 34.877 26.3691 38.0032 26.4 41.1562C26.4 43.3563 26.7 45.4562 27.3 47.45C27.9 49.55 28.7 51.45 29.8 53.2438C30.8 55.0438 32.2 56.6438 33.7 58.1438C34.6 59.0438 35.6 59.8375 36.7 60.5375C34.3865 61.5754 32.2045 62.8846 30.2 64.4375C27.6 66.4375 25.3 68.8313 23.4 71.4313C21.5141 74.1164 20.063 77.082 19.1 80.2188C19 80.4187 19 80.6188 19 80.7188C11.1 72.725 6.2 61.9375 6.2 49.95C6.2 25.875 25.9 6.19375 50 6.19375C74.1 6.19375 93.8 25.875 93.8 49.95C93.7869 61.4497 89.2207 72.4764 81.1 80.6188Z" fill="#E3E3E3"/>
</svg>
