<svg width="67" height="67" viewBox="0 0 67 67" fill="none" xmlns="http://www.w3.org/2000/svg">
<path d="M33.5 17.0389C30.2443 17.0389 27.0617 18.0044 24.3547 19.8131C21.6477 21.6219 19.5379 24.1928 18.292 27.2006C17.0461 30.2085 16.7201 33.5183 17.3552 36.7114C17.9904 39.9045 19.5582 42.8376 21.8603 45.1397C24.1624 47.4419 27.0955 49.0096 30.2886 49.6448C33.4817 50.2799 36.7915 49.954 39.7994 48.7081C42.8072 47.4622 45.3781 45.3523 47.1869 42.6453C48.9956 39.9383 49.9611 36.7557 49.9611 33.5C49.9562 29.1358 48.2204 24.9516 45.1344 21.8656C42.0484 18.7796 37.8643 17.0438 33.5 17.0389ZM33.5 48.1312C30.6067 48.1312 27.7785 47.2732 25.3728 45.6659C22.9671 44.0585 21.092 41.7739 19.9847 39.1009C18.8774 36.4279 18.5876 33.4866 19.1519 30.6489C19.7162 27.8112 21.1093 25.2045 23.155 23.1586C25.2007 21.1126 27.8071 19.7191 30.6447 19.1544C33.4824 18.5897 36.4237 18.8791 39.0968 19.986C41.77 21.093 44.0549 22.9677 45.6626 25.3731C47.2703 27.7786 48.1286 30.6068 48.129 33.5C48.1247 37.3786 46.5821 41.097 43.8395 43.8396C41.097 46.5821 37.3785 48.1248 33.5 48.1291V48.1312Z" fill="#3CB3FF"/>
<path d="M57.2593 37.3237C58.3287 36.2517 59.541 35.0368 59.541 33.5C59.541 31.9632 58.3287 30.7483 57.2593 29.6789C56.5401 28.9581 55.7969 28.2133 55.6257 27.5731C55.4415 26.8843 55.7189 25.8353 55.9869 24.8204C56.3847 23.3155 56.7956 21.7588 56.0549 20.479C55.3027 19.1793 53.735 18.7563 52.2187 18.3475C51.2173 18.0774 50.1814 17.7979 49.6931 17.3096C49.2047 16.8212 48.9257 15.7858 48.6556 14.784C48.2468 13.266 47.8239 11.7004 46.5247 10.9482C45.2438 10.2076 43.6871 10.6185 42.1802 11.0157C41.1652 11.2837 40.1152 11.5601 39.4274 11.3769C38.7867 11.2058 38.0424 10.4625 37.3216 9.74327C36.2517 8.67127 35.0368 7.45898 33.5 7.45898C31.9632 7.45898 30.7488 8.67127 29.6789 9.74065C28.9581 10.4599 28.2133 11.2031 27.5731 11.3743C26.8843 11.5575 25.8348 11.2811 24.8198 11.0131C23.3139 10.6153 21.7583 10.2039 20.4779 10.9451C19.1782 11.6973 18.7558 13.265 18.3465 14.7814C18.0769 15.7827 17.7974 16.8191 17.309 17.3069C16.8207 17.7948 15.7853 18.0743 14.7834 18.3444C13.2655 18.7532 11.6994 19.1761 10.9477 20.4758C10.207 21.7556 10.6179 23.3123 11.0152 24.8172C11.2832 25.8322 11.5606 26.8817 11.3764 27.5705C11.2016 28.2133 10.4599 28.9555 9.74117 29.6789C8.67127 30.7509 7.45898 31.9658 7.45898 33.5026C7.45898 35.0394 8.67127 36.2543 9.74117 37.3263C10.4599 38.0471 11.2031 38.792 11.3743 39.4321C11.5585 40.121 11.2811 41.1699 11.0131 42.1854C10.6158 43.6903 10.2044 45.2465 10.9456 46.5263C11.6973 47.826 13.265 48.2489 14.7814 48.6577C15.7827 48.9278 16.8186 49.2073 17.3064 49.6957C17.7943 50.1841 18.0743 51.2199 18.3444 52.2213C18.7532 53.7392 19.1761 55.3048 20.4758 56.057C21.7556 56.7982 23.3129 56.3868 24.8177 55.9895C25.8322 55.7215 26.8806 55.4436 27.5705 55.6283C28.2112 55.7995 28.956 56.5428 29.6768 57.262C30.7488 58.3314 31.9632 59.5436 33.4979 59.5436C35.0326 59.5436 36.2496 58.3314 37.3216 57.262C38.0424 56.5428 38.7872 55.7995 39.4274 55.6283C40.1157 55.4441 41.1663 55.7215 42.1802 55.9895C43.6856 56.3878 45.2412 56.7987 46.5216 56.0575C47.8213 55.3054 48.2442 53.7377 48.653 52.2213C48.9231 51.2199 49.2026 50.1841 49.691 49.6957C50.1793 49.2073 51.2147 48.9283 52.2166 48.6582C53.7345 48.2494 55.3001 47.8265 56.0523 46.5273C56.7935 45.247 56.3826 43.6903 55.9848 42.1828C55.7163 41.1678 55.4394 40.1189 55.6236 39.43C55.7984 38.7867 56.5401 38.0445 57.2593 37.3237ZM54.2156 42.6497C54.5181 43.796 54.8311 44.9811 54.4689 45.6066C54.0957 46.2515 52.8986 46.5749 51.7418 46.8864C50.5075 47.2193 49.2319 47.5632 48.3976 48.3976C47.5632 49.2319 47.2188 50.5075 46.8864 51.7418C46.5723 52.8991 46.2515 54.0973 45.6066 54.4694C44.9785 54.8317 43.796 54.5176 42.6502 54.2156C41.4044 53.8863 40.1157 53.5471 38.9563 53.856C37.8424 54.1533 36.9207 55.073 36.0298 55.9623C35.1687 56.8212 34.2789 57.709 33.5 57.709C32.7211 57.709 31.8313 56.8191 30.9707 55.9623C30.0809 55.0724 29.1581 54.1533 28.0437 53.856C27.7203 53.7722 27.3874 53.7312 27.0533 53.734C26.1355 53.7802 25.2271 53.942 24.3498 54.2156C23.204 54.5176 22.0184 54.8301 21.3934 54.4689C20.748 54.0957 20.4251 52.8986 20.1131 51.7418C19.7807 50.5075 19.4368 49.2319 18.6024 48.3976C17.7681 47.5632 16.4919 47.2188 15.2582 46.8864C14.1009 46.5723 12.9027 46.2515 12.5311 45.6066C12.1689 44.9785 12.4819 43.796 12.7844 42.6502C13.1137 41.4044 13.4544 40.1157 13.144 38.9563C12.8462 37.8424 11.927 36.9207 11.0377 36.0298C10.1793 35.1687 9.29102 34.2789 9.29102 33.5C9.29102 32.7211 10.1809 31.8313 11.0377 30.9702C11.9276 30.0804 12.8462 29.1576 13.144 28.0437C13.4544 26.8843 13.1137 25.5956 12.7844 24.3493C12.4819 23.2035 12.1694 22.0189 12.5311 21.3934C12.9043 20.7485 14.1014 20.4251 15.2582 20.1136C16.4925 19.7807 17.7707 19.4368 18.6024 18.6024C19.4342 17.7681 19.7812 16.4925 20.1136 15.2582C20.4277 14.1009 20.7485 12.9027 21.3934 12.5306C22.0179 12.1684 23.2035 12.4819 24.3498 12.7844C25.5961 13.1142 26.8853 13.4539 28.0437 13.144C29.1581 12.8467 30.0793 11.927 30.9707 11.0377C31.8313 10.1788 32.7211 9.29102 33.5 9.29102C34.2789 9.29102 35.1687 10.1809 36.0298 11.0377C36.9196 11.9276 37.8424 12.8467 38.9563 13.144C40.1157 13.4539 41.4044 13.1142 42.6497 12.7844C43.796 12.4824 44.9806 12.1689 45.6066 12.5311C46.2515 12.9043 46.5749 14.1014 46.8864 15.2582C47.2193 16.4925 47.5632 17.7707 48.3976 18.6024C49.2319 19.4342 50.5075 19.7812 51.7418 20.1136C52.8991 20.4277 54.0973 20.7485 54.4694 21.3934C54.8311 22.0215 54.5181 23.204 54.2156 24.3498C53.8863 25.5956 53.5461 26.8843 53.856 28.0437C54.1533 29.1576 55.073 30.0793 55.9623 30.9702C56.8212 31.8313 57.709 32.7211 57.709 33.5C57.709 34.2789 56.8191 35.1687 55.9623 36.0298C55.0724 36.9196 54.1533 37.8424 53.856 38.9563C53.5477 40.1152 53.8863 41.4039 54.2156 42.6497Z" fill="#3CB3FF"/>
<path d="M40.6559 26.1039C40.2605 26.1028 39.8689 26.1802 39.5036 26.3316C39.1384 26.483 38.8068 26.7054 38.5281 26.9859L31.8831 33.6299L28.4719 30.2186C28.1932 29.9357 27.8612 29.7107 27.4952 29.5567C27.1291 29.4026 26.7362 29.3225 26.3391 29.321C25.9419 29.3195 25.5484 29.3966 25.1812 29.5479C24.814 29.6991 24.4804 29.9216 24.1995 30.2024C23.9187 30.4832 23.6962 30.8168 23.5449 31.184C23.3936 31.5512 23.3164 31.9447 23.3179 32.3418C23.3193 32.739 23.3994 33.1319 23.5534 33.498C23.7074 33.864 23.9324 34.196 24.2153 34.4747L29.7548 40.0142C30.0342 40.2939 30.366 40.5157 30.7312 40.667C31.0964 40.8184 31.4878 40.8963 31.8831 40.8963C32.2784 40.8963 32.6698 40.8184 33.035 40.667C33.4002 40.5157 33.732 40.2939 34.0114 40.0142L42.7842 31.2425C43.2051 30.8215 43.4917 30.2852 43.6078 29.7013C43.7239 29.1174 43.6643 28.5123 43.4365 27.9623C43.2087 27.4123 42.823 26.9422 42.328 26.6114C41.8331 26.2806 41.2512 26.104 40.6559 26.1039ZM41.4892 29.9464L32.7148 38.7193C32.4904 38.9332 32.1922 39.0526 31.8821 39.0526C31.572 39.0526 31.2737 38.9332 31.0493 38.7193L25.5108 33.1797C25.4014 33.0704 25.3147 32.9405 25.2555 32.7976C25.1963 32.6547 25.1658 32.5016 25.1658 32.3469C25.1658 32.1923 25.1963 32.0391 25.2555 31.8962C25.3147 31.7533 25.4014 31.6235 25.5108 31.5141C25.6201 31.4048 25.75 31.318 25.8929 31.2588C26.0358 31.1997 26.1889 31.1692 26.3436 31.1692C26.4982 31.1692 26.6514 31.1997 26.7943 31.2588C26.9372 31.318 27.067 31.4048 27.1764 31.5141L31.2356 35.5729C31.3206 35.658 31.4215 35.7255 31.5326 35.7716C31.6437 35.8177 31.7628 35.8414 31.8831 35.8414C32.0034 35.8414 32.1225 35.8177 32.2336 35.7716C32.3447 35.7255 32.4456 35.658 32.5306 35.5729L39.8242 28.2803C40.0483 28.0658 40.3465 27.9461 40.6567 27.9461C40.9669 27.9461 41.2651 28.0658 41.4892 28.2803C41.5986 28.3897 41.6853 28.5195 41.7445 28.6623C41.8037 28.8051 41.8341 28.9583 41.8341 29.1129C41.8341 29.2675 41.8037 29.4206 41.7445 29.5634C41.6853 29.7063 41.5986 29.8361 41.4892 29.9454V29.9464Z" fill="#3CB3FF"/>
</svg>
