<svg width="48" height="48" viewBox="0 0 48 48" fill="none" xmlns="http://www.w3.org/2000/svg">
<path d="M47.8409 40.9519C47.794 39.1347 47.0249 37.4634 45.6751 36.2458L30.8671 22.8897L43.96 9.79677C44.0461 9.77109 44.1311 9.73912 44.2132 9.69581L47.0485 8.19937C47.4401 7.99256 47.7028 7.62262 47.7689 7.18471C47.8351 6.74671 47.6935 6.31584 47.3802 6.00234L44.1879 2.81005C43.8745 2.49684 43.444 2.35518 43.0056 2.42137C42.5677 2.48746 42.1978 2.75015 41.9909 3.14193L40.4944 5.97702C40.4507 6.05981 40.4171 6.1454 40.3914 6.2323L34.2114 12.4123C33.9241 12.6997 33.9241 13.1652 34.2114 13.4526C34.4987 13.7396 34.9643 13.7396 35.2516 13.4526L40.9227 7.78134L42.409 9.26756L27.9058 23.7707L26.4196 22.2845L32.7501 15.9541C33.0373 15.6667 33.0373 15.2012 32.7501 14.9138C32.4627 14.6268 31.9972 14.6268 31.7098 14.9138L27.1166 19.507L22.1177 14.9982C23.535 10.9186 22.5086 6.37968 19.4341 3.30524C16.2849 0.156084 11.5607 -0.84751 7.39838 0.748772C7.16579 0.838022 6.99413 1.03883 6.94238 1.28249C6.89063 1.52615 6.96554 1.77946 7.14169 1.95562L12.9159 7.72996C13.0868 7.90077 13.181 8.12793 13.181 8.36952C13.181 8.61112 13.0868 8.83827 12.9159 9.00918L9.16604 12.7591C8.99522 12.93 8.76807 13.0241 8.52647 13.0241C8.28488 13.0241 8.05772 12.9301 7.88682 12.7591L2.11247 6.98474C1.93622 6.80859 1.6831 6.73368 1.43935 6.78543C1.19569 6.83727 0.994879 7.00884 0.905629 7.24143C-0.690652 11.4036 0.312942 16.1278 3.46219 19.2772C6.46135 22.2762 10.9123 23.3321 14.9277 22.0347L18.7928 26.2613C18.607 26.6242 18.3655 26.9626 18.0677 27.2604C16.9536 28.3746 15.2838 28.7256 13.8133 28.1548C13.5415 28.0491 13.2332 28.1141 13.0269 28.3203L4.02141 37.3258C1.58354 39.7638 1.58354 43.7305 4.02141 46.1683C5.20257 47.3497 6.77279 48 8.44294 48C10.113 48 11.6833 47.3497 12.8643 46.1687L21.8698 37.1633C22.0759 36.9571 22.1409 36.6487 22.0353 36.3769C21.4644 34.9065 21.8154 33.2365 22.9295 32.1224C24.0438 31.0083 25.7137 30.6573 27.184 31.228C27.456 31.3338 27.7642 31.2685 27.9704 31.0626L29.6692 29.3638C30.1807 28.8523 30.4623 28.1722 30.4623 27.4489C30.4623 26.7256 30.1807 26.0454 29.6692 25.5339L28.9461 24.8108L29.8257 23.9312L44.69 37.3381C45.7374 38.2828 46.3343 39.5798 46.3705 40.9898C46.4068 42.3998 45.8775 43.7257 44.8801 44.723C43.8875 45.7158 42.5649 46.2442 41.1642 46.2139C39.7607 46.1826 38.466 45.5948 37.5187 44.5587L26.4666 32.4729C26.1922 32.173 25.7272 32.1524 25.4274 32.4265C25.1277 32.7008 25.1069 33.1659 25.381 33.4657L36.433 45.5514C37.654 46.8865 39.3226 47.644 41.1313 47.6844C41.1819 47.6856 41.2325 47.6861 41.283 47.6861C43.035 47.6861 44.6767 47.0065 45.9203 45.7631C47.2056 44.4777 47.8876 42.769 47.8409 40.9519ZM41.8265 6.60468L43.2345 3.93712L46.2532 6.95577L43.5856 8.36381L41.8265 6.60468ZM15.6866 20.6849C15.4841 20.4637 15.1678 20.3873 14.8868 20.4922C11.2902 21.8337 7.21379 20.9485 4.50225 18.2373C2.04019 15.7751 1.08619 12.2057 1.92685 8.87962L6.84657 13.7993C7.29535 14.248 7.89188 14.4951 8.52638 14.4951C9.16088 14.4951 9.75741 14.248 10.2061 13.7993L13.956 10.0494C14.4047 9.60065 14.6517 9.00412 14.6517 8.36962C14.6517 7.73512 14.4047 7.13859 13.956 6.6899L9.03638 1.76999C12.3622 0.928959 15.932 1.88324 18.3939 4.3454C21.1745 7.12574 22.0289 11.2832 20.571 14.9371C20.4569 15.2229 20.5329 15.5497 20.7615 15.7558L26.0752 20.5485L25.3794 21.2443L24.6563 20.5212C24.1448 20.0097 23.4646 19.7281 22.7413 19.7281C22.018 19.7281 21.3379 20.0097 20.8264 20.5212L19.1276 22.22C18.9216 22.4261 18.8566 22.7346 18.9622 23.0063C19.1578 23.5103 19.2427 24.0373 19.2281 24.5577L15.6866 20.6849ZM28.6288 28.3237L27.2524 29.7002C25.3594 29.1545 23.2995 29.6722 21.8894 31.0822H21.8893C20.4793 32.4923 19.9615 34.5518 20.5074 36.4452L11.8241 45.1284C10.9209 46.0315 9.72019 46.529 8.44304 46.529C7.16588 46.529 5.96494 46.0315 5.06194 45.1284C3.19754 43.264 3.19754 40.2305 5.06194 38.3661L13.7452 29.6828C15.6384 30.2288 17.6979 29.7108 19.1081 28.3008C20.5181 26.8907 21.036 24.8311 20.4901 22.9378L21.8666 21.5614C22.3489 21.0789 23.1339 21.0789 23.6161 21.5614L24.8593 22.8046L27.3856 25.3309L28.6288 26.5741C29.1113 27.0565 29.1113 27.8414 28.6288 28.3237Z" fill="#3CB3FF"/>
</svg>
