<svg width="55" height="55" viewBox="0 0 55 55" fill="none" xmlns="http://www.w3.org/2000/svg">
<path d="M9.75807 13.3235C11.1732 13.3235 12.3247 12.172 12.3247 10.7569C12.3247 9.3417 11.1732 8.19019 9.75807 8.19019C8.34292 8.19019 7.19141 9.3417 7.19141 10.7569C7.19141 12.172 8.34311 13.3235 9.75807 13.3235ZM9.75807 9.65685C10.3647 9.65685 10.8581 10.1502 10.8581 10.7569C10.8581 11.3635 10.3647 11.8569 9.75807 11.8569C9.15142 11.8569 8.65807 11.3635 8.65807 10.7569C8.65807 10.1502 9.1516 9.65685 9.75807 9.65685Z" fill="#3CB3FF"/>
<path d="M49.3581 6.25977C48.8996 6.25977 48.5276 6.63156 48.5276 7.09026C48.5276 7.54878 48.8994 7.92058 49.3581 7.92058C49.8168 7.92058 50.1886 7.54878 50.1886 7.09026C50.1886 6.63156 49.8168 6.25977 49.3581 6.25977Z" fill="#3CB3FF"/>
<path d="M40.5904 8.95586C40.8767 8.66949 40.8767 8.20529 40.5904 7.91893L39.7617 7.09026L40.5904 6.26159C40.8767 5.97523 40.8767 5.51103 40.5904 5.22466C40.304 4.9383 39.8398 4.9383 39.5534 5.22466L38.7248 6.05333L37.8961 5.22466C37.6097 4.9383 37.1455 4.9383 36.8592 5.22466C36.5728 5.51103 36.5728 5.97523 36.8592 6.26159L37.6878 7.09026L36.8592 7.91893C36.5728 8.20529 36.5728 8.66949 36.8592 8.95586C37.0024 9.09904 37.1901 9.17073 37.3776 9.17073C37.5652 9.17073 37.7529 9.09904 37.8961 8.95586L38.7248 8.12719L39.5534 8.95586C39.6966 9.09904 39.8844 9.17073 40.0719 9.17073C40.2595 9.17073 40.4472 9.09904 40.5904 8.95586Z" fill="#3CB3FF"/>
<path d="M35.0359 36.2749L32.1574 34.9664L29.1914 33.6182V33.0055C31.9964 31.6637 34.129 29.1658 34.9943 26.1553C35.4677 26.1736 35.9302 26.0368 36.3735 25.7607C37.0542 25.3369 37.5144 24.6457 37.605 23.9124C37.6952 23.1776 37.4682 22.4407 36.9813 21.8904C36.6602 21.5274 36.2456 21.27 35.7905 21.1341C35.7905 21.1341 35.7782 20.5733 35.7766 20.5264C36.6361 20.2268 37.2581 19.417 37.2581 18.4569C37.2581 17.8092 36.9716 17.2321 36.5248 16.8291V16.6236C36.5248 10.7606 31.7544 5.99023 25.8914 5.99023H25.1581C19.2951 5.99023 14.5248 10.7606 14.5248 16.6236V16.8291C14.078 17.2321 13.7914 17.8092 13.7914 18.4569C13.7914 19.67 14.7783 20.6569 15.9914 20.6569H16.0418C16.0453 20.8377 16.0473 20.9964 16.0473 21.113C15.6066 21.2326 15.2047 21.4693 14.8779 21.8077C14.3898 22.3133 14.1348 22.9794 14.1596 23.6836C14.1878 24.468 14.6329 25.2254 15.3505 25.7099C15.8042 26.0161 16.2694 26.1683 16.7526 26.1571C17.5195 28.9595 19.3798 31.311 21.8616 32.7389C21.8614 32.7452 21.8579 32.7503 21.8579 32.7567V33.6178L18.8916 34.9664C18.8914 34.9664 18.8912 34.9668 18.891 34.9668L16.0134 36.2743C13.3272 37.4953 11.5912 40.2232 11.5912 43.2245V49.2565C11.5912 49.6615 11.9196 49.9899 12.3246 49.9899H38.7246C39.1296 49.9899 39.4579 49.6615 39.4579 49.2565V43.2245C39.4581 40.2233 37.7223 37.4955 35.0359 36.2749ZM28.9533 35.1208L30.9003 36.0061L29.0268 40.4316L26.7813 37.2878C27.7873 36.9177 28.5813 36.1257 28.9533 35.1208ZM34.2716 20.6569C34.27 20.7797 34.2687 20.8978 34.2683 21.0007C30.949 22.8325 27.5412 21.7994 25.3185 20.6569H34.2716ZM25.1581 7.4569H25.8914C30.8222 7.4569 34.8449 11.3731 35.0396 16.2569H16.0101C16.2046 11.3729 20.2273 7.4569 25.1581 7.4569ZM15.2581 18.4569C15.2581 18.0527 15.5872 17.7236 15.9914 17.7236H35.0581C35.4624 17.7236 35.7914 18.0527 35.7914 18.4569C35.7914 18.8612 35.4624 19.1902 35.0581 19.1902H15.9914C15.5872 19.1902 15.2581 18.8612 15.2581 18.4569ZM18.0246 25.1733C17.9824 24.9674 17.8541 24.7894 17.6719 24.6849C17.49 24.5801 17.2726 24.5588 17.0724 24.6255C16.7895 24.721 16.5277 24.7355 16.1707 24.4944C15.8457 24.2746 15.6365 23.9437 15.6253 23.6315C15.6145 23.329 15.7238 23.0432 15.9329 22.8265C16.1425 22.6094 16.4235 22.4902 16.7246 22.4902C16.9226 22.4902 17.1206 22.4061 17.2588 22.264C17.3129 22.2083 17.3562 22.1535 17.3915 22.0865C17.4311 22.0931 17.4698 22.1065 17.5102 22.1065C17.5729 22.1065 17.6359 22.0986 17.6973 22.0821C18.5036 21.8691 19.3627 21.4075 20.2504 20.7108C20.2697 20.6956 20.2789 20.6738 20.2963 20.6571H22.5172C23.7717 21.5683 26.825 23.4769 30.3882 23.4769C31.788 23.4769 33.266 23.179 34.7424 22.4123C34.8418 22.4594 34.9481 22.4904 35.0579 22.4904C35.3731 22.4904 35.6734 22.6257 35.8826 22.862C36.0941 23.1017 36.1887 23.4109 36.1489 23.7336C36.1124 24.0315 35.9062 24.3241 35.5982 24.5161C35.2895 24.7088 35.0279 24.7392 34.6947 24.6213C34.4967 24.5515 34.2776 24.5694 34.0939 24.6721C33.9102 24.7746 33.7792 24.9509 33.7344 25.1566C33.0198 28.4352 30.5963 31.1135 27.4102 32.1462L27.084 32.2518C26.1864 32.5426 25.2303 32.5543 24.3927 32.2852C21.1502 31.2407 18.7101 28.5159 18.0246 25.1733ZM23.9435 33.6811C24.4988 33.8598 25.0772 33.9489 25.6626 33.9489C26.285 33.9489 26.9155 33.8479 27.5361 33.6472L27.7248 33.5861V33.8571C27.7248 35.0702 26.7379 36.0571 25.5248 36.0571C24.3116 36.0571 23.3248 35.0702 23.3248 33.8571V33.438C23.5314 33.5185 23.7308 33.6125 23.9435 33.6811ZM22.0964 35.1206C22.4684 36.1255 23.2624 36.9177 24.2684 37.2876L22.0229 40.4314L20.1494 36.0059L22.0964 35.1206ZM13.0581 43.2247C13.0581 40.7974 14.4564 38.5933 16.6203 37.6097L18.8137 36.6128L21.1829 42.2092C21.2863 42.4538 21.5138 42.6232 21.7776 42.6525C21.8047 42.6554 21.8317 42.6567 21.8581 42.6567C22.0933 42.6567 22.3164 42.5436 22.455 42.3495L24.7914 39.0784V48.5234H18.1914V45.5901C18.1914 45.1851 17.8631 44.8567 17.4581 44.8567C17.0531 44.8567 16.7248 45.1851 16.7248 45.5901V48.5234H13.0581V43.2247ZM37.9914 48.5236H35.0581V45.5902C35.0581 45.1853 34.7297 44.8569 34.3248 44.8569C33.9198 44.8569 33.5914 45.1853 33.5914 45.5902V48.5236H26.2581V39.0786L28.5945 42.3496C28.7331 42.5438 28.9562 42.6569 29.1914 42.6569C29.218 42.6569 29.2448 42.6554 29.2719 42.6527C29.5357 42.6234 29.7632 42.454 29.8666 42.2094L32.2359 36.6131L34.4293 37.6103C36.5932 38.5935 37.9914 40.7975 37.9914 43.2249V48.5236Z" fill="#3CB3FF"/>
<path d="M29.5581 25.4236C29.9631 25.4236 30.2914 25.0953 30.2914 24.6902C30.2914 24.2852 29.9631 23.9569 29.5581 23.9569C29.1531 23.9569 28.8248 24.2852 28.8248 24.6902C28.8248 25.0953 29.1531 25.4236 29.5581 25.4236Z" fill="#3CB3FF"/>
<path d="M22.2248 25.4236C22.6298 25.4236 22.9581 25.0953 22.9581 24.6902C22.9581 24.2852 22.6298 23.9569 22.2248 23.9569C21.8198 23.9569 21.4915 24.2852 21.4915 24.6902C21.4915 25.0953 21.8198 25.4236 22.2248 25.4236Z" fill="#3CB3FF"/>
<path d="M24.2161 13.2583L25.1066 13.2873L24.1391 14.2745C23.8559 14.5635 23.8605 15.0278 24.1499 15.3115C24.2924 15.4512 24.4779 15.521 24.6631 15.521C24.8532 15.521 25.0433 15.4477 25.1869 15.3008L27.3223 13.1215C27.5257 12.9138 27.5873 12.6056 27.4791 12.3352C27.3706 12.0652 27.1132 11.8848 26.822 11.8754L25.7292 11.84L26.8138 10.4876C27.067 10.1717 27.0164 9.71026 26.7003 9.45671C26.3851 9.20389 25.923 9.25431 25.6694 9.57019L23.6674 12.0666C23.4938 12.2833 23.4573 12.5794 23.5732 12.8319C23.6898 13.0843 23.9382 13.2495 24.2161 13.2583Z" fill="#3CB3FF"/>
<path d="M47.049 14.7622C46.9232 14.518 46.6715 14.3644 46.3969 14.3644H45.1627L46.0618 9.41822C46.1245 9.0741 45.9351 8.73329 45.6091 8.60495C45.2826 8.47497 44.9123 8.5956 44.7232 8.89077L39.969 16.2861C39.824 16.5116 39.8136 16.7985 39.9423 17.0337C40.0708 17.2693 40.3179 17.4158 40.5861 17.4158H42.1802L40.425 22.2422C40.2996 22.5867 40.4483 22.971 40.7726 23.1416C40.8811 23.1988 40.9981 23.2262 41.1138 23.2262C41.344 23.2262 41.5688 23.1176 41.7107 22.9189L46.9933 15.5236C47.1531 15.3005 47.1746 15.0066 47.049 14.7622ZM43.6383 17.6977L43.9166 16.9332C43.9982 16.7083 43.9653 16.4577 43.8278 16.2619C43.6907 16.0661 43.4665 15.9493 43.2274 15.9493H41.9294L43.9575 12.7947L43.5626 14.9668C43.5235 15.1806 43.5818 15.4008 43.7211 15.5676C43.8605 15.7344 44.0667 15.8312 44.284 15.8312H44.9718L43.6383 17.6977Z" fill="#3CB3FF"/>
<path d="M11.5914 36.5235C11.6835 36.4147 11.7533 36.2855 11.7695 36.1342L11.9335 34.5838C11.9812 34.1366 12.162 33.7559 12.4419 33.5113C13.4141 32.6637 13.9717 31.4488 13.9717 30.1779C13.9717 27.7108 11.917 25.7039 9.39162 25.7039C6.8662 25.7039 4.81158 27.7108 4.81158 30.1779C4.81158 31.4488 5.3691 32.6637 6.34132 33.5113C6.62127 33.7559 6.80222 34.1365 6.84934 34.5834L7.0136 36.1342C7.02974 36.2855 7.0994 36.4147 7.19162 36.5235V37.5235C7.19162 38.7367 8.1785 39.7235 9.39162 39.7235C10.6047 39.7235 11.5916 38.7367 11.5916 37.5235V36.5235H11.5914ZM6.27807 30.1779C6.27807 28.5197 7.67489 27.1705 9.39144 27.1705C11.108 27.1705 12.5048 28.5197 12.5048 30.1779C12.5048 31.0247 12.1306 31.8369 11.4778 32.4062C10.9181 32.8942 10.5618 33.6125 10.4748 34.4285L10.3802 35.3234H10.1244V31.9605L11.3762 30.7087C11.6626 30.4223 11.6626 29.9581 11.3762 29.6717C11.0898 29.3854 10.6256 29.3854 10.3393 29.6717L9.32617 30.6848L8.47752 29.709C8.21187 29.4035 7.74914 29.3705 7.44297 29.6369C7.13754 29.9026 7.1049 30.3657 7.37092 30.6715L8.65755 32.151V35.3235H8.4018L8.30684 34.4283C8.22012 33.6127 7.8639 32.8944 7.30419 32.4063C6.65225 31.8369 6.27807 31.0249 6.27807 30.1779ZM10.1248 37.5235C10.1248 37.9278 9.79569 38.2569 9.39144 38.2569C8.98719 38.2569 8.6581 37.9278 8.6581 37.5235V36.7902H10.1248V37.5235Z" fill="#3CB3FF"/>
<path d="M47.5247 37.5236H46.0581V31.2272L48.0432 29.2421C48.2506 29.0347 48.3145 28.7236 48.2058 28.4512L46.7392 24.7845C46.6275 24.5062 46.3578 24.3236 46.0581 24.3236H44.5914C44.2917 24.3236 44.0222 24.5062 43.9103 24.7845L42.4437 28.4512C42.3344 28.7247 42.3993 29.0373 42.6083 29.2446L44.5912 31.2096V37.5236H43.1246C42.7196 37.5236 42.3912 37.852 42.3912 38.2569V47.057C42.3912 48.6743 43.7072 49.9903 45.3246 49.9903C46.9419 49.9903 48.2579 48.6743 48.2579 47.057V38.2569C48.2581 37.852 47.9297 37.5236 47.5247 37.5236ZM45.0881 25.7903H45.5614L46.6644 28.5471L45.3323 29.8788L43.9862 28.545L45.0881 25.7903ZM46.7914 47.057C46.7914 47.8658 46.1336 48.5236 45.3247 48.5236C44.5159 48.5236 43.8581 47.8658 43.8581 47.057V38.9903H46.7914V47.057Z" fill="#3CB3FF"/>
<path d="M32.1247 44.1237H28.4581C28.0531 44.1237 27.7247 44.452 27.7247 44.857C27.7247 45.262 28.0531 45.5903 28.4581 45.5903H32.1247C32.5297 45.5903 32.8581 45.262 32.8581 44.857C32.8581 44.452 32.5297 44.1237 32.1247 44.1237Z" fill="#3CB3FF"/>
</svg>
