<svg width="50" height="50" viewBox="0 0 50 50" fill="none" xmlns="http://www.w3.org/2000/svg">
<path d="M42.6777 7.32227C37.9558 2.60039 31.6777 0 25 0C18.3223 0 12.0442 2.60039 7.32227 7.32227C2.60029 12.0441 0 18.3223 0 25C0 31.6777 2.60039 37.9558 7.32227 42.6777C12.0441 47.3997 18.3223 50 25 50C31.6777 50 37.9558 47.3996 42.6777 42.6777C47.3997 37.9559 50 31.6777 50 25C50 18.3223 47.3996 12.0442 42.6777 7.32227ZM41.5728 41.5728C37.1461 45.9996 31.2604 48.4375 25 48.4375C18.7396 48.4375 12.8539 45.9996 8.42715 41.5728C4.00039 37.1461 1.5625 31.2604 1.5625 25C1.5625 18.7396 4.00039 12.8539 8.42715 8.42715C12.8539 4.00039 18.7396 1.5625 25 1.5625C31.2604 1.5625 37.1461 4.00039 41.5728 8.42715C45.9996 12.8539 48.4375 18.7396 48.4375 25C48.4375 31.2604 45.9996 37.1461 41.5728 41.5728Z" fill="#3CB3FF"/>
<path d="M4.6875 25C4.6875 13.7997 13.7997 4.6875 25 4.6875C29.0398 4.6875 32.942 5.87021 36.2847 8.10781C36.6432 8.34785 37.1284 8.25176 37.3685 7.89316C37.6085 7.53467 37.5124 7.04941 37.1538 6.80937C33.5531 4.39902 29.3504 3.125 25 3.125C19.1569 3.125 13.6637 5.40039 9.53203 9.53203C5.40039 13.6637 3.125 19.1569 3.125 25C3.125 30.3906 5.10293 35.5695 8.69453 39.5828C8.84883 39.7553 9.0625 39.8431 9.27695 39.8431C9.4624 39.8431 9.64863 39.7774 9.79766 39.6439C10.1191 39.3562 10.1466 38.8623 9.85879 38.5408C6.52412 34.8145 4.6875 30.0056 4.6875 25Z" fill="#3CB3FF"/>
<path d="M43.1907 12.8464C42.9507 12.4878 42.4654 12.3917 42.1069 12.6318C41.7484 12.8718 41.6523 13.3571 41.8923 13.7156C44.1298 17.0581 45.3125 20.9603 45.3125 25C45.3125 36.2003 36.2003 45.3125 25 45.3125C20.3532 45.3125 15.8109 43.7032 12.2101 40.7812C11.875 40.5093 11.383 40.5605 11.1111 40.8955C10.8393 41.2306 10.8904 41.7226 11.2255 41.9945C15.1039 45.1417 19.9958 46.875 25 46.875C30.8431 46.875 36.3363 44.5996 40.468 40.468C44.5996 36.3364 46.875 30.8431 46.875 25C46.875 20.6497 45.601 16.447 43.1907 12.8464Z" fill="#3CB3FF"/>
<path d="M38.5408 9.85892C39.0661 10.3289 39.5726 10.832 40.0461 11.3538C40.2003 11.5238 40.4122 11.6101 40.6249 11.6101C40.8121 11.6101 41.0001 11.5431 41.1497 11.4074C41.4691 11.1174 41.4932 10.6233 41.2032 10.3037C40.6934 9.74203 40.1482 9.20062 39.5828 8.69456C39.2613 8.40687 38.7674 8.43421 38.4797 8.7557C38.192 9.07718 38.2192 9.57113 38.5408 9.85892Z" fill="#3CB3FF"/>
<path d="M25 10.1562C25.4314 10.1562 25.7812 9.80645 25.7812 9.375V7.03125C25.7812 6.5998 25.4314 6.25 25 6.25C24.5686 6.25 24.2188 6.5998 24.2188 7.03125V9.375C24.2188 9.80645 24.5686 10.1562 25 10.1562Z" fill="#3CB3FF"/>
<path d="M24.2188 40.625V42.9688C24.2188 43.4002 24.5686 43.75 25 43.75C25.4314 43.75 25.7812 43.4002 25.7812 42.9688V40.625C25.7812 40.1936 25.4314 39.8438 25 39.8438C24.5686 39.8438 24.2188 40.1936 24.2188 40.625Z" fill="#3CB3FF"/>
<path d="M10.1562 25C10.1562 24.5686 9.80645 24.2188 9.375 24.2188H7.03125C6.5998 24.2188 6.25 24.5686 6.25 25C6.25 25.4314 6.5998 25.7812 7.03125 25.7812H9.375C9.80645 25.7812 10.1562 25.4314 10.1562 25Z" fill="#3CB3FF"/>
<path d="M39.8438 25C39.8438 25.4314 40.1936 25.7812 40.625 25.7812H42.9688C43.4002 25.7812 43.75 25.4314 43.75 25C43.75 24.5686 43.4002 24.2188 42.9688 24.2188H40.625C40.1936 24.2188 39.8438 24.5686 39.8438 25Z" fill="#3CB3FF"/>
<path d="M17.8641 11.0777L16.6922 9.04793C16.4765 8.6742 15.9986 8.54637 15.625 8.76199C15.2514 8.97772 15.1233 9.45555 15.3391 9.82918L16.5109 11.859C16.6557 12.1096 16.9183 12.2497 17.1883 12.2497C17.3208 12.2497 17.4552 12.2159 17.5782 12.1449C17.9518 11.9292 18.0798 11.4514 17.8641 11.0777Z" fill="#3CB3FF"/>
<path d="M33.4891 38.141C33.2733 37.7674 32.7954 37.6395 32.4219 37.8551C32.0482 38.0708 31.9202 38.5486 32.1359 38.9223L33.3078 40.952C33.4525 41.2026 33.7151 41.3428 33.9852 41.3428C34.1177 41.3428 34.2521 41.309 34.3751 41.238C34.7487 41.0222 34.8768 40.5444 34.661 40.1708L33.4891 38.141Z" fill="#3CB3FF"/>
<path d="M9.43936 34.7657C9.57188 34.7657 9.70626 34.732 9.8293 34.661L11.8591 33.4891C12.2327 33.2734 12.3607 32.7955 12.145 32.4219C11.9293 32.0483 11.4514 31.9204 11.0778 32.136L9.04805 33.3078C8.67442 33.5236 8.54639 34.0014 8.76212 34.375C8.90674 34.6256 9.16934 34.7657 9.43936 34.7657Z" fill="#3CB3FF"/>
<path d="M38.5323 17.9689C38.6648 17.9689 38.7992 17.9351 38.9223 17.8641L40.9521 16.6922C41.3257 16.4765 41.4537 15.9986 41.238 15.625C41.0223 15.2514 40.5444 15.1236 40.1708 15.3391L38.141 16.511C37.7674 16.7267 37.6394 17.2045 37.8551 17.5781C37.9998 17.8287 38.2624 17.9689 38.5323 17.9689Z" fill="#3CB3FF"/>
<path d="M34.375 8.76196C34.0014 8.54614 33.5235 8.67417 33.3078 9.0479L32.1359 11.0777C31.9202 11.4513 32.0482 11.9291 32.4219 12.1449C32.5449 12.216 32.6792 12.2497 32.8118 12.2497C33.0818 12.2497 33.3444 12.1095 33.4892 11.8589L34.661 9.82915C34.8767 9.45551 34.7486 8.97768 34.375 8.76196Z" fill="#3CB3FF"/>
<path d="M17.5781 37.855C17.2045 37.6393 16.7267 37.7673 16.5109 38.141L15.3391 40.1707C15.1233 40.5444 15.2514 41.0222 15.625 41.2379C15.748 41.309 15.8823 41.3427 16.0149 41.3427C16.285 41.3427 16.5476 41.2026 16.6923 40.952L17.8642 38.9222C18.0798 38.5486 17.9518 38.0708 17.5781 37.855Z" fill="#3CB3FF"/>
<path d="M38.141 33.4891L40.1708 34.661C40.2938 34.7321 40.4281 34.7657 40.5607 34.7657C40.8308 34.7657 41.0934 34.6256 41.2381 34.375C41.4538 34.0014 41.3258 33.5236 40.9522 33.3078L38.9224 32.136C38.5487 31.9201 38.0709 32.0483 37.8552 32.4219C37.6394 32.7955 37.7674 33.2734 38.141 33.4891Z" fill="#3CB3FF"/>
<path d="M11.859 16.511L9.8292 15.3391C9.45556 15.1233 8.97773 15.2514 8.76201 15.625C8.54629 15.9987 8.67432 16.4765 9.04795 16.6922L11.0777 17.8641C11.2008 17.9352 11.3351 17.9689 11.4677 17.9689C11.7377 17.9689 12.0003 17.8287 12.145 17.5781C12.3606 17.2045 12.2326 16.7267 11.859 16.511Z" fill="#3CB3FF"/>
<path d="M30.4387 35.2003C30.5712 35.2003 30.7056 35.1665 30.8286 35.0955C31.2023 34.8798 31.3303 34.402 31.1146 34.0283L26.7806 26.5216C27.1313 26.1117 27.3438 25.5804 27.3438 25C27.3438 23.9815 26.6905 23.1131 25.7813 22.7906V12.5C25.7813 12.0686 25.4315 11.7188 25 11.7188C24.5686 11.7188 24.2188 12.0686 24.2188 12.5V22.7906C23.3095 23.1131 22.6562 23.9815 22.6562 25C22.6562 26.2924 23.7076 27.3437 25 27.3437C25.1462 27.3437 25.2892 27.3296 25.428 27.3039L29.7614 34.8096C29.9062 35.0602 30.1688 35.2003 30.4387 35.2003ZM24.2188 25C24.2188 24.5692 24.5692 24.2187 25 24.2187C25.4308 24.2187 25.7813 24.5692 25.7813 25C25.7813 25.4308 25.4308 25.7812 25 25.7812C24.5692 25.7812 24.2188 25.4308 24.2188 25Z" fill="#3CB3FF"/>
</svg>
