<svg width="45" height="45" viewBox="0 0 45 45" fill="none" xmlns="http://www.w3.org/2000/svg">
<g clip-path="url(#clip0)">
<path d="M13.3289 19.5234L13.3273 19.552C13.2164 21.494 14.3042 23.3132 16.0993 24.1854L16.1177 24.1944C16.7505 24.4971 17.2692 24.9962 17.5965 25.6168L17.6039 25.6303C18.5084 27.3525 20.3791 28.3965 22.3734 28.2918L22.4037 28.2902C23.127 28.2497 23.8449 28.4362 24.4569 28.824C26.1456 29.8803 28.2893 29.8803 29.978 28.824C30.59 28.4362 31.3079 28.2497 32.0312 28.2902L32.0615 28.2918C34.0525 28.3973 35.9257 27.3525 36.8323 25.6274L36.8368 25.618C37.1653 24.9958 37.6852 24.4959 38.3201 24.1927L38.3348 24.1854C40.1299 23.3128 41.2181 21.494 41.1068 19.5516L41.1052 19.5246C41.0684 18.8406 41.2582 18.1636 41.646 17.5986C42.7624 15.9705 42.7624 13.8236 41.6464 12.195C41.259 11.6305 41.0684 10.9538 41.1052 10.2698L41.1068 10.2412C41.2181 8.29884 40.1299 6.48003 38.3332 5.60704L38.3168 5.59885C37.6852 5.29695 37.1677 4.80031 36.84 4.18136L36.8306 4.16295C35.9257 2.44069 34.0525 1.39711 32.0615 1.50143L32.0308 1.50306C31.3079 1.54356 30.59 1.35702 29.9784 0.969201H29.9776C28.2889 -0.0870645 26.1452 -0.0870645 24.4565 0.969201C23.8445 1.35661 23.1266 1.54315 22.4033 1.50265L22.373 1.50102C20.3816 1.39547 18.5088 2.44028 17.6043 4.16214L17.5973 4.17482C17.2697 4.79663 16.7505 5.29613 16.1168 5.59926L16.0997 5.60744C14.3046 6.47962 13.2164 8.29884 13.3277 10.2412L13.3293 10.2682C13.3661 10.9522 13.1763 11.6292 12.7885 12.1938C11.6721 13.8223 11.6721 15.9697 12.7885 17.5978C13.1759 18.1624 13.3661 18.8394 13.3289 19.5234ZM14.1675 13.1453C14.766 12.2739 15.0594 11.2291 15.0021 10.1737L15.0004 10.1451C14.9415 8.85806 15.664 7.6627 16.8303 7.11575L16.8446 7.1088C17.8015 6.65062 18.5849 5.89626 19.0791 4.95781L19.0872 4.94227C19.6882 3.79764 20.947 3.10382 22.2839 3.17501L22.3133 3.17623C23.3831 3.23637 24.4447 2.96064 25.3496 2.3871C26.4921 1.67242 27.942 1.67242 29.0845 2.3871C29.9894 2.95983 31.051 3.23596 32.1204 3.17664L32.1498 3.17501C33.4933 3.10464 34.7459 3.79764 35.3452 4.93899L35.3563 4.95986C35.8504 5.89708 36.633 6.65021 37.5887 7.10798L37.6026 7.11493C38.7873 7.69093 39.5065 8.88015 39.4341 10.1455L39.4324 10.1753C39.3752 11.2308 39.6689 12.2752 40.2674 13.1465C40.9906 14.2016 40.9902 15.5925 40.2666 16.6471C39.6685 17.5189 39.3752 18.5637 39.4324 19.6191L39.4341 19.6474C39.5065 20.9127 38.7873 22.1023 37.6022 22.6787L37.5899 22.6844C36.6322 23.1434 35.848 23.8986 35.3534 24.8387L35.3473 24.851C34.7459 25.9956 33.4892 26.6898 32.1502 26.6182L32.1212 26.6166C31.0514 26.5569 29.9894 26.833 29.0841 27.4061C27.942 28.1204 26.4921 28.1204 25.35 27.4061C24.5269 26.8845 23.5721 26.608 22.5976 26.6088C22.5031 26.6088 22.4082 26.6113 22.3133 26.6166L22.2839 26.6178C20.9645 26.7017 19.7164 26.0111 19.086 24.8489L19.0774 24.833C18.5841 23.8961 17.8019 23.1434 16.8467 22.6857L16.8311 22.6779C15.646 22.1019 14.9268 20.9123 14.9996 19.6474L15.0013 19.6175C15.0581 18.562 14.7644 17.5172 14.1663 16.6463C13.4435 15.5912 13.4439 14.2003 14.1675 13.1461V13.1453Z" fill="#3CB3FF"/>
<path d="M21.8114 23.5579C22.2037 23.803 22.7203 23.6831 22.9654 23.2908L32.8903 7.39117C33.0523 7.13713 33.0658 6.81558 32.9251 6.54926C32.7843 6.28254 32.5111 6.11236 32.21 6.10295C31.9089 6.09354 31.6258 6.24654 31.4687 6.50386L21.5442 22.4035C21.2992 22.7962 21.4186 23.3129 21.8114 23.5579Z" fill="#3CB3FF"/>
<path d="M22.7007 14.938C24.7408 14.938 26.4009 13.0452 26.4009 10.7187C26.4009 8.3922 24.7408 6.49976 22.7007 6.49976C20.6606 6.49976 19.0009 8.3922 19.0009 10.7187C19.0009 13.0452 20.6606 14.938 22.7007 14.938ZM22.7007 8.17538C23.8171 8.17538 24.7253 9.31633 24.7253 10.7187C24.7253 12.121 23.8171 13.2624 22.7007 13.2624C21.5847 13.2624 20.6765 12.1206 20.6765 10.7187C20.6765 9.31674 21.5847 8.17538 22.7007 8.17538Z" fill="#3CB3FF"/>
<path d="M28.0336 19.0755C28.0336 21.402 29.6933 23.2944 31.7334 23.2944C33.7735 23.2944 35.4336 21.4016 35.4336 19.0755C35.4336 16.7498 33.7739 14.8566 31.7338 14.8566C29.6933 14.8566 28.0336 16.7486 28.0336 19.0755ZM33.758 19.0755C33.758 20.4778 32.8498 21.6188 31.7334 21.6188C30.6174 21.6188 29.7092 20.4778 29.7092 19.0755C29.7092 17.6731 30.6174 16.5322 31.7334 16.5322C32.8498 16.5322 33.758 17.6723 33.758 19.0755Z" fill="#3CB3FF"/>
<path d="M44.8913 32.9878C43.7819 31.0189 41.3216 30.269 39.3028 31.2844L32.7398 34.3853C31.8336 32.7002 30.0954 31.6276 28.1825 31.5736L22.1239 31.4067C21.1646 31.3793 20.2233 31.1359 19.3703 30.6957L18.7538 30.3762C15.5973 28.7308 11.8349 28.7349 8.68168 30.3868L8.72013 28.9902C8.73282 28.5275 8.36832 28.1422 7.90564 28.1295L1.26204 27.9466C0.799362 27.9339 0.41441 28.2984 0.401729 28.7611L0.000412688 43.3406C-0.0122691 43.8033 0.352229 44.1887 0.814908 44.2013L7.4585 44.3842H7.48182C7.9355 44.3838 8.30655 44.0226 8.31923 43.5693L8.33805 42.8718L10.064 41.9477C10.7414 41.5832 11.5338 41.4964 12.2739 41.7059L22.5801 44.5986C22.5981 44.6039 22.6161 44.608 22.6345 44.6121C23.3794 44.7679 24.1387 44.8461 24.9 44.8456C26.5118 44.8465 28.1048 44.4992 29.5697 43.8266C29.6057 43.8102 29.6405 43.7914 29.6736 43.7702L44.6168 34.1038C44.9895 33.8633 45.1098 33.3736 44.8913 32.9878ZM1.69854 42.549L2.05363 29.6451L7.02242 29.7818L6.66692 42.6861L1.69854 42.549ZM28.8146 42.3293C26.9945 43.1508 24.9618 43.3774 23.0055 42.9773L12.7267 40.0929C11.5703 39.7656 10.3315 39.9014 9.27322 40.4704L8.39123 40.9425L8.62768 32.3627C11.4222 30.5038 15.0066 30.3128 17.9831 31.8636L18.5996 32.1831C19.6772 32.7395 20.866 33.0467 22.0781 33.0815L28.1367 33.2484C29.8385 33.2971 31.2838 34.5088 31.6291 36.1762L22.6046 35.9279C22.1419 35.9152 21.757 36.2797 21.7443 36.7424C21.7316 37.2051 22.0961 37.5905 22.5588 37.6031L32.518 37.8772H32.5418C32.995 37.8768 33.3661 37.5156 33.3788 37.0623C33.389 36.6982 33.3616 36.3337 33.2978 35.9754L40.0281 32.7947L40.0477 32.7853C41.0025 32.3018 42.1574 32.4634 42.9424 33.1903L28.8146 42.3293Z" fill="#3CB3FF"/>
</g>
<defs>
<clipPath id="clip0">
<rect width="45" height="45" fill="white"/>
</clipPath>
</defs>
</svg>
