<svg width="45" height="45" viewBox="0 0 45 45" fill="none" xmlns="http://www.w3.org/2000/svg">
<g clip-path="url(#clip0)">
<path d="M44.9172 10.6709C44.7623 10.0949 44.3845 9.60394 43.8675 9.30626C43.3501 9.00712 42.735 8.9262 42.1579 9.08108C41.5816 9.23633 41.0906 9.61383 40.7929 10.1308L40.418 10.7833C40.0617 10.5786 39.6066 10.6991 39.3983 11.0535L37.4936 14.3002L36.8411 13.9252C36.6683 13.8253 36.4625 13.7982 36.2699 13.8502C36.0769 13.9025 35.9129 14.0292 35.8137 14.2028C35.6105 14.5612 35.7342 15.0167 36.0912 15.2225L36.7437 15.5974L30.3698 26.643L28.795 30.8501L28.0451 32.2521C27.6061 33.0159 27.653 33.9653 28.1652 34.6818L26.478 36.7513L26.0057 35.5668C25.7926 35.0388 25.2994 34.6771 24.7322 34.6328C24.1647 34.5881 23.6209 34.8686 23.3284 35.3566L23.0585 35.814L22.8037 32.8145C22.7451 32.1049 22.1955 31.5344 21.4889 31.4487C20.7818 31.3634 20.1125 31.7871 19.8866 32.4622L18.0419 37.9962C17.913 38.3876 18.1239 38.8094 18.5143 38.9412C18.5875 38.9753 18.6662 38.9958 18.7468 39.0009C19.069 39.002 19.356 38.7966 19.4593 38.4912L21.2963 32.9573L21.5588 36.0014C21.613 36.651 22.0798 37.191 22.7147 37.3382C23.3496 37.4854 24.0065 37.2057 24.3408 36.6466L24.6183 36.1889L25.0833 37.3664C25.2807 37.8626 25.727 38.2166 26.2554 38.2953C26.7837 38.3741 27.3139 38.1657 27.6478 37.7487L29.3951 35.5368C29.5884 35.5873 29.7876 35.6126 29.9875 35.6118C30.7912 35.6181 31.5374 35.1948 31.9446 34.5017L32.6945 33.2495L35.5515 29.7776L41.9928 18.5969L42.6453 18.9719C42.8192 19.0714 42.9459 19.2358 42.9975 19.4295C43.0495 19.6218 43.0224 19.8268 42.9228 19.9993L39.9233 25.196C39.8102 25.3666 39.7717 25.5761 39.8171 25.776C39.8626 25.9755 39.9874 26.148 40.1632 26.2531C40.336 26.3534 40.5418 26.3805 40.7344 26.3285C40.9273 26.2762 41.0913 26.1495 41.1906 25.9759L44.1901 20.7792C44.4892 20.2618 44.5701 19.6467 44.4149 19.0696C44.2596 18.4933 43.8821 18.0023 43.3651 17.7046L42.7126 17.3297L44.5873 14.0827C44.792 13.7264 44.6715 13.2717 44.3175 13.0629L44.6924 12.4105C44.9996 11.885 45.0809 11.2575 44.9172 10.6709ZM42.0902 10.8807C42.1894 10.7071 42.3542 10.5801 42.5479 10.5285C42.7405 10.4809 42.9441 10.5076 43.1176 10.6035C43.2915 10.7028 43.4182 10.8675 43.4702 11.0608C43.5178 11.2534 43.4911 11.457 43.3951 11.6306L43.0202 12.2831L41.7153 11.5332L42.0902 10.8807ZM31.8695 31.8174L31.4946 31.6L30.3848 30.9548L31.4496 28.1054L33.8116 29.4701L31.8695 31.8174ZM29.6199 33.9843C29.3032 33.7635 29.2058 33.3388 29.3951 33.0019L29.77 32.3498L31.0746 33.0997L30.6997 33.7445C30.5946 33.9268 30.4181 34.0564 30.2127 34.1022C30.0073 34.1476 29.7924 34.1051 29.6199 33.9843ZM34.6665 28.2405L32.072 26.7408L38.071 16.3473L40.6655 17.847L34.6665 28.2405ZM41.4154 16.5498L38.8209 15.05L40.3206 12.4555L42.9151 13.9553L41.4154 16.5498Z" fill="white"/>
<path d="M11.8329 33.6093L9.17865 36.2565L7.58883 34.6667C7.29628 34.376 6.82395 34.376 6.5314 34.6667C6.38933 34.8077 6.30951 34.9992 6.30951 35.1991C6.30951 35.399 6.38933 35.5908 6.5314 35.7314L8.12121 37.3213C8.40241 37.6003 8.78247 37.7566 9.17865 37.7562C9.57702 37.7584 9.96037 37.6021 10.2434 37.3213L12.8903 34.6667C13.1451 34.369 13.1279 33.9256 12.8511 33.6488C12.5739 33.3716 12.1305 33.3544 11.8329 33.6093Z" fill="white"/>
<path d="M2.99945 35.6264C2.99945 39.1469 5.85321 42.0003 9.37337 42.0003C12.8935 42.0003 15.7473 39.1469 15.7473 35.6264C15.7473 35.2123 15.4115 34.8765 14.9974 34.8765C14.5833 34.8765 14.2475 35.2123 14.2475 35.6264C14.2475 38.3183 12.0653 40.5006 9.37337 40.5006C6.68144 40.5006 4.4992 38.3183 4.4992 35.6264C4.4992 32.9345 6.68144 30.7522 9.37337 30.7522C10.4286 30.7493 11.4557 31.0916 12.2978 31.7273C12.6292 31.9759 13.0993 31.9085 13.3475 31.5772C13.5962 31.2458 13.5292 30.776 13.1978 30.5274C11.2664 29.0789 8.68208 28.8461 6.5229 29.9255C4.36335 31.0052 2.99945 33.2124 2.99945 35.6264Z" fill="white"/>
<path d="M26.9954 6.00646C27.4095 6.00646 27.7453 5.67107 27.7453 5.25659C27.7453 4.84247 27.4095 4.50671 26.9954 4.50671H7.49871C7.0846 4.50671 6.74884 4.84247 6.74884 5.25659V8.25607C6.74884 8.67056 7.0846 9.00595 7.49871 9.00595H26.9954C27.4095 9.00595 27.7453 8.67056 27.7453 8.25607C27.7453 7.84196 27.4095 7.5062 26.9954 7.5062H8.24859V6.00646H26.9954Z" fill="white"/>
<path d="M9.74835 10.5056C9.33423 10.5056 8.99847 10.8414 8.99847 11.2555C8.99847 11.67 9.33423 12.0054 9.74835 12.0054H24.7458C25.1599 12.0054 25.4957 11.67 25.4957 11.2555C25.4957 10.8414 25.1599 10.5056 24.7458 10.5056H9.74835Z" fill="white"/>
<path d="M29.245 15.7549H12.7479C12.3337 15.7549 11.998 16.0906 11.998 16.5048C11.998 16.9192 12.3337 17.2546 12.7479 17.2546H29.245C29.6592 17.2546 29.9949 16.9192 29.9949 16.5048C29.9949 16.0906 29.6592 15.7549 29.245 15.7549Z" fill="white"/>
<path d="M21.7463 21.0039C21.7463 20.5898 21.4105 20.254 20.9964 20.254H5.99896C5.58484 20.254 5.24908 20.5898 5.24908 21.0039C5.24908 21.4184 5.58484 21.7538 5.99896 21.7538H20.9964C21.4105 21.7538 21.7463 21.4184 21.7463 21.0039Z" fill="white"/>
<path d="M29.245 20.254H23.9959C23.5818 20.254 23.246 20.5898 23.246 21.0039C23.246 21.4184 23.5818 21.7538 23.9959 21.7538H29.245C29.6591 21.7538 29.9949 21.4184 29.9949 21.0039C29.9949 20.5898 29.6591 20.254 29.245 20.254Z" fill="white"/>
<path d="M13.4977 25.5031C13.9118 25.5031 14.2476 25.1677 14.2476 24.7532C14.2476 24.3391 13.9118 24.0033 13.4977 24.0033H5.99896C5.58484 24.0033 5.24908 24.3391 5.24908 24.7532C5.24908 25.1677 5.58484 25.5031 5.99896 25.5031H13.4977Z" fill="white"/>
<path d="M16.4972 25.5031H21.7463C22.1604 25.5031 22.4962 25.1677 22.4962 24.7532C22.4962 24.3391 22.1604 24.0033 21.7463 24.0033H16.4972C16.0831 24.0033 15.7473 24.3391 15.7473 24.7532C15.7473 25.1677 16.0831 25.5031 16.4972 25.5031Z" fill="white"/>
<path d="M33.7442 34.5023C33.3301 34.5023 32.9944 34.8381 32.9944 35.2522V42.7509C32.9944 43.1654 32.6586 43.5008 32.2445 43.5008H2.24962C1.8355 43.5008 1.49974 43.1654 1.49974 42.7509V2.2578C1.49974 1.84368 1.8355 1.50792 2.24962 1.50792H32.2445C32.6586 1.50792 32.9944 1.84368 32.9944 2.2578V16.3406C32.9944 16.7547 33.3301 17.0905 33.7442 17.0905C34.1584 17.0905 34.4941 16.7547 34.4941 16.3406V2.2578C34.4941 1.01545 33.4868 0.00817871 32.2445 0.00817871H2.24962C1.00727 0.00817871 0 1.01545 0 2.2578V42.7509C0 43.9936 1.00727 45.0005 2.24962 45.0005H32.2445C33.4868 45.0005 34.4941 43.9936 34.4941 42.7509V35.2522C34.4941 34.8381 34.1584 34.5023 33.7442 34.5023Z" fill="white"/>
</g>
<defs>
<clipPath id="clip0">
<rect width="45" height="45" fill="white"/>
</clipPath>
</defs>
</svg>
