<svg width="41" height="39" viewBox="0 0 41 39" fill="none" xmlns="http://www.w3.org/2000/svg">
<path d="M40.8334 16.1215C41.1289 14.804 40.9713 13.5586 40.819 12.354C40.6889 11.3254 40.5661 10.354 40.7518 9.45203C41.1919 7.31385 39.8272 4.96692 38.5889 3.16113C37.2075 1.14672 35.7128 0.860957 33.7517 0.677125C33.6457 0.667228 33.5374 0.662109 33.4299 0.662109C32.1139 0.662109 31.0147 1.39858 30.4241 1.79422C30.2708 1.89683 30.1125 2.00297 30.0661 2.0123C29.9926 2.02697 29.8206 2.02925 29.603 2.0322C29.0185 2.03994 28.0404 2.05302 26.8758 2.30249C25.7409 2.54571 24.8315 3.12371 24.8485 3.59102C24.8549 3.76803 24.9843 3.99611 25.5649 4.07722C26.7814 4.24729 27.857 4.57684 28.7212 4.84156C28.8921 4.89389 29.0524 4.94303 29.2011 4.98683C30.1362 5.2628 30.9999 5.63991 31.2957 7.2035C31.5015 8.2908 29.632 9.53837 27.9827 10.6392C27.2986 11.0957 26.6526 11.527 26.1321 11.9498C24.3172 13.4244 20.8567 16.4131 19.7482 17.4633C18.6974 18.4588 9.8606 24.5177 7.48523 25.6765C5.05787 26.8606 2.69217 28.7167 2.09938 29.9022C1.96652 30.1679 1.93808 30.3363 2.00701 30.4479C2.03716 30.4966 2.09938 30.5546 2.22486 30.5546C2.37422 30.5546 2.57876 30.4685 2.7552 30.385C2.75542 30.4064 2.75941 30.4283 2.76873 30.4507C2.8214 30.578 2.99113 30.5943 3.1331 30.5943C3.52112 30.5943 4.32994 30.4349 5.31633 30.1653C4.96209 30.4272 4.25918 30.878 3.61964 31.2882C1.09149 32.9104 -0.0311784 33.6982 0.000673675 34.0792C0.0181923 34.2902 0.157659 34.5417 0.722465 34.5417C1.0692 34.5417 1.49169 34.4526 1.83126 34.3811C2.00747 34.344 2.16013 34.3118 2.26558 34.2995C2.22713 34.3802 2.12851 34.5188 2.05855 34.6173C1.83194 34.9361 1.5976 35.2658 1.76448 35.4744C1.81454 35.5371 1.89974 35.5676 2.02465 35.5676C2.39834 35.5676 3.19646 35.2903 3.96831 35.0222C4.51935 34.8307 5.03979 34.65 5.35433 34.5871C5.83461 34.4911 8.16277 33.2854 10.4141 32.1193C12.0939 31.2494 13.9977 30.2635 14.2026 30.241C14.6016 30.241 17.8246 30.0058 19.8576 29.4249C20.3107 29.2954 20.7947 29.2298 21.2963 29.2298C22.5157 29.2298 23.6927 29.6089 24.7012 29.9855C24.6949 30.231 24.6888 30.5317 24.6824 30.901C24.6652 31.914 24.6576 32.9632 24.6601 33.2404C24.6634 33.6277 25.3946 34.311 26.4272 35.234C26.852 35.6137 27.3733 36.0799 27.4691 36.2476C27.2961 36.3552 27.0308 36.3584 26.7018 36.3624C26.1271 36.3693 25.3401 36.3788 24.5238 37.0012C24.0484 37.3638 23.7341 37.8822 23.6628 38.1346C23.6561 38.1579 23.6362 38.2288 23.6801 38.2869C23.7045 38.3191 23.7421 38.3377 23.7831 38.3377C23.8174 38.3377 23.8519 38.3249 23.8889 38.2988L23.9728 38.2388C24.2391 38.048 24.8626 37.6012 25.1975 37.4738C25.6501 37.3016 25.9826 37.2314 26.3455 37.2314C26.8219 37.2314 27.385 37.3538 28.2573 37.5798C28.7915 37.7181 29.2476 37.7855 29.6515 37.7855C30.177 37.7855 30.5585 37.6742 30.9624 37.5565C31.4323 37.4195 31.9181 37.2779 32.7123 37.2779C32.8599 37.2779 33.0155 37.2829 33.175 37.2929C34.0451 37.3474 34.8247 37.8005 35.1994 38.0182C35.3607 38.112 35.4095 38.1403 35.4623 38.1403L35.5426 38.1371L35.5727 38.07C35.6122 37.9823 35.5626 37.9265 35.3245 37.6583C34.9245 37.2079 34.5503 36.9324 34.1885 36.7543C34.4097 36.7113 34.6139 36.6523 34.8238 36.5911C35.2937 36.4542 35.7794 36.3126 36.5736 36.3126C36.7211 36.3126 36.8767 36.3176 37.0362 36.3276C37.9064 36.3821 38.6861 36.8352 39.0607 37.0528C39.2221 37.1466 39.2709 37.1748 39.3237 37.1748L39.404 37.1716L39.4341 37.1045C39.4736 37.0168 39.424 36.9611 39.1859 36.6928C38.3391 35.7392 37.6059 35.5636 36.8673 35.4557C36.5772 35.4135 36.3579 35.316 36.334 35.2189C36.3143 35.1394 36.4221 35.0048 36.6223 34.859C36.9774 34.6003 37.3346 34.4691 37.684 34.4691C38.3029 34.4691 38.688 34.8755 38.7298 35.0299C38.7487 35.1 38.8041 35.1248 38.846 35.1248C38.8886 35.1248 38.945 35.0989 38.9632 35.0261C38.9974 34.89 38.9563 34.2938 38.4527 34.0241C38.2012 33.8893 37.8119 33.8151 37.3566 33.8151C36.2809 33.8151 35.1105 34.1935 34.1462 34.8402C33.9541 34.8013 33.7342 34.7804 33.4953 34.7804C33.429 34.7804 33.3622 34.7824 33.2953 34.7852C32.4716 34.1268 31.0221 32.5943 30.9386 32.073C30.8837 31.7294 30.8516 30.6436 30.8516 29.5935C30.8516 29.5895 30.8516 29.5857 30.8516 29.5818C31.5341 29.2423 32.227 28.8423 33.0306 28.3696C37.0531 26.0039 40.2882 18.5539 40.8334 16.1215ZM28.5322 30.7249C28.5232 31.4448 28.5195 32.0701 28.5214 32.2752C28.5248 32.6623 29.2559 33.3456 30.2884 34.2687C30.6899 34.6276 31.1771 35.0633 31.3104 35.2517C31.22 35.2901 31.1304 35.3305 31.0417 35.3733C30.9042 35.3924 30.7437 35.3949 30.5632 35.397C30.1911 35.4016 29.7299 35.4082 29.2295 35.5804C28.3932 34.8579 27.1687 33.5189 27.0917 33.0387C27.05 32.7783 27.0348 32.0915 27.0261 31.317C27.3583 31.2031 27.853 31.0217 28.5322 30.7249Z" fill="#3CB3FF"/>
</svg>
