<svg width="33" height="33" viewBox="0 0 33 33" fill="none" xmlns="http://www.w3.org/2000/svg">
<g clip-path="url(#clip0)">
<path d="M8.72218 28.2632L9.26166 28.5298C11.5098 29.863 14.0275 30.4851 16.5452 30.4851C24.4582 30.4851 30.9323 24.0859 30.9323 16.2647C30.9323 12.5318 29.4036 8.88783 26.7062 6.22146C24.0085 3.55508 20.4117 2.04422 16.5452 2.04422C8.63234 2.04422 2.15802 8.44342 2.248 16.3536C2.248 19.0199 3.05727 21.5974 4.40602 23.8193L4.76567 24.3526L3.32707 29.5964L8.72218 28.2632Z" fill="#00E676"/>
<path d="M28.2347 4.7994C25.1775 1.68873 20.9513 0 16.6351 0C7.46341 0 0.0899766 7.37684 0.179824 16.3535C0.179824 19.1976 0.989098 21.9529 2.33797 24.4414L0 32.8848L8.72218 30.6629C11.15 31.9961 13.8475 32.6183 16.5452 32.6183C25.6271 32.6183 33.0005 25.2413 33.0005 16.2648C33.0005 11.9097 31.292 7.82125 28.2349 4.7994H28.2347ZM16.6351 29.8631C14.2073 29.8631 11.7795 29.2411 9.71128 27.9967L9.17181 27.7301L3.95652 29.0632L5.30527 23.9972L4.94562 23.4639C0.989098 17.1536 2.87745 8.7989 9.35163 4.8882C15.8258 0.977641 24.1884 2.84412 28.1449 9.24331C32.1013 15.6425 30.2129 23.9082 23.7389 27.8189C21.6706 29.152 19.1529 29.863 16.6351 29.863V29.8631ZM24.548 19.9977L23.5589 19.5533C23.5589 19.5533 22.1203 18.9312 21.2211 18.4868C21.1311 18.4868 21.0412 18.3978 20.9513 18.3978C20.6815 18.3978 20.5016 18.4868 20.3218 18.5757C20.3218 18.5757 20.232 18.6645 18.9731 20.0866C18.8831 20.2643 18.7033 20.3532 18.5234 20.3532H18.4335C18.3436 20.3532 18.1638 20.2643 18.0738 20.1755L17.6242 19.9977C16.6351 19.5533 15.736 19.02 15.0165 18.309C14.8367 18.1313 14.5669 17.9535 14.3871 17.7758C13.7576 17.1536 13.1282 16.4425 12.6787 15.6426L12.5887 15.4649C12.4989 15.376 12.4989 15.2872 12.4089 15.1094C12.4089 14.9317 12.4089 14.7539 12.4989 14.665C12.4989 14.665 12.8585 14.2206 13.1282 13.954C13.3082 13.7762 13.398 13.5096 13.5778 13.3319C13.7576 13.0652 13.8476 12.7097 13.7576 12.443C13.6678 11.9986 12.5887 9.59892 12.3191 9.0657C12.1391 8.79902 11.9594 8.71022 11.6896 8.62128H10.7005C10.5206 8.62128 10.3409 8.71022 10.1609 8.71022L10.0709 8.79902C9.89111 8.88796 9.71128 9.0657 9.53146 9.15451C9.35163 9.33237 9.26166 9.50999 9.08183 9.68786C8.45238 10.4878 8.09273 11.4654 8.09273 12.443C8.09273 13.154 8.27256 13.8651 8.54236 14.4873L8.63234 14.7539C9.44161 16.4425 10.5206 17.9535 11.9594 19.2867L12.3191 19.6421C12.5887 19.9088 12.8585 20.0866 13.0384 20.3531C14.9267 21.953 17.0847 23.1084 19.5125 23.7306C19.7823 23.8194 20.142 23.8194 20.4118 23.9083H21.3109C21.7605 23.9083 22.3 23.7306 22.6598 23.5528C22.9295 23.3751 23.1093 23.3751 23.2891 23.1973L23.4691 23.0195C23.6489 22.8417 23.8287 22.7529 24.0085 22.5752C24.1884 22.3974 24.3682 22.2197 24.4582 22.0418C24.638 21.6863 24.7278 21.2419 24.8178 20.7976V20.1755C24.8178 20.1755 24.7278 20.0866 24.548 19.9977Z" fill="white"/>
</g>
<defs>
<clipPath id="clip0">
<rect width="33" height="33" fill="white"/>
</clipPath>
</defs>
</svg>
