<svg width="639" height="415" viewBox="0 0 639 415" fill="none" xmlns="http://www.w3.org/2000/svg">
<g clip-path="url(#clip0)">
<path d="M461.454 94.8309L462.954 84.7097L458.655 83.8779L456.093 90.587L454.241 89.2512L454.016 98.0671L458.37 99.5364L461.454 94.8309Z" fill="#A69672"/>
<path d="M396.417 147.441L435.151 137.362L453.093 95.0557L461.582 98.4071L451.466 153.051L406.849 176.031L396.417 147.441Z" fill="#D6D5C6"/>
<path d="M431.368 400.192L431.884 405.267L422.254 411.369L416.661 406.816L421.221 401.224L430.852 395.122L431.368 400.192Z" fill="#59595B"/>
<path d="M431.744 245.429L433.311 260.838L419.552 329.695L431.732 398.503L421.877 401.539L389.993 319.726L388.244 294.711L392.568 242.897L431.744 245.429Z" fill="#40495F"/>
<path d="M357.022 250.674L356.706 315.767L369.53 399.603L378.966 399.542L384.401 322.069L396.788 244.548L357.022 250.674Z" fill="#40495F"/>
<path d="M378.936 403.519L368.771 408.686L363.64 403.622L368.705 398.485L378.906 398.419L378.936 403.519Z" fill="#59595B"/>
<path d="M349.074 241.124C355.88 220.05 356.603 197.919 358.582 175.965C359.171 169.486 359.791 162.868 362.487 156.949C365.583 150.155 370.702 146.566 376.665 144.605C384.255 142.11 393.211 142.256 401.105 141.776C408.592 141.539 415.216 169.687 422.855 183.335C427.536 191.696 432.357 199.091 435.515 208.216C438.545 216.972 441.453 225.879 443.22 234.986C445.88 248.738 452.693 258.343 446.189 263.018C445.594 263.212 445.018 263.413 444.477 263.607C433.809 267.426 422.776 270.255 411.536 271.737C401.566 273.054 391.444 273.291 381.431 272.307C367.727 270.959 354.454 269.023 342.37 261.877C344.605 254.955 346.839 248.04 349.074 241.124Z" fill="#D6D5C6"/>
<path d="M404.772 120.817C400.504 107.939 381.711 103.452 377.339 118.419C376.027 122.918 375.238 127.69 376.131 132.286C377.023 136.888 379.834 141.302 384.127 143.184C384.152 143.197 384.176 143.203 384.2 143.215C384.03 144.411 383.866 145.601 383.696 146.797C383.66 147.052 383.629 147.337 383.775 147.55C383.939 147.793 384.267 147.859 384.559 147.902C385.985 148.114 387.406 148.327 388.833 148.539C389.538 148.643 390.278 148.746 390.958 148.533C392.446 148.054 393.065 146.275 393.132 144.708C393.15 144.338 393.144 143.956 393.138 143.579C401.566 140.701 407.559 129.238 404.772 120.817Z" fill="#A69672"/>
<path d="M381.875 98.832C378.432 98.322 375.505 101.655 372.33 103.41C369.688 104.867 366.695 105.256 363.956 106.464C361.218 107.672 358.528 110.192 358.467 113.349C355.692 111.904 352.687 110.423 349.578 111.024C346.469 111.625 343.585 115.334 344.823 118.394C345.934 121.133 349.505 121.782 350.695 124.478C352.577 128.746 347.489 135.37 350.962 138.2C351.794 138.88 352.929 139.044 353.749 139.742C354.769 140.61 355.097 142.104 355.546 143.433C357.599 149.45 363.671 153.385 369.664 152.583C373.392 150.835 376.361 147.228 377.697 143.099C379.3 138.121 376.641 136.384 376.191 131.709C375.7 126.603 377.327 121.193 380.539 117.229C382.634 114.648 385.627 112.426 388.791 112.123C390.078 112.001 389.671 113.076 391.116 112.08C391.736 111.655 392.586 110.04 392.762 109.263C389.295 106.476 386.398 99.5059 381.875 98.832Z" fill="#57493E"/>
<path d="M419.096 105.45C420.869 105.942 422.8 105.869 424.488 106.616C427.026 107.727 426.874 110.368 427.591 112.657C428.386 115.195 429.546 118.595 431.216 120.568C432.418 121.989 434.106 122.802 435.576 123.895C437.045 124.994 438.393 126.609 438.363 128.589C438.332 130.459 437.075 132.14 436.887 134.017C436.662 136.803 437.142 138.236 436.286 141.084C435.843 142.553 435.345 144.113 434.24 145.115C432.782 146.439 430.712 146.415 428.89 146.105C427.069 145.801 425.192 145.297 423.395 145.899C419.503 147.21 420.232 151.144 419.193 154.441C417.615 159.462 411.798 162.389 407.341 160.604C403.564 159.092 401.378 154.708 401.548 150.379C401.633 148.212 402.495 146.196 402.556 144.022C402.617 141.934 401.439 139.032 403.333 137.374C403.795 136.967 404.39 136.755 404.803 136.293C405.137 135.923 405.325 135.419 405.44 134.921C405.841 133.191 405.464 131.309 404.444 129.985C403.71 129.032 402.665 128.34 402.216 127.192C401.7 125.875 402.107 124.339 402.198 122.887C402.41 119.372 400.485 115.93 397.559 114.576C395.628 113.683 393.891 113.155 392.209 111.795C391.954 111.588 388.117 108.201 388.02 108.929C388.19 107.654 388.936 106.537 389.689 105.517C390.928 103.835 392.306 102.196 394.049 101.194C399.696 97.9396 399.963 105.505 404.499 104.509C405.592 104.266 406.418 103.264 407.401 102.669C409.259 101.54 411.543 101.941 413.443 102.791C415.356 103.641 417.092 104.892 419.096 105.45Z" fill="#57493E"/>
<path d="M358.315 72.2389L363.95 63.6963L367.709 65.9488L365.14 72.6518L367.411 72.8886L361.697 79.6158L357.477 77.8004L358.315 72.2389Z" fill="#A69672"/>
<path d="M376.744 148.71L349.541 121.473L364.399 77.9887L355.838 74.8193L326.917 122.274L364.187 168.46L376.744 148.71Z" fill="#D6D5C6"/>
<path d="M491.292 150.816L486.914 146.682L486.842 141.375L485.712 140.816L484.965 142.183L483.648 137.793L480.551 135.729L475.918 137.489L473.264 141.867L475.499 146.275L480.423 149.487L486.174 155.406L491.292 150.816Z" fill="#E0CBAF"/>
<path d="M490.873 145.838L482.992 155.17L504.129 187.276L511.998 189.814L545.509 163.093L536.547 144.793L511.555 166.032L490.873 145.838Z" fill="#92A09C"/>
<path d="M597.218 397.921L598.384 403.288L589.112 410.932L582.719 406.706L586.775 400.198L596.047 392.553L597.218 397.921Z" fill="#3A332D"/>
<path d="M564.782 232.867L575.135 256.728L576.106 323.86L597.389 396.075L587.491 400.459L544.07 316.617L539.134 290.054L537.166 234.123L564.782 232.867Z" fill="#667482"/>
<path d="M514.682 238.216L513.868 308.572L527.129 399.287H537.324L543.761 315.585L557.714 231.883L514.682 238.216Z" fill="#667482"/>
<path d="M537.263 398.073V403.585L526.237 409.092L520.729 403.585L526.237 398.073H537.263Z" fill="#3A332D"/>
<path d="M534.762 142.948L561.843 141.946C561.843 141.946 578.043 156.159 586.416 193.098C594.942 230.711 584.844 284.851 584.844 284.851C584.844 284.851 512.186 275.167 500.273 273.673L518.446 199.413L534.762 142.948Z" fill="#92A09C"/>
<path d="M544.465 145.716C547.628 145.406 550.792 145.097 553.955 144.787C553.992 142.255 553.822 139.717 553.451 137.21C556.087 136.287 559.135 134.903 559.596 132.146C559.742 131.278 559.59 130.392 559.445 129.523C558.831 125.941 558.218 122.353 557.599 118.771C557.386 117.532 557.161 116.257 556.487 115.189C555.309 113.325 553.014 112.505 550.834 112.122C545.285 111.151 539.237 112.347 534.926 115.978C533.778 116.943 532.74 118.103 532.236 119.518C531.453 121.691 532.035 124.095 532.618 126.33C533.159 128.394 533.699 130.458 534.234 132.523C534.853 134.897 535.752 137.598 538.035 138.491C539.249 138.965 540.682 138.831 541.781 139.529C543.724 140.768 543.457 143.652 544.465 145.716Z" fill="#E0CBAF"/>
<path d="M513.564 109.882C513.504 107.423 513.85 104.94 514.342 102.693C515.186 98.8441 519.727 97.1137 523.662 96.8405C532.157 96.2516 540.354 92.4022 548.655 95.3712C553.397 97.0712 559.766 97.478 564.059 99.8763C565.851 100.878 567.277 102.438 568.395 104.163C572.25 110.137 572.263 118.364 568.419 124.351C567.557 125.692 566.525 126.919 565.444 128.091C563.203 130.513 560.519 133.506 557.441 134.405C557.374 131.648 559.894 122.966 557.781 120.708C554.429 117.119 546.839 118.358 542.668 119.238C538.126 120.192 534.07 123.403 529.564 124.089C526.322 124.581 522.187 122.984 519.436 121.309C515.119 118.674 513.68 114.326 513.564 109.882Z" fill="#3A332D"/>
<path d="M542.23 146.299L513.759 260.17L511.427 275.106L546.9 279.775C546.9 279.775 545.497 225.247 545.965 217.973C546.432 210.706 551.691 194.98 552.498 178.035C552.966 168.235 556.081 150.634 553.901 144.903L542.23 146.299Z" fill="white"/>
<path d="M101.318 113.944L106.199 115.911L110.383 108.231L107.244 103.726L102.526 103.987L102.975 108.128L102.058 107.757L101.524 106.464L100.231 107.023L101.318 113.944Z" fill="#EBCEB1"/>
<path d="M51.4542 148.108L85.6093 141.059L99.9513 111.807L107.535 114.472L96.4174 152.019L51.4542 165.437V148.108Z" fill="#D1E0DA"/>
<path d="M24.1119 254.269L34.5011 328.973L30.8094 382.936L38.3751 385.577L45.1454 335.706L59.5968 244.579L24.1119 254.269Z" fill="#EBCEB1"/>
<path d="M38.3569 387.095L39.1948 392.687L37.3003 403.312L31.0523 402.723L29.8743 386.986L30.7972 384.46L38.3569 387.095Z" fill="#514943"/>
<path d="M85.3117 252.047L81.9721 315.409L67.8486 403.986L60.1979 403.883L63.5982 321.754L53.6705 246.042L85.3117 252.047Z" fill="#EBCEB1"/>
<path d="M67.7211 402.469L77.5031 409.639L76.2826 415L58.3763 410.732L59.8336 402.991L67.7211 402.469Z" fill="#514943"/>
<path d="M86.9997 261.542L86.6779 335.087L77.6792 384.679L57.174 381.358L57.7691 324.049L53.5126 261.093L55.6196 251.561L85.2814 254.924L86.9997 261.542Z" fill="#C7B299"/>
<path d="M50.6163 325.129L44.2649 377.29L26.4375 374.515L30.524 324.862L23.9055 261.366L27.7916 244.172L57.7509 249.217L50.6163 325.129Z" fill="#C7B299"/>
<path d="M15.0586 121.357C16.4248 108.413 32.886 100.465 39.9174 113.665C42.0304 117.63 43.7124 121.959 43.8095 126.458C43.9067 130.957 42.1883 135.662 38.6058 138.285C38.5876 138.297 38.5633 138.309 38.5451 138.327C38.9398 139.414 39.3345 140.507 39.7231 141.594C39.8081 141.825 39.8931 142.086 39.802 142.316C39.6988 142.577 39.4134 142.705 39.1523 142.802C37.8772 143.282 36.6021 143.767 35.333 144.247C34.7015 144.484 34.0397 144.727 33.3718 144.66C31.9023 144.508 30.9733 142.954 30.6029 141.497C30.5118 141.151 30.439 140.792 30.3722 140.434C21.9928 139.402 14.166 129.821 15.0586 121.357Z" fill="#EACDB0"/>
<path d="M40.306 117.532C42.7469 120.392 43.2266 124.272 43.2752 127.909C43.3238 131.46 44.2285 134.806 43.9492 138.376C44.4046 138.856 45.1757 138.376 45.6251 137.902C48.2907 135.122 50.9199 132.298 53.5126 129.445C53.7737 129.159 54.0409 128.856 54.1623 128.485C54.3141 128.018 54.217 127.502 54.1016 127.016C51.9157 117.453 47.052 110.969 40.4639 104.175C37.2639 100.872 29.6071 97.8607 26.2979 102.894C25.5449 104.041 25.4296 105.493 25.3992 106.871C25.381 107.697 25.3931 108.547 25.6967 109.312C26.9111 112.366 29.85 111.734 32.3274 112.396C35.3877 113.191 38.2415 115.116 40.306 117.532Z" fill="#333333"/>
<path d="M19.2422 127.283C19.6672 130.07 20.8088 133.136 22.0475 135.638C22.4786 136.506 24.5491 138.358 24.7009 138.971C25.132 140.738 22.096 145.504 21.3795 147.216C15.1314 144.903 8.88335 142.596 2.64132 140.282C2.16163 140.106 1.65766 139.912 1.33584 139.511C1.04438 139.147 0.941159 138.667 0.850079 138.206C-0.874372 129.147 0.21859 120.598 2.42273 111.825C4.62687 103.058 11.385 95.1649 20.6388 94.3331C28.1195 93.6591 34.1368 98.3281 32.6006 106.373C31.4409 112.45 24.458 114.77 21.1609 119.305C19.0904 122.159 18.7686 124.721 19.2422 127.283Z" fill="#333333"/>
<path d="M23.1768 145.668C23.0372 145.74 22.8915 145.813 22.7518 145.892C16.0301 149.487 11.9558 162.097 9.64842 169.492C3.67963 188.593 2.42272 207.822 4.22611 227.797C5.19763 238.55 6.65492 249.26 8.33079 259.927C8.79226 262.872 14.7307 289.016 13.4495 289.836C26.6136 281.463 40.051 273.418 54.4598 267.705C68.8687 261.992 84.4313 267.049 99.8603 268.403C91.1348 235.38 80.2173 193.663 66.6524 162.443C65.0312 158.709 63.7561 154.666 61.6066 151.211C59.1353 147.228 56.0568 146.372 52.0493 144.362C50.677 143.676 49.2926 142.978 47.8292 142.571C40.1056 140.391 30.275 142.013 23.1768 145.668Z" fill="#D1E0DA"/>
<path d="M161.739 216.35C189.86 188.232 189.86 142.643 161.739 114.525C133.619 86.4063 88.0264 86.4063 59.9058 114.525C31.7852 142.643 31.7852 188.232 59.9058 216.35C88.0264 244.468 133.619 244.468 161.739 216.35Z" fill="#3F92DA"/>
<path d="M142.468 114.812L110.693 112.9L82.3 170.853L105.592 172.255L84.0731 219.698L137.422 161.685L111.634 157.884L142.468 114.812Z" fill="white"/>
<path d="M249.596 402.638V407.386L237.422 413.47L231.337 407.386L237.422 401.296H238.211L238.405 402.638H249.596Z" fill="#41352B"/>
<path d="M279.561 401.296H280.405L286.49 407.386L280.405 413.47L268.231 407.386V402.638H279.422L279.561 401.296Z" fill="#41352B"/>
<path d="M233.378 223.34C232.054 237.068 230.512 251.901 230.512 251.901C230.512 251.901 237.622 252.071 247.914 252.854C247.155 252.836 246.39 252.818 245.631 252.811C238.472 252.745 231.052 255.841 224.197 257.845L224.573 224.664L233.378 223.34Z" fill="#667482"/>
<path d="M281.407 257.025C286.313 257.286 286.927 256.364 286.927 256.364C286.927 256.364 282.5 238.283 279.391 222.557L293.406 224.658L293.588 262.204C292.398 261.445 291.165 260.723 289.835 260.079C287.17 258.786 284.328 257.803 281.407 257.025Z" fill="#667482"/>
<path d="M224.203 257.839C231.058 255.835 238.478 252.745 245.637 252.805C246.396 252.811 247.161 252.83 247.92 252.848C248.558 252.896 249.207 252.945 249.869 253C254.666 253.388 260.052 253.898 265.681 254.584C265.96 254.621 266.233 254.651 266.507 254.687C273.702 256.254 278.377 256.867 281.407 257.025C284.328 257.802 287.17 258.786 289.835 260.073C291.165 260.717 292.398 261.439 293.588 262.198L293.624 270.018L279.908 402.814H268.656V404.168H268.589L256.221 315.093L256.172 314.589L249.396 404.168H249.329V402.814H238.023L223.687 303.065L224.203 257.839Z" fill="#4D4D4D"/>
<path d="M308.3 251.974C308.185 248.537 307.984 245.659 307.954 244.633C307.699 235.332 306.807 225.969 305.544 216.583C304.402 208.107 302.957 199.613 301.384 191.07C298.925 177.683 296.691 165.886 291.76 153.154C290.011 148.631 288.214 144.028 285.19 140.264C281.104 135.176 272.761 131.521 266.288 131.746C266.173 132.013 265.693 135.03 266.015 134.988C265.918 135 265.814 135.012 265.717 135.024L267.089 135.012L274.54 150.428C274.54 150.428 274.57 151.223 274.625 152.626C274.679 154.028 274.752 156.038 274.843 158.466C274.862 159.007 274.886 159.565 274.904 160.142C275.384 172.862 276.179 194.531 276.416 202.922C276.531 206.978 277.782 214.458 279.385 222.563L293.4 224.664L293.582 262.21C296.964 264.372 299.982 266.843 303.819 268.737C304.311 268.98 304.845 269.229 305.404 269.162C308.385 268.798 308.537 259.168 308.3 251.974Z" fill="#92B7A2"/>
<path d="M274.625 152.619C274.57 151.217 274.54 150.422 274.54 150.422L267.089 135.006L265.717 135.018C263.817 135.249 261.922 135.473 260.022 135.704C259.53 135.765 259.02 135.82 258.552 135.662C258.315 135.583 258.109 135.461 257.933 135.303C257.86 135.243 257.793 135.17 257.732 135.097L251.988 135.152L257.732 135.097C257.21 134.484 256.973 133.555 256.87 132.711C256.846 132.517 256.81 132.334 256.767 132.152C255.073 132.462 253.427 132.887 251.867 133.433C243.117 136.5 238.12 142.674 235.157 151.442C232.777 158.497 230.39 165.552 228.01 172.607C226.055 178.399 224.1 184.197 222.399 190.075C217.961 205.46 215.332 221.312 213.407 237.202C212.441 245.167 211.646 253.158 210.887 261.148C210.419 266.041 211.919 265.094 215.35 262.696C217.669 261.075 219.94 259.004 222.733 258.252C223.219 258.118 223.711 257.978 224.203 257.839L224.579 224.658L233.378 223.34C233.414 222.988 233.444 222.642 233.481 222.296C233.444 222.642 233.414 222.994 233.378 223.34C232.054 237.068 230.512 251.901 230.512 251.901C230.512 251.901 237.622 252.071 247.914 252.854C248.552 252.903 249.201 252.951 249.863 253.006C254.66 253.394 260.046 253.904 265.675 254.59C265.954 254.627 266.227 254.657 266.5 254.694C273.696 256.26 278.371 256.873 281.401 257.031C286.307 257.292 286.921 256.369 286.921 256.369C286.921 256.369 282.494 238.288 279.385 222.563C277.782 214.458 276.531 206.978 276.416 202.922C276.179 194.531 275.378 172.868 274.904 160.142C274.88 159.565 274.862 159.007 274.843 158.466C274.752 156.038 274.679 154.022 274.625 152.619ZM248.218 148.813C243.39 166.487 235.606 195.836 235.193 202.655C235.163 203.153 235.126 203.729 235.078 204.373C235.126 203.729 235.163 203.153 235.193 202.655C235.606 195.836 243.39 166.487 248.218 148.813C248.436 148.011 248.649 147.228 248.855 146.475C248.649 147.228 248.436 148.011 248.218 148.813ZM233.669 220.341C233.681 220.189 233.699 220.037 233.712 219.886C233.693 220.037 233.681 220.189 233.669 220.341ZM233.821 218.756C233.912 217.821 233.997 216.905 234.082 216.006C233.991 216.905 233.906 217.821 233.821 218.756ZM234.313 213.45C234.325 213.316 234.337 213.189 234.349 213.061C234.337 213.189 234.325 213.322 234.313 213.45ZM234.562 210.669C234.61 210.111 234.659 209.564 234.701 209.036C234.659 209.558 234.61 210.104 234.562 210.669ZM234.78 208.119C234.871 207.02 234.956 206.012 235.023 205.114C234.956 206.012 234.871 207.02 234.78 208.119ZM250.258 141.399C250.094 141.994 249.918 142.626 249.736 143.287C249.553 143.949 249.359 144.648 249.165 145.37C249.365 144.648 249.553 143.949 249.736 143.287C249.918 142.626 250.088 141.994 250.258 141.399C250.422 140.804 250.58 140.246 250.725 139.724C250.574 140.246 250.422 140.804 250.258 141.399Z" fill="#92B7A2"/>
<path d="M247.325 98.3037C245.886 101.212 245.285 104.503 245.309 107.757C245.315 108.625 245.309 109.621 244.647 110.167C243.943 110.75 244.647 111.916 244.052 111.212C243.457 110.514 241.429 108.073 241.296 107.156C240.986 105.007 240.877 102.833 240.974 100.659C241.059 98.7712 241.338 96.7919 242.474 95.2983C243.148 94.4119 244.07 93.7683 244.981 93.1369C246.305 92.2262 247.665 91.3094 249.22 90.9269C251.897 90.2711 253.604 91.1697 251.314 93.2097C249.681 94.6851 248.315 96.3123 247.325 98.3037Z" fill="#534741"/>
<path d="M265.978 134.277C262.28 134.824 258.583 135.37 254.885 135.923C254.156 132.687 253.652 129.39 253.391 126.069C250.124 125.674 246.262 124.806 244.981 121.418C244.581 120.349 244.508 119.172 244.441 118.012C244.162 113.24 243.888 108.461 243.609 103.689C243.512 102.038 243.421 100.338 243.9 98.7713C244.738 96.033 247.137 94.2966 249.523 93.1612C255.601 90.259 262.839 89.9858 268.753 93.3494C270.326 94.2419 271.832 95.4198 272.797 97.0773C274.285 99.6274 274.279 102.882 274.218 105.917C274.163 108.722 274.115 111.528 274.06 114.333C273.999 117.557 273.714 121.284 271.346 123.112C270.089 124.083 268.413 124.332 267.351 125.559C265.474 127.72 266.567 131.333 265.978 134.277Z" fill="#EACDB0"/>
<path d="M243.743 120.841C244.471 123.786 246.032 126.549 248.497 128.097C251.29 129.845 254.684 129.809 257.89 129.718C259.645 129.669 261.4 129.621 263.149 129.566C267.587 129.439 271.965 128.625 274.005 123.762C274.947 121.521 275.153 118.959 274.874 116.5C274.795 115.826 274.679 115.134 274.333 114.563C273.987 113.993 273.368 113.58 272.755 113.695C271.977 113.847 271.546 114.733 271.073 115.426C270.04 116.943 268.134 117.854 266.519 117.162C266.039 116.956 265.62 116.628 265.201 116.294C265.031 116.16 264.855 116.021 264.685 115.893C262.948 114.618 260.878 114.096 258.825 113.932C257.046 113.792 254.405 113.264 253.172 114.867C252.456 115.796 251.733 116.731 251.017 117.66C250.719 118.042 250.416 118.437 250.021 118.692C249.614 118.959 249.134 119.062 248.661 119.093C247.471 119.178 246.111 118.686 245.643 117.484C245.443 116.956 245.437 116.373 245.388 115.808C245.339 115.243 245.224 114.642 244.86 114.236C243.469 112.675 243.22 115.286 243.208 116.178C243.196 117.739 243.366 119.323 243.743 120.841ZM255.856 121.03C257.307 121.916 258.777 121.849 260.313 121.291C261.102 121.005 261.509 122.347 260.72 122.639C258.868 123.312 257.01 123.349 255.261 122.28C254.539 121.843 255.122 120.586 255.856 121.03Z" fill="#534741"/>
<path d="M241.229 90.3259C240.858 89.1844 240.573 88.0187 240.367 86.8348C241.472 87.1626 242.656 87.2051 243.779 86.9501C243.749 86.264 243.712 85.578 243.682 84.8919C243.658 84.3211 251.235 83.5197 251.855 83.4408C257.611 82.6575 262.875 81.9229 268.261 84.8008C272.864 87.2598 275.93 91.1395 276.878 96.3367C277.788 101.309 276.507 107.927 273.872 112.232C273.823 110.896 274.418 107.715 274.042 106.464C273.787 105.207 273.295 104.005 272.645 102.906C271.346 100.714 269.409 98.911 267.211 97.6663C263.713 95.687 259.718 94.752 255.753 94.3999C252.122 94.0781 247.708 93.8352 244.192 94.9949C242.504 95.5534 242.243 96.0027 241.113 94.3027C240.913 94.0052 239.28 90.4594 239.425 90.4534C240.026 90.4048 240.628 90.3623 241.229 90.3259Z" fill="#534741"/>
<path d="M444.951 281.147L426.753 260.468L426.158 260.419C425.235 257.985 424.306 255.556 423.383 253.121C418.495 240.28 413.613 227.445 408.725 214.604C404.426 203.311 401.348 184.374 386.732 183.038L247.823 170.318C232.394 168.903 217.487 176.966 209.527 191.034L181.814 240.001L179.501 239.807L131.623 250.207C114.561 256.697 102.684 272.344 101.02 290.522L98.5183 317.838L451.217 350.126L454.775 311.262C455.771 300.303 452.219 289.411 444.951 281.147Z" fill="#006DCC"/>
<path d="M311.391 245.945L404.068 254.433L387.765 200.67C386.951 197.992 384.698 196.098 382.033 195.855L316.528 189.856L311.391 245.945Z" fill="#86BAE7"/>
<path d="M300.674 188.399L247.586 183.536C236.335 182.503 225.466 188.387 219.661 198.641L198.731 235.629L295.537 244.494L300.674 188.399Z" fill="#86BAE7"/>
<g opacity="0.2">
<path opacity="0.2" d="M389.161 213.438C390.333 214.209 391.505 214.986 392.677 215.757L388.214 201.046C387.4 198.369 385.148 196.474 382.482 196.231L359.791 194.155C369.536 200.645 379.379 206.996 389.161 213.438Z" fill="#FFFFF1"/>
<path opacity="0.2" d="M389.829 225.976C373.659 215.211 356.724 203.135 340.761 192.072L319.442 190.463C332.886 204.312 350.306 217.123 365.675 228.623C374.916 235.538 384.388 242.144 394.152 248.301C397.352 250.316 400.722 252.192 404.098 254.081L397.043 230.809C394.644 229.194 392.24 227.579 389.829 225.976Z" fill="#FFFFF1"/>
<path opacity="0.2" d="M280.891 220.438C274.157 215.156 267.138 210.214 260.052 205.424C252.881 200.566 245.601 195.691 238.005 191.52C235.497 190.148 232.959 188.848 230.421 187.543C226.067 190.16 222.327 193.936 219.655 198.648L219.455 199.006C226.953 205.339 234.513 211.598 241.951 217.973C252.954 227.396 265.365 234.907 277.448 242.842L295.537 244.5L296.466 234.336C291.28 229.691 286.374 224.737 280.891 220.438Z" fill="#FFFFF1"/>
</g>
<path opacity="0.1" d="M232.03 330.06C232.485 328.505 232.795 326.896 232.947 325.233C234.44 308.912 220.044 294.25 200.789 292.489C193.272 291.803 186.131 293.187 180.12 296.095C191.766 299.678 201.682 306.569 209.509 315.124C213.492 319.483 216.491 324.024 218.689 328.748L232.03 330.06Z" fill="black"/>
<path opacity="0.1" d="M414.664 346.78C415.113 345.226 415.417 343.611 415.568 341.954C417.062 325.633 403.036 311.001 384.237 309.283C376.896 308.609 369.919 310.011 364.047 312.938C375.408 316.496 385.081 323.363 392.707 331.899C396.587 336.246 399.508 340.782 401.645 345.499L414.664 346.78Z" fill="black"/>
<path d="M219.584 334.596C226.078 318.673 218.433 300.502 202.509 294.009C186.584 287.516 168.411 295.161 161.918 311.083C155.425 327.006 163.07 345.178 178.994 351.671C194.918 358.163 213.091 350.519 219.584 334.596Z" fill="#35383F"/>
<path d="M200.398 337.623C208.572 332.287 210.872 321.335 205.535 313.162C200.198 304.989 189.246 302.69 181.072 308.026C172.898 313.362 170.598 324.314 175.935 332.487C181.272 340.66 192.225 342.96 200.398 337.623Z" fill="#FFFFF1"/>
<path opacity="0.1" d="M192.707 335.378C196.089 335.433 199.587 334.552 202.186 332.385C200.862 335.36 198.002 337.606 194.79 338.177C193.703 338.371 192.586 338.383 191.481 338.359C190.309 338.329 189.131 338.256 187.989 337.983C184.917 337.248 182.245 335.014 180.982 332.118C181.395 333.059 184.789 334 185.633 334.237C187.947 334.874 190.315 335.342 192.707 335.378Z" fill="black"/>
<path d="M395.975 361.625C408.134 349.466 408.134 329.753 395.975 317.594C383.815 305.436 364.1 305.436 351.94 317.594C339.781 329.753 339.781 349.466 351.94 361.625C364.1 373.784 383.815 373.784 395.975 361.625Z" fill="#35383F"/>
<path d="M388.376 349.835C394.033 341.88 392.169 330.845 384.213 325.188C376.257 319.532 365.222 321.395 359.565 329.351C353.907 337.306 355.771 348.341 363.727 353.997C371.683 359.654 382.719 357.79 388.376 349.835Z" fill="#FFFFF1"/>
<path opacity="0.1" d="M375.93 352.154C379.312 352.209 382.81 351.328 385.409 349.161C384.085 352.136 381.225 354.382 378.019 354.953C376.932 355.147 375.815 355.159 374.71 355.135C373.538 355.105 372.36 355.032 371.218 354.759C368.146 354.024 365.474 351.79 364.211 348.894C364.624 349.835 368.018 350.776 368.862 351.013C371.164 351.65 373.532 352.118 375.93 352.154Z" fill="black"/>
<path d="M283.271 266.661L270.86 265.525C269.634 265.41 268.729 264.329 268.844 263.103L269.099 260.298C269.215 259.071 270.296 258.167 271.522 258.282L283.933 259.418C285.16 259.533 286.064 260.614 285.949 261.84L285.694 264.645C285.585 265.872 284.498 266.776 283.271 266.661Z" fill="#3CB3FF"/>
<path d="M293.278 200.742L292.319 205.672L288.597 208.034L288.706 209.085L290.005 209.024L287.491 211.878L287.419 214.992L290.728 217.536L295.003 217.53L297.122 214.009L297.195 209.091L298.804 202.4L293.278 200.742Z" fill="#EACDB0"/>
<path d="M290.54 203.007C290.497 197.482 290.461 191.963 290.418 186.438C290.394 182.874 290.436 179.298 290.339 175.734C290.218 171.253 287.109 171.259 284.613 167.653C278.985 159.535 273.113 150.568 273.775 140.707C273.842 139.724 273.987 138.698 274.558 137.89C275.627 136.36 277.91 136.117 279.628 136.84C281.353 137.562 282.64 139.013 283.86 140.428C290.461 148.102 298.749 156.584 303.461 165.594C305.58 169.644 303.449 176.371 302.878 180.913C301.73 190.099 300.577 199.285 299.429 208.472L290.54 203.007Z" fill="#92B7A2"/>
<path d="M52.4743 212.934L51.1263 218.168L59.5057 221.398L63.6772 217.603L62.7785 212.831L58.6192 213.839L58.8742 212.861L60.119 212.139L59.3782 210.9L52.4743 212.934Z" fill="#EBCEB1"/>
<path d="M12.8241 172.801C13.0488 171.302 13.2795 169.802 13.5163 168.308C13.8563 166.159 14.2814 163.876 15.7872 162.31C17.6028 160.415 20.4687 160.082 23.0858 159.863C25.4174 159.669 28.1498 159.632 29.6253 161.448C30.609 162.656 30.7062 164.332 30.7487 165.886C30.943 173.008 30.8519 180.142 30.4754 187.258C30.184 192.862 27.4576 200.524 31.8902 203.651C37.5797 207.664 47.7503 209 54.4599 211.258L52.7536 219.34C41.8908 217.615 31.0462 215.776 20.1651 214.173C11.1846 212.849 9.07159 212.151 9.61807 202.279C10.1767 192.431 11.3607 182.57 12.8241 172.801Z" fill="#D1E0DA"/>
<path d="M485.615 260.717H455.777C454.035 260.717 452.626 259.308 452.626 257.566V257.505C452.626 255.762 454.035 254.354 455.777 254.354H485.615V260.717Z" fill="#006DCC"/>
<path d="M536.541 276.922H499.538C486.738 276.922 476.355 266.546 476.355 253.741V231.817C476.355 219.018 486.732 208.635 499.538 208.635H536.541V276.922Z" fill="#006DCC"/>
<path d="M485.615 232.946H455.777C454.035 232.946 452.626 231.537 452.626 229.795V229.734C452.626 227.991 454.035 226.583 455.777 226.583H485.615V232.946Z" fill="#006DCC"/>
<path d="M639 237.074H529.783V248.483H639V237.074Z" fill="#006DCC"/>
<path d="M520.729 224.367L509.35 223.675L499.186 244.427L507.529 244.931L499.823 261.919L518.92 241.148L509.69 239.782L520.729 224.367Z" fill="white"/>
<path d="M541.216 217.7L536.498 222.387L530.627 222.278L529.971 223.51L531.459 224.379L526.559 225.684L524.172 229.029L525.951 234.202L530.687 237.293L535.642 234.98L539.364 229.655L546.104 223.51L541.216 217.7Z" fill="#E0CBAF"/>
<path d="M536.62 220.56C544.319 213.99 552.018 207.421 559.718 200.846C561.788 199.079 564.175 197.694 566.239 195.909C569.257 193.299 569.688 192.625 568.838 188.982C565.674 175.388 558.582 168.424 555.042 159.632C558.327 157.507 561.242 154.963 564.8 153.19C570.605 150.294 572.153 154.52 574.758 158.77C577.849 163.815 580.788 168.952 583.532 174.192C585.809 178.533 596.988 196.681 591.304 201.362C587.236 204.731 542.297 231.021 542.807 231.956C542.601 231.586 536.62 220.56 536.62 220.56Z" fill="#92A09C"/>
</g>
<defs>
<clipPath id="clip0">
<rect width="639" height="415" fill="white"/>
</clipPath>
</defs>
</svg>
