<svg width="21" height="21" viewBox="0 0 21 21" fill="none" xmlns="http://www.w3.org/2000/svg">
<path d="M12.3597 10.257L19.5263 2.92824C19.8402 2.60655 20.0165 2.17026 20.0165 1.71532C20.0165 1.26039 19.8402 0.824092 19.5263 0.502407C19.2125 0.180721 18.7868 0 18.343 0C17.8992 0 17.4735 0.180721 17.1597 0.502407L10.0097 7.84824L2.85966 0.502407C2.54582 0.180721 2.12017 -3.38951e-09 1.67633 0C1.23249 3.38951e-09 0.806837 0.180721 0.492997 0.502407C0.179158 0.824092 0.00284434 1.26039 0.00284433 1.71532C0.00284433 2.17026 0.179158 2.60655 0.492997 2.92824L7.65966 10.257L0.492997 17.5857C0.336783 17.7446 0.212793 17.9335 0.128179 18.1417C0.0435641 18.3498 0 18.5731 0 18.7987C0 19.0242 0.0435641 19.2475 0.128179 19.4556C0.212793 19.6638 0.336783 19.8528 0.492997 20.0116C0.647936 20.1717 0.832271 20.2988 1.03537 20.3855C1.23847 20.4722 1.45631 20.5169 1.67633 20.5169C1.89635 20.5169 2.11419 20.4722 2.31729 20.3855C2.52039 20.2988 2.70473 20.1717 2.85966 20.0116L10.0097 12.6657L17.1597 20.0116C17.3146 20.1717 17.4989 20.2988 17.702 20.3855C17.9051 20.4722 18.123 20.5169 18.343 20.5169C18.563 20.5169 18.7809 20.4722 18.984 20.3855C19.1871 20.2988 19.3714 20.1717 19.5263 20.0116C19.6825 19.8528 19.8065 19.6638 19.8912 19.4556C19.9758 19.2475 20.0193 19.0242 20.0193 18.7987C20.0193 18.5731 19.9758 18.3498 19.8912 18.1417C19.8065 17.9335 19.6825 17.7446 19.5263 17.5857L12.3597 10.257Z" fill="white"/>
</svg>
